<svg width="207" height="104" viewBox="0 0 207 104" fill="none" xmlns="http://www.w3.org/2000/svg">
<path d="M109.366 57.0364V95.4339C126.858 64.2893 152.883 67.4891 159.496 69.8356C169.522 40.8241 176.349 45.0905 183.175 43.3839C181.468 13.5192 195.334 6.693 206 2.21329C186.588 7.11964 174.002 8.39955 146.91 8.39955C151.006 47.309 123.588 57.0364 109.366 57.0364Z" stroke="#ECF2FF" stroke-opacity="0.8" stroke-width="4"/>
<path d="M97.6338 56.8231V95.2206C80.1416 64.076 54.1166 67.2758 47.5037 69.6223C37.4777 40.6108 30.6515 44.8772 23.8253 43.1707C25.5318 13.3059 11.666 6.47971 1.00007 2C20.4121 6.90635 32.998 8.18626 60.0896 8.18626C55.9938 47.0957 83.4125 56.8231 97.6338 56.8231Z" stroke="#ECF2FF" stroke-opacity="0.8" stroke-width="4"/>
<path d="M143.497 51.0635L150.324 58.3163" stroke="#ECF2FF" stroke-opacity="0.8" stroke-width="4"/>
<path d="M158.43 25.2518L176.562 26.7451" stroke="#ECF2FF" stroke-opacity="0.8" stroke-width="4"/>
<path d="M63.076 50.8502L56.2498 58.1031" stroke="#ECF2FF" stroke-opacity="0.8" stroke-width="4"/>
<path d="M48.1436 25.0385L30.0114 26.5317" stroke="#ECF2FF" stroke-opacity="0.8" stroke-width="4"/>
</svg>
