<svg width="200" height="91" viewBox="0 0 200 91" fill="none" xmlns="http://www.w3.org/2000/svg">
<path d="M104.001 48.0954C106.656 43.887 112.858 35.276 116.432 34.499C120.9 33.5279 162.854 32.7509 192.378 3.22742C194.903 2.25625 205.003 3.42165 183.831 26.7297C192.378 19.7373 204.226 19.7373 183.831 38.7722C179.636 41.2583 175.479 42.9158 173.925 43.4338C187.263 39.7433 204.42 37.0629 166.35 55.8647C180.335 51.7858 200.341 59.7494 152.171 66.936C171.206 65.9649 192.766 72.5688 136.827 73.9284C159.358 75.0938 175.285 85.9709 133.719 79.9497C149.84 84.417 157.416 94.5172 122.259 83.0574" stroke="#ECF2FF" stroke-opacity="0.8" stroke-width="5"/>
<path d="M95.9987 48.1286C93.3442 43.9202 87.1417 35.3091 83.5678 34.5322C79.1004 33.561 37.146 32.7841 7.62245 3.26061C5.09742 2.28944 -5.00273 3.45484 16.1687 26.7629C7.62245 19.7705 -4.22579 19.7705 16.1687 38.8053C20.3642 41.2915 24.5208 42.949 26.0746 43.467C12.7373 39.7765 -4.42003 37.0961 33.6497 55.8979C19.6649 51.819 -0.341123 59.7826 47.8288 66.9692C28.7939 65.998 7.23399 72.602 63.1732 73.9616C40.6422 75.127 24.715 86.0041 66.281 79.9829C50.1596 84.4502 42.5845 94.5504 77.7408 83.0906" stroke="#ECF2FF" stroke-opacity="0.8" stroke-width="5"/>
</svg>
