<svg width="70" height="70" viewBox="0 0 70 70" fill="none" xmlns="http://www.w3.org/2000/svg">
<path d="M35 64.1668C51.1083 64.1668 64.1667 51.1085 64.1667 35.0002C64.1667 18.8919 51.1083 5.8335 35 5.8335C18.8917 5.8335 5.83337 18.8919 5.83337 35.0002C5.83337 51.1085 18.8917 64.1668 35 64.1668Z" fill="#1769FF"/>
<path d="M27.6808 23.3335C28.6892 23.3335 29.6208 23.4103 30.4757 23.6408C31.3304 23.7945 32.0316 24.1115 32.6559 24.4956C33.2802 24.8798 33.7412 25.4272 34.0581 26.1284C34.3655 26.8296 34.5287 27.6843 34.5287 28.616C34.5287 29.7013 34.2983 30.6329 33.7508 31.3341C33.2802 32.0351 32.5118 32.6594 31.5706 33.1205C32.8959 33.5046 33.9044 34.2058 34.519 35.1374C35.1337 36.069 35.5276 37.2311 35.5276 38.5566C35.5276 39.6419 35.2971 40.5735 34.9033 41.3515C34.519 42.1294 33.8949 42.8305 33.1937 43.2915C32.4925 43.7623 31.6378 44.1464 30.7061 44.3768C29.7745 44.6074 28.8429 44.7611 27.9112 44.7611L17.5 44.7803V23.3335H27.6808ZM27.0565 32.0351C27.9112 32.0351 28.6124 31.8047 29.1502 31.4109C29.688 31.017 29.9282 30.3255 29.9282 29.4707C29.9282 29.0001 29.8514 28.5392 29.6976 28.2317C29.5439 27.9245 29.3135 27.6843 28.9965 27.4539C28.6892 27.3002 28.3723 27.1465 27.988 27.0696C27.6039 26.9927 27.2102 26.9927 26.749 26.9927H22.2445V32.0447C22.2445 32.0351 27.0565 32.0351 27.0565 32.0351ZM27.287 41.2074C27.7576 41.2074 28.2186 41.1306 28.6124 41.0537C28.9965 40.9768 29.3904 40.8233 29.6976 40.5831C30.0051 40.3431 30.2451 40.1125 30.4757 39.7284C30.6294 39.3441 30.7829 38.8735 30.7829 38.326C30.7829 37.2407 30.4757 36.4629 29.8514 35.9154C29.227 35.4447 28.3723 35.2142 27.3637 35.2142H22.2445V41.1978H27.287V41.2074Z" fill="white"/>
<path d="M42.2888 41.1304C42.9131 41.7547 43.8446 42.0621 45.0836 42.0621C45.9385 42.0621 46.7164 41.8315 47.3407 41.4378C47.965 40.9672 48.3492 40.5062 48.5029 40.0355H52.3062C51.682 41.8988 50.7503 43.2242 49.5113 44.079C48.2724 44.857 46.7933 45.318 45.0068 45.318C43.7679 45.318 42.673 45.0874 41.6644 44.6937C40.656 44.3095 39.8781 43.7621 39.177 42.9841C38.4758 42.2829 37.938 41.4282 37.6211 40.4197C37.2368 39.4113 37.0736 38.3259 37.0736 37.0774C37.0736 35.9152 37.2272 34.8203 37.6211 33.8119C38.0148 32.8033 38.5527 31.9486 39.2538 31.1705C39.955 30.4695 40.8097 29.8452 41.7413 29.4609C42.7499 29.0768 43.7583 28.8368 45.0068 28.8368C46.3323 28.8368 47.4944 29.0672 48.5029 29.6146C49.5113 30.1621 50.2893 30.7768 50.9136 31.7084C51.5379 32.5632 51.9989 33.5717 52.3158 34.657C52.4695 35.7423 52.5464 36.8372 52.4695 38.0762H41.2035C41.2035 39.3441 41.6644 40.5062 42.2888 41.1304ZM47.187 32.9666C46.6397 32.4192 45.7848 32.1119 44.7764 32.1119C44.0752 32.1119 43.5374 32.2655 43.0668 32.496C42.5962 32.7266 42.2888 33.0435 41.9815 33.3507C41.6741 33.6582 41.5109 34.0519 41.434 34.4362C41.3572 34.8203 41.2803 35.1372 41.2803 35.4446H48.2724C48.1187 34.2921 47.725 33.5141 47.187 32.9666ZM40.3487 24.8125H49.0503V26.9062H40.3487V24.8125Z" fill="white"/>
</svg>
