<svg width="150" height="80" viewBox="0 0 150 80" fill="none" xmlns="http://www.w3.org/2000/svg">
<path d="M0 2C0 0.895429 0.895431 0 2 0H140C145.523 0 150 4.47715 150 10V70C150 75.5228 145.523 80 140 80H2C0.895429 80 0 79.1046 0 78V2Z" fill="#D9D9D9" fill-opacity="0.1"/>
<path d="M63.9167 21C57.8627 21 56 22.8627 56 28.9167C56 34.9706 57.8627 36.8333 63.9167 36.8333C69.9706 36.8333 71.8333 34.9706 71.8333 28.9167C71.8333 22.8627 69.9706 21 63.9167 21Z" stroke="black" stroke-width="3" stroke-linecap="round" stroke-linejoin="round"/>
<path d="M63.9167 43.1667C57.8627 43.1667 56 45.0295 56 51.0833C56 57.1372 57.8627 59 63.9167 59C69.9706 59 71.8333 57.1372 71.8333 51.0833C71.8333 45.0295 69.9706 43.1667 63.9167 43.1667Z" stroke="black" stroke-width="3" stroke-linecap="round" stroke-linejoin="round"/>
<path d="M86.0833 43.1667C80.0295 43.1667 78.1666 45.0295 78.1666 51.0833C78.1666 57.1372 80.0295 59 86.0833 59C92.1371 59 94 57.1372 94 51.0833C94 45.0295 92.1371 43.1667 86.0833 43.1667Z" stroke="black" stroke-width="3" stroke-linecap="round" stroke-linejoin="round"/>
<path d="M86.0833 21C80.0295 21 78.1666 22.8627 78.1666 28.9167C78.1666 34.9706 80.0295 36.8333 86.0833 36.8333C92.1371 36.8333 94 34.9706 94 28.9167C94 22.8627 92.1371 21 86.0833 21Z" stroke="black" stroke-width="3" stroke-linecap="round" stroke-linejoin="round"/>
</svg>
