<svg width="990" height="150" viewBox="0 0 990 150" fill="none" xmlns="http://www.w3.org/2000/svg">
<circle cx="75" cy="75" r="75" fill="#BFEAF5"/>
<path d="M17.61 68C17.214 68 16.908 67.898 16.692 67.694C16.488 67.478 16.386 67.172 16.386 66.776V56.534C16.386 56.138 16.488 55.838 16.692 55.634C16.908 55.418 17.214 55.31 17.61 55.31H21.102C23.226 55.31 24.864 55.856 26.016 56.948C27.18 58.04 27.762 59.606 27.762 61.646C27.762 62.666 27.612 63.572 27.312 64.364C27.024 65.144 26.592 65.804 26.016 66.344C25.452 66.884 24.756 67.298 23.928 67.586C23.112 67.862 22.17 68 21.102 68H17.61ZM18.69 66.092H20.958C21.702 66.092 22.344 66.002 22.884 65.822C23.436 65.63 23.892 65.354 24.252 64.994C24.624 64.622 24.9 64.16 25.08 63.608C25.26 63.044 25.35 62.39 25.35 61.646C25.35 60.158 24.984 59.048 24.252 58.316C23.52 57.584 22.422 57.218 20.958 57.218H18.69V66.092ZM34.2189 68.18C33.2229 68.18 32.3649 67.994 31.6449 67.622C30.9249 67.25 30.3669 66.722 29.9709 66.038C29.5869 65.354 29.3949 64.544 29.3949 63.608C29.3949 62.696 29.5809 61.898 29.9529 61.214C30.3369 60.53 30.8589 59.996 31.5189 59.612C32.1909 59.216 32.9529 59.018 33.8049 59.018C34.4289 59.018 34.9869 59.12 35.4789 59.324C35.9829 59.528 36.4089 59.822 36.7569 60.206C37.1169 60.59 37.3869 61.058 37.5669 61.61C37.7589 62.15 37.8549 62.762 37.8549 63.446C37.8549 63.662 37.7769 63.83 37.6209 63.95C37.4769 64.058 37.2669 64.112 36.9909 64.112H31.2129V62.816H36.2709L35.9829 63.086C35.9829 62.534 35.8989 62.072 35.7309 61.7C35.5749 61.328 35.3409 61.046 35.0289 60.854C34.7289 60.65 34.3509 60.548 33.8949 60.548C33.3909 60.548 32.9589 60.668 32.5989 60.908C32.2509 61.136 31.9809 61.466 31.7889 61.898C31.6089 62.318 31.5189 62.822 31.5189 63.41V63.536C31.5189 64.52 31.7469 65.258 32.2029 65.75C32.6709 66.23 33.3549 66.47 34.2549 66.47C34.5669 66.47 34.9149 66.434 35.2989 66.362C35.6949 66.278 36.0669 66.14 36.4149 65.948C36.6669 65.804 36.8889 65.744 37.0809 65.768C37.2729 65.78 37.4229 65.846 37.5309 65.966C37.6509 66.086 37.7229 66.236 37.7469 66.416C37.7709 66.584 37.7349 66.758 37.6389 66.938C37.5549 67.118 37.4049 67.274 37.1889 67.406C36.7689 67.67 36.2829 67.868 35.7309 68C35.1909 68.12 34.6869 68.18 34.2189 68.18ZM41.3296 68.144C40.9696 68.144 40.6876 68.048 40.4836 67.856C40.2916 67.652 40.1956 67.364 40.1956 66.992V60.89H39.3676C39.0796 60.89 38.8576 60.818 38.7016 60.674C38.5456 60.518 38.4676 60.308 38.4676 60.044C38.4676 59.768 38.5456 59.558 38.7016 59.414C38.8576 59.27 39.0796 59.198 39.3676 59.198H40.8436L40.1956 59.792V59.18C40.1956 57.968 40.5016 57.05 41.1136 56.426C41.7256 55.802 42.6136 55.43 43.7776 55.31L44.3176 55.256C44.5936 55.232 44.8096 55.268 44.9656 55.364C45.1336 55.46 45.2416 55.592 45.2896 55.76C45.3496 55.916 45.3616 56.084 45.3256 56.264C45.2896 56.432 45.2176 56.582 45.1096 56.714C45.0016 56.834 44.8636 56.9 44.6956 56.912L44.2636 56.948C43.6276 56.996 43.1656 57.17 42.8776 57.47C42.5896 57.77 42.4456 58.22 42.4456 58.82V59.486L42.1576 59.198H47.1436C47.5036 59.198 47.7796 59.306 47.9716 59.522C48.1636 59.726 48.2596 60.02 48.2596 60.404V66.902C48.2596 67.286 48.1636 67.586 47.9716 67.802C47.7916 68.018 47.5156 68.126 47.1436 68.126C46.7836 68.126 46.5016 68.018 46.2976 67.802C46.1056 67.586 46.0096 67.286 46.0096 66.902V60.89H42.4456V66.992C42.4456 67.76 42.0736 68.144 41.3296 68.144ZM47.1796 57.398C46.7716 57.398 46.4536 57.296 46.2256 57.092C46.0096 56.876 45.9016 56.582 45.9016 56.21C45.9016 55.826 46.0096 55.532 46.2256 55.328C46.4536 55.124 46.7716 55.022 47.1796 55.022C47.5996 55.022 47.9176 55.124 48.1336 55.328C48.3616 55.532 48.4756 55.826 48.4756 56.21C48.4756 56.582 48.3616 56.876 48.1336 57.092C47.9176 57.296 47.5996 57.398 47.1796 57.398ZM51.7215 68.144C51.3615 68.144 51.0855 68.048 50.8935 67.856C50.7015 67.652 50.6055 67.364 50.6055 66.992V60.188C50.6055 59.816 50.7015 59.534 50.8935 59.342C51.0855 59.15 51.3555 59.054 51.7035 59.054C52.0515 59.054 52.3215 59.15 52.5135 59.342C52.7055 59.534 52.8015 59.816 52.8015 60.188V61.412L52.6035 60.962C52.8675 60.326 53.2755 59.846 53.8275 59.522C54.3915 59.186 55.0275 59.018 55.7355 59.018C56.4435 59.018 57.0255 59.15 57.4815 59.414C57.9375 59.678 58.2795 60.08 58.5075 60.62C58.7355 61.148 58.8495 61.82 58.8495 62.636V66.992C58.8495 67.364 58.7535 67.652 58.5615 67.856C58.3695 68.048 58.0935 68.144 57.7335 68.144C57.3735 68.144 57.0915 68.048 56.8875 67.856C56.6955 67.652 56.5995 67.364 56.5995 66.992V62.744C56.5995 62.06 56.4675 61.562 56.2035 61.25C55.9515 60.938 55.5555 60.782 55.0155 60.782C54.3555 60.782 53.8275 60.992 53.4315 61.412C53.0475 61.82 52.8555 62.366 52.8555 63.05V66.992C52.8555 67.76 52.4775 68.144 51.7215 68.144ZM62.2508 68.126C61.8908 68.126 61.6148 68.018 61.4228 67.802C61.2308 67.586 61.1348 67.286 61.1348 66.902V60.296C61.1348 59.9 61.2308 59.6 61.4228 59.396C61.6148 59.18 61.8908 59.072 62.2508 59.072C62.6108 59.072 62.8868 59.18 63.0788 59.396C63.2828 59.6 63.3848 59.9 63.3848 60.296V66.902C63.3848 67.286 63.2888 67.586 63.0968 67.802C62.9048 68.018 62.6228 68.126 62.2508 68.126ZM62.2508 57.398C61.8308 57.398 61.5008 57.296 61.2608 57.092C61.0328 56.876 60.9188 56.582 60.9188 56.21C60.9188 55.826 61.0328 55.532 61.2608 55.328C61.5008 55.124 61.8308 55.022 62.2508 55.022C62.6828 55.022 63.0128 55.124 63.2408 55.328C63.4688 55.532 63.5828 55.826 63.5828 56.21C63.5828 56.582 63.4688 56.876 63.2408 57.092C63.0128 57.296 62.6828 57.398 62.2508 57.398ZM69.7907 68.18C68.8667 68.18 68.0627 67.994 67.3787 67.622C66.6947 67.238 66.1667 66.698 65.7947 66.002C65.4227 65.306 65.2367 64.49 65.2367 63.554C65.2367 62.846 65.3387 62.216 65.5427 61.664C65.7587 61.1 66.0647 60.626 66.4607 60.242C66.8567 59.846 67.3367 59.546 67.9007 59.342C68.4647 59.126 69.0947 59.018 69.7907 59.018C70.1867 59.018 70.6127 59.072 71.0687 59.18C71.5367 59.288 71.9747 59.468 72.3827 59.72C72.5747 59.84 72.7007 59.984 72.7607 60.152C72.8207 60.32 72.8327 60.494 72.7967 60.674C72.7607 60.842 72.6827 60.992 72.5627 61.124C72.4547 61.244 72.3167 61.322 72.1487 61.358C71.9807 61.382 71.7947 61.34 71.5907 61.232C71.3267 61.076 71.0567 60.962 70.7807 60.89C70.5047 60.806 70.2407 60.764 69.9887 60.764C69.5927 60.764 69.2447 60.83 68.9447 60.962C68.6447 61.082 68.3867 61.262 68.1707 61.502C67.9667 61.73 67.8107 62.018 67.7027 62.366C67.5947 62.714 67.5407 63.116 67.5407 63.572C67.5407 64.46 67.7507 65.162 68.1707 65.678C68.6027 66.182 69.2087 66.434 69.9887 66.434C70.2407 66.434 70.4987 66.398 70.7627 66.326C71.0387 66.254 71.3147 66.14 71.5907 65.984C71.7947 65.876 71.9747 65.84 72.1307 65.876C72.2987 65.912 72.4367 65.996 72.5447 66.128C72.6527 66.248 72.7187 66.398 72.7427 66.578C72.7667 66.746 72.7427 66.914 72.6707 67.082C72.6107 67.25 72.4907 67.388 72.3107 67.496C71.9147 67.736 71.4947 67.91 71.0507 68.018C70.6067 68.126 70.1867 68.18 69.7907 68.18ZM75.329 68.126C74.969 68.126 74.693 68.018 74.501 67.802C74.309 67.586 74.213 67.286 74.213 66.902V60.296C74.213 59.9 74.309 59.6 74.501 59.396C74.693 59.18 74.969 59.072 75.329 59.072C75.689 59.072 75.965 59.18 76.157 59.396C76.361 59.6 76.463 59.9 76.463 60.296V66.902C76.463 67.286 76.367 67.586 76.175 67.802C75.983 68.018 75.701 68.126 75.329 68.126ZM75.329 57.398C74.909 57.398 74.579 57.296 74.339 57.092C74.111 56.876 73.997 56.582 73.997 56.21C73.997 55.826 74.111 55.532 74.339 55.328C74.579 55.124 74.909 55.022 75.329 55.022C75.761 55.022 76.091 55.124 76.319 55.328C76.547 55.532 76.661 55.826 76.661 56.21C76.661 56.582 76.547 56.876 76.319 57.092C76.091 57.296 75.761 57.398 75.329 57.398ZM82.8149 68.18C81.9029 68.18 81.1109 67.994 80.4389 67.622C79.7669 67.25 79.2449 66.722 78.8729 66.038C78.5009 65.342 78.3149 64.526 78.3149 63.59C78.3149 62.882 78.4169 62.252 78.6209 61.7C78.8369 61.136 79.1429 60.656 79.5389 60.26C79.9349 59.852 80.4089 59.546 80.9609 59.342C81.5129 59.126 82.1309 59.018 82.8149 59.018C83.7269 59.018 84.5189 59.204 85.1909 59.576C85.8629 59.948 86.3849 60.476 86.7569 61.16C87.1289 61.844 87.3149 62.654 87.3149 63.59C87.3149 64.298 87.2069 64.934 86.9909 65.498C86.7869 66.062 86.4869 66.548 86.0909 66.956C85.6949 67.352 85.2209 67.658 84.6689 67.874C84.1169 68.078 83.4989 68.18 82.8149 68.18ZM82.8149 66.47C83.2589 66.47 83.6489 66.362 83.9849 66.146C84.3209 65.93 84.5789 65.612 84.7589 65.192C84.9509 64.76 85.0469 64.226 85.0469 63.59C85.0469 62.63 84.8429 61.916 84.4349 61.448C84.0269 60.968 83.4869 60.728 82.8149 60.728C82.3709 60.728 81.9809 60.836 81.6449 61.052C81.3089 61.256 81.0449 61.574 80.8529 62.006C80.6729 62.426 80.5829 62.954 80.5829 63.59C80.5829 64.538 80.7869 65.258 81.1949 65.75C81.6029 66.23 82.1429 66.47 82.8149 66.47ZM83.6609 57.92C83.5409 58.088 83.3969 58.184 83.2289 58.208C83.0609 58.232 82.8989 58.202 82.7429 58.118C82.5869 58.034 82.4729 57.914 82.4009 57.758C82.3409 57.602 82.3589 57.428 82.4549 57.236L83.8229 54.554C83.9309 54.326 84.0749 54.182 84.2549 54.122C84.4349 54.05 84.6209 54.038 84.8129 54.086C85.0049 54.134 85.1669 54.224 85.2989 54.356C85.4429 54.488 85.5269 54.65 85.5509 54.842C85.5869 55.022 85.5389 55.208 85.4069 55.4L83.6609 57.92ZM90.288 68.144C89.928 68.144 89.652 68.048 89.46 67.856C89.268 67.652 89.172 67.364 89.172 66.992V60.188C89.172 59.816 89.268 59.534 89.46 59.342C89.652 59.15 89.922 59.054 90.27 59.054C90.618 59.054 90.888 59.15 91.08 59.342C91.272 59.534 91.368 59.816 91.368 60.188V61.412L91.17 60.962C91.434 60.326 91.842 59.846 92.394 59.522C92.958 59.186 93.594 59.018 94.302 59.018C95.01 59.018 95.592 59.15 96.048 59.414C96.504 59.678 96.846 60.08 97.074 60.62C97.302 61.148 97.416 61.82 97.416 62.636V66.992C97.416 67.364 97.32 67.652 97.128 67.856C96.936 68.048 96.66 68.144 96.3 68.144C95.94 68.144 95.658 68.048 95.454 67.856C95.262 67.652 95.166 67.364 95.166 66.992V62.744C95.166 62.06 95.034 61.562 94.77 61.25C94.518 60.938 94.122 60.782 93.582 60.782C92.922 60.782 92.394 60.992 91.998 61.412C91.614 61.82 91.422 62.366 91.422 63.05V66.992C91.422 67.76 91.044 68.144 90.288 68.144ZM107.972 68.18C107.204 68.18 106.526 67.994 105.938 67.622C105.362 67.25 104.912 66.722 104.588 66.038C104.264 65.342 104.102 64.526 104.102 63.59C104.102 62.642 104.264 61.832 104.588 61.16C104.912 60.476 105.362 59.948 105.938 59.576C106.526 59.204 107.204 59.018 107.972 59.018C108.704 59.018 109.34 59.198 109.88 59.558C110.432 59.918 110.804 60.392 110.996 60.98H110.798V56.3C110.798 55.928 110.894 55.646 111.086 55.454C111.278 55.262 111.554 55.166 111.914 55.166C112.274 55.166 112.55 55.262 112.742 55.454C112.946 55.646 113.048 55.928 113.048 56.3V66.992C113.048 67.364 112.952 67.652 112.76 67.856C112.568 68.048 112.292 68.144 111.932 68.144C111.572 68.144 111.296 68.048 111.104 67.856C110.912 67.652 110.816 67.364 110.816 66.992V65.588L111.014 66.128C110.834 66.752 110.468 67.25 109.916 67.622C109.364 67.994 108.716 68.18 107.972 68.18ZM108.602 66.47C109.046 66.47 109.436 66.362 109.772 66.146C110.108 65.93 110.366 65.612 110.546 65.192C110.738 64.76 110.834 64.226 110.834 63.59C110.834 62.63 110.63 61.916 110.222 61.448C109.814 60.968 109.274 60.728 108.602 60.728C108.158 60.728 107.768 60.836 107.432 61.052C107.096 61.256 106.832 61.574 106.64 62.006C106.46 62.426 106.37 62.954 106.37 63.59C106.37 64.538 106.574 65.258 106.982 65.75C107.39 66.23 107.93 66.47 108.602 66.47ZM119.719 68.18C118.723 68.18 117.865 67.994 117.145 67.622C116.425 67.25 115.867 66.722 115.471 66.038C115.087 65.354 114.895 64.544 114.895 63.608C114.895 62.696 115.081 61.898 115.453 61.214C115.837 60.53 116.359 59.996 117.019 59.612C117.691 59.216 118.453 59.018 119.305 59.018C119.929 59.018 120.487 59.12 120.979 59.324C121.483 59.528 121.909 59.822 122.257 60.206C122.617 60.59 122.887 61.058 123.067 61.61C123.259 62.15 123.355 62.762 123.355 63.446C123.355 63.662 123.277 63.83 123.121 63.95C122.977 64.058 122.767 64.112 122.491 64.112H116.713V62.816H121.771L121.483 63.086C121.483 62.534 121.399 62.072 121.231 61.7C121.075 61.328 120.841 61.046 120.529 60.854C120.229 60.65 119.851 60.548 119.395 60.548C118.891 60.548 118.459 60.668 118.099 60.908C117.751 61.136 117.481 61.466 117.289 61.898C117.109 62.318 117.019 62.822 117.019 63.41V63.536C117.019 64.52 117.247 65.258 117.703 65.75C118.171 66.23 118.855 66.47 119.755 66.47C120.067 66.47 120.415 66.434 120.799 66.362C121.195 66.278 121.567 66.14 121.915 65.948C122.167 65.804 122.389 65.744 122.581 65.768C122.773 65.78 122.923 65.846 123.031 65.966C123.151 66.086 123.223 66.236 123.247 66.416C123.271 66.584 123.235 66.758 123.139 66.938C123.055 67.118 122.905 67.274 122.689 67.406C122.269 67.67 121.783 67.868 121.231 68C120.691 68.12 120.187 68.18 119.719 68.18ZM128.143 68.18C127.147 68.18 126.397 67.898 125.893 67.334C125.389 66.758 125.137 65.918 125.137 64.814V56.3C125.137 55.928 125.233 55.646 125.425 55.454C125.617 55.262 125.893 55.166 126.253 55.166C126.613 55.166 126.889 55.262 127.081 55.454C127.285 55.646 127.387 55.928 127.387 56.3V64.706C127.387 65.258 127.501 65.666 127.729 65.93C127.969 66.194 128.305 66.326 128.737 66.326C128.833 66.326 128.923 66.326 129.007 66.326C129.091 66.314 129.175 66.302 129.259 66.29C129.427 66.266 129.541 66.314 129.601 66.434C129.661 66.542 129.691 66.77 129.691 67.118C129.691 67.418 129.631 67.652 129.511 67.82C129.391 67.988 129.193 68.09 128.917 68.126C128.797 68.138 128.671 68.15 128.539 68.162C128.407 68.174 128.275 68.18 128.143 68.18ZM17.286 96.384C16.926 96.384 16.65 96.288 16.458 96.096C16.266 95.904 16.17 95.622 16.17 95.25V85.188C16.17 84.816 16.266 84.534 16.458 84.342C16.65 84.15 16.92 84.054 17.268 84.054C17.628 84.054 17.904 84.15 18.096 84.342C18.288 84.534 18.384 84.816 18.384 85.188V86.592L18.186 86.052C18.366 85.44 18.732 84.948 19.284 84.576C19.848 84.204 20.502 84.018 21.246 84.018C22.014 84.018 22.686 84.204 23.262 84.576C23.85 84.948 24.306 85.476 24.63 86.16C24.954 86.832 25.116 87.642 25.116 88.59C25.116 89.526 24.954 90.342 24.63 91.038C24.306 91.722 23.856 92.25 23.28 92.622C22.704 92.994 22.026 93.18 21.246 93.18C20.514 93.18 19.872 93 19.32 92.64C18.768 92.268 18.396 91.788 18.204 91.2H18.42V95.25C18.42 95.622 18.318 95.904 18.114 96.096C17.922 96.288 17.646 96.384 17.286 96.384ZM20.616 91.47C21.06 91.47 21.45 91.362 21.786 91.146C22.122 90.93 22.38 90.612 22.56 90.192C22.752 89.76 22.848 89.226 22.848 88.59C22.848 87.63 22.644 86.916 22.236 86.448C21.828 85.968 21.288 85.728 20.616 85.728C20.172 85.728 19.782 85.836 19.446 86.052C19.11 86.256 18.846 86.574 18.654 87.006C18.474 87.426 18.384 87.954 18.384 88.59C18.384 89.538 18.588 90.258 18.996 90.75C19.404 91.23 19.944 91.47 20.616 91.47ZM28.115 93.144C27.743 93.144 27.455 93.048 27.251 92.856C27.059 92.652 26.963 92.364 26.963 91.992V85.188C26.963 84.816 27.059 84.534 27.251 84.342C27.443 84.15 27.713 84.054 28.061 84.054C28.409 84.054 28.679 84.15 28.871 84.342C29.063 84.534 29.159 84.816 29.159 85.188V86.322H28.979C29.147 85.602 29.477 85.056 29.969 84.684C30.461 84.312 31.115 84.09 31.931 84.018C32.183 83.994 32.381 84.06 32.525 84.216C32.681 84.36 32.771 84.588 32.795 84.9C32.819 85.2 32.747 85.446 32.579 85.638C32.423 85.818 32.183 85.926 31.859 85.962L31.463 85.998C30.731 86.07 30.179 86.298 29.807 86.682C29.435 87.054 29.249 87.582 29.249 88.266V91.992C29.249 92.364 29.153 92.652 28.961 92.856C28.769 93.048 28.487 93.144 28.115 93.144ZM37.8852 93.18C36.9732 93.18 36.1812 92.994 35.5092 92.622C34.8372 92.25 34.3152 91.722 33.9432 91.038C33.5712 90.342 33.3852 89.526 33.3852 88.59C33.3852 87.882 33.4872 87.252 33.6912 86.7C33.9072 86.136 34.2132 85.656 34.6092 85.26C35.0052 84.852 35.4792 84.546 36.0312 84.342C36.5832 84.126 37.2012 84.018 37.8852 84.018C38.7972 84.018 39.5892 84.204 40.2612 84.576C40.9332 84.948 41.4552 85.476 41.8272 86.16C42.1992 86.844 42.3852 87.654 42.3852 88.59C42.3852 89.298 42.2772 89.934 42.0612 90.498C41.8572 91.062 41.5572 91.548 41.1612 91.956C40.7652 92.352 40.2912 92.658 39.7392 92.874C39.1872 93.078 38.5692 93.18 37.8852 93.18ZM37.8852 91.47C38.3292 91.47 38.7192 91.362 39.0552 91.146C39.3912 90.93 39.6492 90.612 39.8292 90.192C40.0212 89.76 40.1172 89.226 40.1172 88.59C40.1172 87.63 39.9132 86.916 39.5052 86.448C39.0972 85.968 38.5572 85.728 37.8852 85.728C37.4412 85.728 37.0512 85.836 36.7152 86.052C36.3792 86.256 36.1152 86.574 35.9232 87.006C35.7432 87.426 35.6532 87.954 35.6532 88.59C35.6532 89.538 35.8572 90.258 36.2652 90.75C36.6732 91.23 37.2132 91.47 37.8852 91.47ZM47.6263 93.18C46.8583 93.18 46.1803 92.994 45.5923 92.622C45.0163 92.25 44.5663 91.722 44.2423 91.038C43.9183 90.342 43.7563 89.526 43.7563 88.59C43.7563 87.642 43.9183 86.832 44.2423 86.16C44.5663 85.476 45.0163 84.948 45.5923 84.576C46.1803 84.204 46.8583 84.018 47.6263 84.018C48.3583 84.018 48.9943 84.198 49.5343 84.558C50.0863 84.918 50.4583 85.392 50.6503 85.98H50.4523V81.3C50.4523 80.928 50.5483 80.646 50.7403 80.454C50.9323 80.262 51.2083 80.166 51.5683 80.166C51.9283 80.166 52.2043 80.262 52.3963 80.454C52.6003 80.646 52.7023 80.928 52.7023 81.3V91.992C52.7023 92.364 52.6063 92.652 52.4143 92.856C52.2223 93.048 51.9463 93.144 51.5863 93.144C51.2263 93.144 50.9503 93.048 50.7583 92.856C50.5663 92.652 50.4703 92.364 50.4703 91.992V90.588L50.6683 91.128C50.4883 91.752 50.1223 92.25 49.5703 92.622C49.0183 92.994 48.3703 93.18 47.6263 93.18ZM48.2563 91.47C48.7003 91.47 49.0903 91.362 49.4263 91.146C49.7623 90.93 50.0203 90.612 50.2003 90.192C50.3923 89.76 50.4883 89.226 50.4883 88.59C50.4883 87.63 50.2843 86.916 49.8763 86.448C49.4683 85.968 48.9283 85.728 48.2563 85.728C47.8123 85.728 47.4223 85.836 47.0863 86.052C46.7503 86.256 46.4863 86.574 46.2943 87.006C46.1143 87.426 46.0243 87.954 46.0243 88.59C46.0243 89.538 46.2283 90.258 46.6363 90.75C47.0443 91.23 47.5843 91.47 48.2563 91.47ZM58.2212 93.18C57.4892 93.18 56.8832 93.048 56.4032 92.784C55.9232 92.508 55.5632 92.1 55.3232 91.56C55.0952 91.02 54.9812 90.348 54.9812 89.544V85.188C54.9812 84.804 55.0772 84.522 55.2692 84.342C55.4612 84.15 55.7372 84.054 56.0972 84.054C56.4572 84.054 56.7332 84.15 56.9252 84.342C57.1292 84.522 57.2312 84.804 57.2312 85.188V89.58C57.2312 90.204 57.3572 90.666 57.6092 90.966C57.8612 91.266 58.2632 91.416 58.8152 91.416C59.4152 91.416 59.9072 91.212 60.2912 90.804C60.6752 90.384 60.8672 89.832 60.8672 89.148V85.188C60.8672 84.804 60.9632 84.522 61.1552 84.342C61.3472 84.15 61.6232 84.054 61.9832 84.054C62.3432 84.054 62.6192 84.15 62.8112 84.342C63.0152 84.522 63.1172 84.804 63.1172 85.188V91.992C63.1172 92.76 62.7512 93.144 62.0192 93.144C61.6712 93.144 61.4012 93.048 61.2092 92.856C61.0172 92.652 60.9212 92.364 60.9212 91.992V90.624L61.1732 91.164C60.9212 91.812 60.5372 92.31 60.0212 92.658C59.5172 93.006 58.9172 93.18 58.2212 93.18ZM69.5271 93.18C68.6031 93.18 67.7991 92.994 67.1151 92.622C66.4311 92.238 65.9031 91.698 65.5311 91.002C65.1591 90.306 64.9731 89.49 64.9731 88.554C64.9731 87.846 65.0751 87.216 65.2791 86.664C65.4951 86.1 65.8011 85.626 66.1971 85.242C66.5931 84.846 67.0731 84.546 67.6371 84.342C68.2011 84.126 68.8311 84.018 69.5271 84.018C69.9231 84.018 70.3491 84.072 70.8051 84.18C71.2731 84.288 71.7111 84.468 72.1191 84.72C72.3111 84.84 72.4371 84.984 72.4971 85.152C72.5571 85.32 72.5691 85.494 72.5331 85.674C72.4971 85.842 72.4191 85.992 72.2991 86.124C72.1911 86.244 72.0531 86.322 71.8851 86.358C71.7171 86.382 71.5311 86.34 71.3271 86.232C71.0631 86.076 70.7931 85.962 70.5171 85.89C70.2411 85.806 69.9771 85.764 69.7251 85.764C69.3291 85.764 68.9811 85.83 68.6811 85.962C68.3811 86.082 68.1231 86.262 67.9071 86.502C67.7031 86.73 67.5471 87.018 67.4391 87.366C67.3311 87.714 67.2771 88.116 67.2771 88.572C67.2771 89.46 67.4871 90.162 67.9071 90.678C68.3391 91.182 68.9451 91.434 69.7251 91.434C69.9771 91.434 70.2351 91.398 70.4991 91.326C70.7751 91.254 71.0511 91.14 71.3271 90.984C71.5311 90.876 71.7111 90.84 71.8671 90.876C72.0351 90.912 72.1731 90.996 72.2811 91.128C72.3891 91.248 72.4551 91.398 72.4791 91.578C72.5031 91.746 72.4791 91.914 72.4071 92.082C72.3471 92.25 72.2271 92.388 72.0471 92.496C71.6511 92.736 71.2311 92.91 70.7871 93.018C70.3431 93.126 69.9231 93.18 69.5271 93.18ZM78.0165 93.18C77.2365 93.18 76.5825 93.048 76.0545 92.784C75.5385 92.52 75.1545 92.136 74.9025 91.632C74.6505 91.116 74.5245 90.48 74.5245 89.724V85.89H73.5885C73.3005 85.89 73.0785 85.818 72.9225 85.674C72.7665 85.518 72.6885 85.308 72.6885 85.044C72.6885 84.768 72.7665 84.558 72.9225 84.414C73.0785 84.27 73.3005 84.198 73.5885 84.198H74.5245V82.56C74.5245 82.188 74.6205 81.906 74.8125 81.714C75.0165 81.522 75.2985 81.426 75.6585 81.426C76.0185 81.426 76.2945 81.522 76.4865 81.714C76.6785 81.906 76.7745 82.188 76.7745 82.56V84.198H78.6825C78.9705 84.198 79.1925 84.27 79.3485 84.414C79.5045 84.558 79.5825 84.768 79.5825 85.044C79.5825 85.308 79.5045 85.518 79.3485 85.674C79.1925 85.818 78.9705 85.89 78.6825 85.89H76.7745V89.598C76.7745 90.174 76.9005 90.606 77.1525 90.894C77.4045 91.182 77.8125 91.326 78.3765 91.326C78.5805 91.326 78.7605 91.308 78.9165 91.272C79.0725 91.236 79.2105 91.212 79.3305 91.2C79.4745 91.188 79.5945 91.236 79.6905 91.344C79.7865 91.44 79.8345 91.644 79.8345 91.956C79.8345 92.196 79.7925 92.412 79.7085 92.604C79.6365 92.784 79.4985 92.91 79.2945 92.982C79.1385 93.03 78.9345 93.072 78.6825 93.108C78.4305 93.156 78.2085 93.18 78.0165 93.18ZM84.8188 93.18C83.9068 93.18 83.1148 92.994 82.4428 92.622C81.7708 92.25 81.2488 91.722 80.8768 91.038C80.5048 90.342 80.3188 89.526 80.3188 88.59C80.3188 87.882 80.4208 87.252 80.6248 86.7C80.8408 86.136 81.1468 85.656 81.5428 85.26C81.9388 84.852 82.4128 84.546 82.9648 84.342C83.5168 84.126 84.1348 84.018 84.8188 84.018C85.7308 84.018 86.5228 84.204 87.1948 84.576C87.8668 84.948 88.3888 85.476 88.7608 86.16C89.1328 86.844 89.3188 87.654 89.3188 88.59C89.3188 89.298 89.2108 89.934 88.9948 90.498C88.7908 91.062 88.4908 91.548 88.0948 91.956C87.6988 92.352 87.2248 92.658 86.6728 92.874C86.1208 93.078 85.5028 93.18 84.8188 93.18ZM84.8188 91.47C85.2628 91.47 85.6528 91.362 85.9888 91.146C86.3248 90.93 86.5828 90.612 86.7628 90.192C86.9548 89.76 87.0508 89.226 87.0508 88.59C87.0508 87.63 86.8468 86.916 86.4388 86.448C86.0308 85.968 85.4908 85.728 84.8188 85.728C84.3748 85.728 83.9848 85.836 83.6488 86.052C83.3128 86.256 83.0488 86.574 82.8568 87.006C82.6768 87.426 82.5868 87.954 82.5868 88.59C82.5868 89.538 82.7908 90.258 83.1988 90.75C83.6068 91.23 84.1468 91.47 84.8188 91.47Z" fill="#191A19"/>
<circle cx="915" cy="75" r="75" fill="#BFEAF5"/>
<circle cx="705" cy="75" r="75" fill="#BFEAF5"/>
<circle cx="495" cy="75" r="75" fill="#BFEAF5"/>
<circle cx="285" cy="75" r="75" fill="#BFEAF5"/>
<path d="M186 87.6643L199.682 75.3343L186.004 63" stroke="#EEEEEE" stroke-width="4" stroke-linecap="round" stroke-linejoin="round"/>
<path d="M157 75L198 75.0065" stroke="#EEEEEE" stroke-width="4" stroke-linecap="round" stroke-linejoin="round"/>
<path d="M398 87.6643L411.682 75.3343L398.004 63" stroke="#EEEEEE" stroke-width="4" stroke-linecap="round" stroke-linejoin="round"/>
<path d="M369 75L410 75.0065" stroke="#EEEEEE" stroke-width="4" stroke-linecap="round" stroke-linejoin="round"/>
<path d="M608 87.6643L621.682 75.3343L608.004 63" stroke="#EEEEEE" stroke-width="4" stroke-linecap="round" stroke-linejoin="round"/>
<path d="M579 75L620 75.0065" stroke="#EEEEEE" stroke-width="4" stroke-linecap="round" stroke-linejoin="round"/>
<path d="M821 87.6643L834.682 75.3343L821.004 63" stroke="#EEEEEE" stroke-width="4" stroke-linecap="round" stroke-linejoin="round"/>
<path d="M792 75L833 75.0065" stroke="#EEEEEE" stroke-width="4" stroke-linecap="round" stroke-linejoin="round"/>
<path d="M232.538 80.144C232.166 80.144 231.878 80.042 231.674 79.838C231.482 79.622 231.386 79.328 231.386 78.956V68.354C231.386 67.97 231.482 67.676 231.674 67.472C231.878 67.268 232.166 67.166 232.538 67.166C232.91 67.166 233.192 67.268 233.384 67.472C233.588 67.676 233.69 67.97 233.69 68.354V78.956C233.69 79.328 233.594 79.622 233.402 79.838C233.21 80.042 232.922 80.144 232.538 80.144ZM237.366 80.144C237.006 80.144 236.73 80.048 236.538 79.856C236.346 79.652 236.25 79.364 236.25 78.992V72.188C236.25 71.816 236.346 71.534 236.538 71.342C236.73 71.15 237 71.054 237.348 71.054C237.696 71.054 237.966 71.15 238.158 71.342C238.35 71.534 238.446 71.816 238.446 72.188V73.412L238.248 72.962C238.512 72.326 238.92 71.846 239.472 71.522C240.036 71.186 240.672 71.018 241.38 71.018C242.088 71.018 242.67 71.15 243.126 71.414C243.582 71.678 243.924 72.08 244.152 72.62C244.38 73.148 244.494 73.82 244.494 74.636V78.992C244.494 79.364 244.398 79.652 244.206 79.856C244.014 80.048 243.738 80.144 243.378 80.144C243.018 80.144 242.736 80.048 242.532 79.856C242.34 79.652 242.244 79.364 242.244 78.992V74.744C242.244 74.06 242.112 73.562 241.848 73.25C241.596 72.938 241.2 72.782 240.66 72.782C240 72.782 239.472 72.992 239.076 73.412C238.692 73.82 238.5 74.366 238.5 75.05V78.992C238.5 79.76 238.122 80.144 237.366 80.144ZM250.255 80.144C249.955 80.144 249.691 80.066 249.463 79.91C249.247 79.754 249.067 79.514 248.923 79.19L246.061 72.548C245.953 72.284 245.911 72.038 245.935 71.81C245.971 71.582 246.079 71.402 246.259 71.27C246.451 71.126 246.709 71.054 247.033 71.054C247.309 71.054 247.531 71.12 247.699 71.252C247.867 71.372 248.017 71.606 248.149 71.954L250.579 78.02H250.039L252.541 71.936C252.673 71.6 252.823 71.372 252.991 71.252C253.171 71.12 253.411 71.054 253.711 71.054C253.975 71.054 254.185 71.126 254.341 71.27C254.497 71.402 254.593 71.582 254.629 71.81C254.665 72.026 254.623 72.266 254.503 72.53L251.587 79.19C251.455 79.514 251.275 79.754 251.047 79.91C250.831 80.066 250.567 80.144 250.255 80.144ZM260.346 80.18C259.35 80.18 258.492 79.994 257.772 79.622C257.052 79.25 256.494 78.722 256.098 78.038C255.714 77.354 255.522 76.544 255.522 75.608C255.522 74.696 255.708 73.898 256.08 73.214C256.464 72.53 256.986 71.996 257.646 71.612C258.318 71.216 259.08 71.018 259.932 71.018C260.556 71.018 261.114 71.12 261.606 71.324C262.11 71.528 262.536 71.822 262.884 72.206C263.244 72.59 263.514 73.058 263.694 73.61C263.886 74.15 263.982 74.762 263.982 75.446C263.982 75.662 263.904 75.83 263.748 75.95C263.604 76.058 263.394 76.112 263.118 76.112H257.34V74.816H262.398L262.11 75.086C262.11 74.534 262.026 74.072 261.858 73.7C261.702 73.328 261.468 73.046 261.156 72.854C260.856 72.65 260.478 72.548 260.022 72.548C259.518 72.548 259.086 72.668 258.726 72.908C258.378 73.136 258.108 73.466 257.916 73.898C257.736 74.318 257.646 74.822 257.646 75.41V75.536C257.646 76.52 257.874 77.258 258.33 77.75C258.798 78.23 259.482 78.47 260.382 78.47C260.694 78.47 261.042 78.434 261.426 78.362C261.822 78.278 262.194 78.14 262.542 77.948C262.794 77.804 263.016 77.744 263.208 77.768C263.4 77.78 263.55 77.846 263.658 77.966C263.778 78.086 263.85 78.236 263.874 78.416C263.898 78.584 263.862 78.758 263.766 78.938C263.682 79.118 263.532 79.274 263.316 79.406C262.896 79.67 262.41 79.868 261.858 80C261.318 80.12 260.814 80.18 260.346 80.18ZM268.986 80.18C268.47 80.18 267.924 80.126 267.348 80.018C266.772 79.91 266.256 79.724 265.8 79.46C265.608 79.34 265.47 79.202 265.386 79.046C265.314 78.878 265.284 78.716 265.296 78.56C265.32 78.392 265.38 78.248 265.476 78.128C265.584 78.008 265.716 77.93 265.872 77.894C266.04 77.858 266.22 77.888 266.412 77.984C266.892 78.212 267.342 78.374 267.762 78.47C268.182 78.554 268.596 78.596 269.004 78.596C269.58 78.596 270.006 78.5 270.282 78.308C270.57 78.104 270.714 77.84 270.714 77.516C270.714 77.24 270.618 77.03 270.426 76.886C270.246 76.73 269.97 76.616 269.598 76.544L267.798 76.202C267.054 76.058 266.484 75.788 266.088 75.392C265.704 74.984 265.512 74.462 265.512 73.826C265.512 73.25 265.668 72.752 265.98 72.332C266.304 71.912 266.748 71.588 267.312 71.36C267.876 71.132 268.524 71.018 269.256 71.018C269.784 71.018 270.276 71.078 270.732 71.198C271.2 71.306 271.65 71.48 272.082 71.72C272.262 71.816 272.382 71.942 272.442 72.098C272.514 72.254 272.532 72.416 272.496 72.584C272.46 72.74 272.388 72.884 272.28 73.016C272.172 73.136 272.034 73.214 271.866 73.25C271.71 73.274 271.53 73.238 271.326 73.142C270.954 72.95 270.594 72.812 270.246 72.728C269.91 72.644 269.586 72.602 269.274 72.602C268.686 72.602 268.248 72.704 267.96 72.908C267.684 73.112 267.546 73.382 267.546 73.718C267.546 73.97 267.63 74.18 267.798 74.348C267.966 74.516 268.224 74.63 268.572 74.69L270.372 75.032C271.152 75.176 271.74 75.44 272.136 75.824C272.544 76.208 272.748 76.724 272.748 77.372C272.748 78.248 272.406 78.938 271.722 79.442C271.038 79.934 270.126 80.18 268.986 80.18ZM278.497 80.18C277.717 80.18 277.063 80.048 276.535 79.784C276.019 79.52 275.635 79.136 275.383 78.632C275.131 78.116 275.005 77.48 275.005 76.724V72.89H274.069C273.781 72.89 273.559 72.818 273.403 72.674C273.247 72.518 273.169 72.308 273.169 72.044C273.169 71.768 273.247 71.558 273.403 71.414C273.559 71.27 273.781 71.198 274.069 71.198H275.005V69.56C275.005 69.188 275.101 68.906 275.293 68.714C275.497 68.522 275.779 68.426 276.139 68.426C276.499 68.426 276.775 68.522 276.967 68.714C277.159 68.906 277.255 69.188 277.255 69.56V71.198H279.163C279.451 71.198 279.673 71.27 279.829 71.414C279.985 71.558 280.063 71.768 280.063 72.044C280.063 72.308 279.985 72.518 279.829 72.674C279.673 72.818 279.451 72.89 279.163 72.89H277.255V76.598C277.255 77.174 277.381 77.606 277.633 77.894C277.885 78.182 278.293 78.326 278.857 78.326C279.061 78.326 279.241 78.308 279.397 78.272C279.553 78.236 279.691 78.212 279.811 78.2C279.955 78.188 280.075 78.236 280.171 78.344C280.267 78.44 280.315 78.644 280.315 78.956C280.315 79.196 280.273 79.412 280.189 79.604C280.117 79.784 279.979 79.91 279.775 79.982C279.619 80.03 279.415 80.072 279.163 80.108C278.911 80.156 278.689 80.18 278.497 80.18ZM282.718 80.126C282.358 80.126 282.082 80.018 281.89 79.802C281.698 79.586 281.602 79.286 281.602 78.902V72.296C281.602 71.9 281.698 71.6 281.89 71.396C282.082 71.18 282.358 71.072 282.718 71.072C283.078 71.072 283.354 71.18 283.546 71.396C283.75 71.6 283.852 71.9 283.852 72.296V78.902C283.852 79.286 283.756 79.586 283.564 79.802C283.372 80.018 283.09 80.126 282.718 80.126ZM282.718 69.398C282.298 69.398 281.968 69.296 281.728 69.092C281.5 68.876 281.386 68.582 281.386 68.21C281.386 67.826 281.5 67.532 281.728 67.328C281.968 67.124 282.298 67.022 282.718 67.022C283.15 67.022 283.48 67.124 283.708 67.328C283.936 67.532 284.05 67.826 284.05 68.21C284.05 68.582 283.936 68.876 283.708 69.092C283.48 69.296 283.15 69.398 282.718 69.398ZM290.294 83.42C289.646 83.42 289.016 83.36 288.404 83.24C287.804 83.12 287.258 82.934 286.766 82.682C286.538 82.562 286.382 82.418 286.298 82.25C286.226 82.082 286.202 81.908 286.226 81.728C286.262 81.56 286.334 81.41 286.442 81.278C286.562 81.146 286.706 81.056 286.874 81.008C287.042 80.96 287.216 80.984 287.396 81.08C287.924 81.344 288.422 81.512 288.89 81.584C289.37 81.668 289.778 81.71 290.114 81.71C290.918 81.71 291.518 81.512 291.914 81.116C292.322 80.732 292.526 80.156 292.526 79.388V77.768H292.688C292.508 78.38 292.13 78.872 291.554 79.244C290.99 79.604 290.348 79.784 289.628 79.784C288.836 79.784 288.146 79.604 287.558 79.244C286.97 78.872 286.514 78.356 286.19 77.696C285.866 77.036 285.704 76.268 285.704 75.392C285.704 74.732 285.794 74.138 285.974 73.61C286.166 73.07 286.43 72.608 286.766 72.224C287.114 71.84 287.528 71.546 288.008 71.342C288.5 71.126 289.04 71.018 289.628 71.018C290.372 71.018 291.02 71.204 291.572 71.576C292.136 71.936 292.502 72.416 292.67 73.016L292.49 73.466V72.188C292.49 71.816 292.586 71.534 292.778 71.342C292.982 71.15 293.258 71.054 293.606 71.054C293.966 71.054 294.242 71.15 294.434 71.342C294.626 71.534 294.722 71.816 294.722 72.188V79.118C294.722 80.546 294.344 81.62 293.588 82.34C292.832 83.06 291.734 83.42 290.294 83.42ZM290.24 78.074C290.708 78.074 291.11 77.966 291.446 77.75C291.782 77.534 292.04 77.228 292.22 76.832C292.412 76.424 292.508 75.944 292.508 75.392C292.508 74.564 292.304 73.916 291.896 73.448C291.488 72.968 290.936 72.728 290.24 72.728C289.772 72.728 289.37 72.836 289.034 73.052C288.698 73.268 288.434 73.574 288.242 73.97C288.062 74.366 287.972 74.84 287.972 75.392C287.972 76.22 288.176 76.874 288.584 77.354C288.992 77.834 289.544 78.074 290.24 78.074ZM299.951 80.18C299.315 80.18 298.745 80.06 298.241 79.82C297.749 79.568 297.359 79.232 297.071 78.812C296.795 78.392 296.657 77.918 296.657 77.39C296.657 76.742 296.825 76.232 297.161 75.86C297.497 75.476 298.043 75.2 298.799 75.032C299.555 74.864 300.569 74.78 301.841 74.78H302.741V76.076H301.859C301.115 76.076 300.521 76.112 300.077 76.184C299.633 76.256 299.315 76.382 299.123 76.562C298.943 76.73 298.853 76.97 298.853 77.282C298.853 77.678 298.991 78.002 299.267 78.254C299.543 78.506 299.927 78.632 300.419 78.632C300.815 78.632 301.163 78.542 301.463 78.362C301.775 78.17 302.021 77.912 302.201 77.588C302.381 77.264 302.471 76.892 302.471 76.472V74.402C302.471 73.802 302.339 73.37 302.075 73.106C301.811 72.842 301.367 72.71 300.743 72.71C300.395 72.71 300.017 72.752 299.609 72.836C299.213 72.92 298.793 73.064 298.349 73.268C298.121 73.376 297.917 73.406 297.737 73.358C297.569 73.31 297.437 73.214 297.341 73.07C297.245 72.914 297.197 72.746 297.197 72.566C297.197 72.386 297.245 72.212 297.341 72.044C297.437 71.864 297.599 71.732 297.827 71.648C298.379 71.42 298.907 71.258 299.411 71.162C299.927 71.066 300.395 71.018 300.815 71.018C301.679 71.018 302.387 71.15 302.939 71.414C303.503 71.678 303.923 72.08 304.199 72.62C304.475 73.148 304.613 73.832 304.613 74.672V78.992C304.613 79.364 304.523 79.652 304.343 79.856C304.163 80.048 303.905 80.144 303.569 80.144C303.233 80.144 302.969 80.048 302.777 79.856C302.597 79.652 302.507 79.364 302.507 78.992V78.128H302.651C302.567 78.548 302.399 78.914 302.147 79.226C301.907 79.526 301.601 79.76 301.229 79.928C300.857 80.096 300.431 80.18 299.951 80.18ZM310.965 80.18C310.041 80.18 309.237 79.994 308.553 79.622C307.869 79.238 307.341 78.698 306.969 78.002C306.597 77.306 306.411 76.49 306.411 75.554C306.411 74.846 306.513 74.216 306.717 73.664C306.933 73.1 307.239 72.626 307.635 72.242C308.031 71.846 308.511 71.546 309.075 71.342C309.639 71.126 310.269 71.018 310.965 71.018C311.361 71.018 311.787 71.072 312.243 71.18C312.711 71.288 313.149 71.468 313.557 71.72C313.749 71.84 313.875 71.984 313.935 72.152C313.995 72.32 314.007 72.494 313.971 72.674C313.935 72.842 313.857 72.992 313.737 73.124C313.629 73.244 313.491 73.322 313.323 73.358C313.155 73.382 312.969 73.34 312.765 73.232C312.501 73.076 312.231 72.962 311.955 72.89C311.679 72.806 311.415 72.764 311.163 72.764C310.767 72.764 310.419 72.83 310.119 72.962C309.819 73.082 309.561 73.262 309.345 73.502C309.141 73.73 308.985 74.018 308.877 74.366C308.769 74.714 308.715 75.116 308.715 75.572C308.715 76.46 308.925 77.162 309.345 77.678C309.777 78.182 310.383 78.434 311.163 78.434C311.415 78.434 311.673 78.398 311.937 78.326C312.213 78.254 312.489 78.14 312.765 77.984C312.969 77.876 313.149 77.84 313.305 77.876C313.473 77.912 313.611 77.996 313.719 78.128C313.827 78.248 313.893 78.398 313.917 78.578C313.941 78.746 313.917 78.914 313.845 79.082C313.785 79.25 313.665 79.388 313.485 79.496C313.089 79.736 312.669 79.91 312.225 80.018C311.781 80.126 311.361 80.18 310.965 80.18ZM316.503 80.126C316.143 80.126 315.867 80.018 315.675 79.802C315.483 79.586 315.387 79.286 315.387 78.902V72.296C315.387 71.9 315.483 71.6 315.675 71.396C315.867 71.18 316.143 71.072 316.503 71.072C316.863 71.072 317.139 71.18 317.331 71.396C317.535 71.6 317.637 71.9 317.637 72.296V78.902C317.637 79.286 317.541 79.586 317.349 79.802C317.157 80.018 316.875 80.126 316.503 80.126ZM316.503 69.398C316.083 69.398 315.753 69.296 315.513 69.092C315.285 68.876 315.171 68.582 315.171 68.21C315.171 67.826 315.285 67.532 315.513 67.328C315.753 67.124 316.083 67.022 316.503 67.022C316.935 67.022 317.265 67.124 317.493 67.328C317.721 67.532 317.835 67.826 317.835 68.21C317.835 68.582 317.721 68.876 317.493 69.092C317.265 69.296 316.935 69.398 316.503 69.398ZM323.989 80.18C323.077 80.18 322.285 79.994 321.613 79.622C320.941 79.25 320.419 78.722 320.047 78.038C319.675 77.342 319.489 76.526 319.489 75.59C319.489 74.882 319.591 74.252 319.795 73.7C320.011 73.136 320.317 72.656 320.713 72.26C321.109 71.852 321.583 71.546 322.135 71.342C322.687 71.126 323.305 71.018 323.989 71.018C324.901 71.018 325.693 71.204 326.365 71.576C327.037 71.948 327.559 72.476 327.931 73.16C328.303 73.844 328.489 74.654 328.489 75.59C328.489 76.298 328.381 76.934 328.165 77.498C327.961 78.062 327.661 78.548 327.265 78.956C326.869 79.352 326.395 79.658 325.843 79.874C325.291 80.078 324.673 80.18 323.989 80.18ZM323.989 78.47C324.433 78.47 324.823 78.362 325.159 78.146C325.495 77.93 325.753 77.612 325.933 77.192C326.125 76.76 326.221 76.226 326.221 75.59C326.221 74.63 326.017 73.916 325.609 73.448C325.201 72.968 324.661 72.728 323.989 72.728C323.545 72.728 323.155 72.836 322.819 73.052C322.483 73.256 322.219 73.574 322.027 74.006C321.847 74.426 321.757 74.954 321.757 75.59C321.757 76.538 321.961 77.258 322.369 77.75C322.777 78.23 323.317 78.47 323.989 78.47ZM324.835 69.92C324.715 70.088 324.571 70.184 324.403 70.208C324.235 70.232 324.073 70.202 323.917 70.118C323.761 70.034 323.647 69.914 323.575 69.758C323.515 69.602 323.533 69.428 323.629 69.236L324.997 66.554C325.105 66.326 325.249 66.182 325.429 66.122C325.609 66.05 325.795 66.038 325.987 66.086C326.179 66.134 326.341 66.224 326.473 66.356C326.617 66.488 326.701 66.65 326.725 66.842C326.761 67.022 326.713 67.208 326.581 67.4L324.835 69.92ZM331.462 80.144C331.102 80.144 330.826 80.048 330.634 79.856C330.442 79.652 330.346 79.364 330.346 78.992V72.188C330.346 71.816 330.442 71.534 330.634 71.342C330.826 71.15 331.096 71.054 331.444 71.054C331.792 71.054 332.062 71.15 332.254 71.342C332.446 71.534 332.542 71.816 332.542 72.188V73.412L332.344 72.962C332.608 72.326 333.016 71.846 333.568 71.522C334.132 71.186 334.768 71.018 335.476 71.018C336.184 71.018 336.766 71.15 337.222 71.414C337.678 71.678 338.02 72.08 338.248 72.62C338.476 73.148 338.59 73.82 338.59 74.636V78.992C338.59 79.364 338.494 79.652 338.302 79.856C338.11 80.048 337.834 80.144 337.474 80.144C337.114 80.144 336.832 80.048 336.628 79.856C336.436 79.652 336.34 79.364 336.34 78.992V74.744C336.34 74.06 336.208 73.562 335.944 73.25C335.692 72.938 335.296 72.782 334.756 72.782C334.096 72.782 333.568 72.992 333.172 73.412C332.788 73.82 332.596 74.366 332.596 75.05V78.992C332.596 79.76 332.218 80.144 331.462 80.144Z" fill="#191A19"/>
<path d="M877.426 80.144C877.102 80.144 876.832 80.072 876.616 79.928C876.412 79.772 876.244 79.544 876.112 79.244L871.414 68.696C871.282 68.396 871.246 68.132 871.306 67.904C871.366 67.676 871.492 67.496 871.684 67.364C871.876 67.232 872.104 67.166 872.368 67.166C872.716 67.166 872.974 67.244 873.142 67.4C873.322 67.544 873.472 67.766 873.592 68.066L877.858 77.948H877.084L881.332 68.048C881.464 67.76 881.62 67.544 881.8 67.4C881.98 67.244 882.232 67.166 882.556 67.166C882.82 67.166 883.036 67.232 883.204 67.364C883.384 67.496 883.498 67.676 883.546 67.904C883.594 68.132 883.552 68.396 883.42 68.696L878.722 79.244C878.59 79.544 878.422 79.772 878.218 79.928C878.026 80.072 877.762 80.144 877.426 80.144ZM886.828 80.18C886.192 80.18 885.622 80.06 885.118 79.82C884.626 79.568 884.236 79.232 883.948 78.812C883.672 78.392 883.534 77.918 883.534 77.39C883.534 76.742 883.702 76.232 884.038 75.86C884.374 75.476 884.92 75.2 885.676 75.032C886.432 74.864 887.446 74.78 888.718 74.78H889.618V76.076H888.736C887.992 76.076 887.398 76.112 886.954 76.184C886.51 76.256 886.192 76.382 886 76.562C885.82 76.73 885.73 76.97 885.73 77.282C885.73 77.678 885.868 78.002 886.144 78.254C886.42 78.506 886.804 78.632 887.296 78.632C887.692 78.632 888.04 78.542 888.34 78.362C888.652 78.17 888.898 77.912 889.078 77.588C889.258 77.264 889.348 76.892 889.348 76.472V74.402C889.348 73.802 889.216 73.37 888.952 73.106C888.688 72.842 888.244 72.71 887.62 72.71C887.272 72.71 886.894 72.752 886.486 72.836C886.09 72.92 885.67 73.064 885.226 73.268C884.998 73.376 884.794 73.406 884.614 73.358C884.446 73.31 884.314 73.214 884.218 73.07C884.122 72.914 884.074 72.746 884.074 72.566C884.074 72.386 884.122 72.212 884.218 72.044C884.314 71.864 884.476 71.732 884.704 71.648C885.256 71.42 885.784 71.258 886.288 71.162C886.804 71.066 887.272 71.018 887.692 71.018C888.556 71.018 889.264 71.15 889.816 71.414C890.38 71.678 890.8 72.08 891.076 72.62C891.352 73.148 891.49 73.832 891.49 74.672V78.992C891.49 79.364 891.4 79.652 891.22 79.856C891.04 80.048 890.782 80.144 890.446 80.144C890.11 80.144 889.846 80.048 889.654 79.856C889.474 79.652 889.384 79.364 889.384 78.992V78.128H889.528C889.444 78.548 889.276 78.914 889.024 79.226C888.784 79.526 888.478 79.76 888.106 79.928C887.734 80.096 887.308 80.18 886.828 80.18ZM896.78 80.18C895.784 80.18 895.034 79.898 894.53 79.334C894.026 78.758 893.774 77.918 893.774 76.814V68.3C893.774 67.928 893.87 67.646 894.062 67.454C894.254 67.262 894.53 67.166 894.89 67.166C895.25 67.166 895.526 67.262 895.718 67.454C895.922 67.646 896.024 67.928 896.024 68.3V76.706C896.024 77.258 896.138 77.666 896.366 77.93C896.606 78.194 896.942 78.326 897.374 78.326C897.47 78.326 897.56 78.326 897.644 78.326C897.728 78.314 897.812 78.302 897.896 78.29C898.064 78.266 898.178 78.314 898.238 78.434C898.298 78.542 898.328 78.77 898.328 79.118C898.328 79.418 898.268 79.652 898.148 79.82C898.028 79.988 897.83 80.09 897.554 80.126C897.434 80.138 897.308 80.15 897.176 80.162C897.044 80.174 896.912 80.18 896.78 80.18ZM900.638 80.126C900.278 80.126 900.002 80.018 899.81 79.802C899.618 79.586 899.522 79.286 899.522 78.902V72.296C899.522 71.9 899.618 71.6 899.81 71.396C900.002 71.18 900.278 71.072 900.638 71.072C900.998 71.072 901.274 71.18 901.466 71.396C901.67 71.6 901.772 71.9 901.772 72.296V78.902C901.772 79.286 901.676 79.586 901.484 79.802C901.292 80.018 901.01 80.126 900.638 80.126ZM900.638 69.398C900.218 69.398 899.888 69.296 899.648 69.092C899.42 68.876 899.306 68.582 899.306 68.21C899.306 67.826 899.42 67.532 899.648 67.328C899.888 67.124 900.218 67.022 900.638 67.022C901.07 67.022 901.4 67.124 901.628 67.328C901.856 67.532 901.97 67.826 901.97 68.21C901.97 68.582 901.856 68.876 901.628 69.092C901.4 69.296 901.07 69.398 900.638 69.398ZM907.493 80.18C906.725 80.18 906.047 79.994 905.459 79.622C904.883 79.25 904.433 78.722 904.109 78.038C903.785 77.342 903.623 76.526 903.623 75.59C903.623 74.642 903.785 73.832 904.109 73.16C904.433 72.476 904.883 71.948 905.459 71.576C906.047 71.204 906.725 71.018 907.493 71.018C908.225 71.018 908.861 71.198 909.401 71.558C909.953 71.918 910.325 72.392 910.517 72.98H910.319V68.3C910.319 67.928 910.415 67.646 910.607 67.454C910.799 67.262 911.075 67.166 911.435 67.166C911.795 67.166 912.071 67.262 912.263 67.454C912.467 67.646 912.569 67.928 912.569 68.3V78.992C912.569 79.364 912.473 79.652 912.281 79.856C912.089 80.048 911.813 80.144 911.453 80.144C911.093 80.144 910.817 80.048 910.625 79.856C910.433 79.652 910.337 79.364 910.337 78.992V77.588L910.535 78.128C910.355 78.752 909.989 79.25 909.437 79.622C908.885 79.994 908.237 80.18 907.493 80.18ZM908.123 78.47C908.567 78.47 908.957 78.362 909.293 78.146C909.629 77.93 909.887 77.612 910.067 77.192C910.259 76.76 910.355 76.226 910.355 75.59C910.355 74.63 910.151 73.916 909.743 73.448C909.335 72.968 908.795 72.728 908.123 72.728C907.679 72.728 907.289 72.836 906.953 73.052C906.617 73.256 906.353 73.574 906.161 74.006C905.981 74.426 905.891 74.954 905.891 75.59C905.891 76.538 906.095 77.258 906.503 77.75C906.911 78.23 907.451 78.47 908.123 78.47ZM917.8 80.18C917.164 80.18 916.594 80.06 916.09 79.82C915.598 79.568 915.208 79.232 914.92 78.812C914.644 78.392 914.506 77.918 914.506 77.39C914.506 76.742 914.674 76.232 915.01 75.86C915.346 75.476 915.892 75.2 916.648 75.032C917.404 74.864 918.418 74.78 919.69 74.78H920.59V76.076H919.708C918.964 76.076 918.37 76.112 917.926 76.184C917.482 76.256 917.164 76.382 916.972 76.562C916.792 76.73 916.702 76.97 916.702 77.282C916.702 77.678 916.84 78.002 917.116 78.254C917.392 78.506 917.776 78.632 918.268 78.632C918.664 78.632 919.012 78.542 919.312 78.362C919.624 78.17 919.87 77.912 920.05 77.588C920.23 77.264 920.32 76.892 920.32 76.472V74.402C920.32 73.802 920.188 73.37 919.924 73.106C919.66 72.842 919.216 72.71 918.592 72.71C918.244 72.71 917.866 72.752 917.458 72.836C917.062 72.92 916.642 73.064 916.198 73.268C915.97 73.376 915.766 73.406 915.586 73.358C915.418 73.31 915.286 73.214 915.19 73.07C915.094 72.914 915.046 72.746 915.046 72.566C915.046 72.386 915.094 72.212 915.19 72.044C915.286 71.864 915.448 71.732 915.676 71.648C916.228 71.42 916.756 71.258 917.26 71.162C917.776 71.066 918.244 71.018 918.664 71.018C919.528 71.018 920.236 71.15 920.788 71.414C921.352 71.678 921.772 72.08 922.048 72.62C922.324 73.148 922.462 73.832 922.462 74.672V78.992C922.462 79.364 922.372 79.652 922.192 79.856C922.012 80.048 921.754 80.144 921.418 80.144C921.082 80.144 920.818 80.048 920.626 79.856C920.446 79.652 920.356 79.364 920.356 78.992V78.128H920.5C920.416 78.548 920.248 78.914 919.996 79.226C919.756 79.526 919.45 79.76 919.078 79.928C918.706 80.096 918.28 80.18 917.8 80.18ZM928.814 80.18C927.89 80.18 927.086 79.994 926.402 79.622C925.718 79.238 925.19 78.698 924.818 78.002C924.446 77.306 924.26 76.49 924.26 75.554C924.26 74.846 924.362 74.216 924.566 73.664C924.782 73.1 925.088 72.626 925.484 72.242C925.88 71.846 926.36 71.546 926.924 71.342C927.488 71.126 928.118 71.018 928.814 71.018C929.21 71.018 929.636 71.072 930.092 71.18C930.56 71.288 930.998 71.468 931.406 71.72C931.598 71.84 931.724 71.984 931.784 72.152C931.844 72.32 931.856 72.494 931.82 72.674C931.784 72.842 931.706 72.992 931.586 73.124C931.478 73.244 931.34 73.322 931.172 73.358C931.004 73.382 930.818 73.34 930.614 73.232C930.35 73.076 930.08 72.962 929.804 72.89C929.528 72.806 929.264 72.764 929.012 72.764C928.616 72.764 928.268 72.83 927.968 72.962C927.668 73.082 927.41 73.262 927.194 73.502C926.99 73.73 926.834 74.018 926.726 74.366C926.618 74.714 926.564 75.116 926.564 75.572C926.564 76.46 926.774 77.162 927.194 77.678C927.626 78.182 928.232 78.434 929.012 78.434C929.264 78.434 929.522 78.398 929.786 78.326C930.062 78.254 930.338 78.14 930.614 77.984C930.818 77.876 930.998 77.84 931.154 77.876C931.322 77.912 931.46 77.996 931.568 78.128C931.676 78.248 931.742 78.398 931.766 78.578C931.79 78.746 931.766 78.914 931.694 79.082C931.634 79.25 931.514 79.388 931.334 79.496C930.938 79.736 930.518 79.91 930.074 80.018C929.63 80.126 929.21 80.18 928.814 80.18ZM934.352 80.126C933.992 80.126 933.716 80.018 933.524 79.802C933.332 79.586 933.236 79.286 933.236 78.902V72.296C933.236 71.9 933.332 71.6 933.524 71.396C933.716 71.18 933.992 71.072 934.352 71.072C934.712 71.072 934.988 71.18 935.18 71.396C935.384 71.6 935.486 71.9 935.486 72.296V78.902C935.486 79.286 935.39 79.586 935.198 79.802C935.006 80.018 934.724 80.126 934.352 80.126ZM934.352 69.398C933.932 69.398 933.602 69.296 933.362 69.092C933.134 68.876 933.02 68.582 933.02 68.21C933.02 67.826 933.134 67.532 933.362 67.328C933.602 67.124 933.932 67.022 934.352 67.022C934.784 67.022 935.114 67.124 935.342 67.328C935.57 67.532 935.684 67.826 935.684 68.21C935.684 68.582 935.57 68.876 935.342 69.092C935.114 69.296 934.784 69.398 934.352 69.398ZM941.838 80.18C940.926 80.18 940.134 79.994 939.462 79.622C938.79 79.25 938.268 78.722 937.896 78.038C937.524 77.342 937.338 76.526 937.338 75.59C937.338 74.882 937.44 74.252 937.644 73.7C937.86 73.136 938.166 72.656 938.562 72.26C938.958 71.852 939.432 71.546 939.984 71.342C940.536 71.126 941.154 71.018 941.838 71.018C942.75 71.018 943.542 71.204 944.214 71.576C944.886 71.948 945.408 72.476 945.78 73.16C946.152 73.844 946.338 74.654 946.338 75.59C946.338 76.298 946.23 76.934 946.014 77.498C945.81 78.062 945.51 78.548 945.114 78.956C944.718 79.352 944.244 79.658 943.692 79.874C943.14 80.078 942.522 80.18 941.838 80.18ZM941.838 78.47C942.282 78.47 942.672 78.362 943.008 78.146C943.344 77.93 943.602 77.612 943.782 77.192C943.974 76.76 944.07 76.226 944.07 75.59C944.07 74.63 943.866 73.916 943.458 73.448C943.05 72.968 942.51 72.728 941.838 72.728C941.394 72.728 941.004 72.836 940.668 73.052C940.332 73.256 940.068 73.574 939.876 74.006C939.696 74.426 939.606 74.954 939.606 75.59C939.606 76.538 939.81 77.258 940.218 77.75C940.626 78.23 941.166 78.47 941.838 78.47ZM942.684 69.92C942.564 70.088 942.42 70.184 942.252 70.208C942.084 70.232 941.922 70.202 941.766 70.118C941.61 70.034 941.496 69.914 941.424 69.758C941.364 69.602 941.382 69.428 941.478 69.236L942.846 66.554C942.954 66.326 943.098 66.182 943.278 66.122C943.458 66.05 943.644 66.038 943.836 66.086C944.028 66.134 944.19 66.224 944.322 66.356C944.466 66.488 944.55 66.65 944.574 66.842C944.61 67.022 944.562 67.208 944.43 67.4L942.684 69.92ZM949.311 80.144C948.951 80.144 948.675 80.048 948.483 79.856C948.291 79.652 948.195 79.364 948.195 78.992V72.188C948.195 71.816 948.291 71.534 948.483 71.342C948.675 71.15 948.945 71.054 949.293 71.054C949.641 71.054 949.911 71.15 950.103 71.342C950.295 71.534 950.391 71.816 950.391 72.188V73.412L950.193 72.962C950.457 72.326 950.865 71.846 951.417 71.522C951.981 71.186 952.617 71.018 953.325 71.018C954.033 71.018 954.615 71.15 955.071 71.414C955.527 71.678 955.869 72.08 956.097 72.62C956.325 73.148 956.439 73.82 956.439 74.636V78.992C956.439 79.364 956.343 79.652 956.151 79.856C955.959 80.048 955.683 80.144 955.323 80.144C954.963 80.144 954.681 80.048 954.477 79.856C954.285 79.652 954.189 79.364 954.189 78.992V74.744C954.189 74.06 954.057 73.562 953.793 73.25C953.541 72.938 953.145 72.782 952.605 72.782C951.945 72.782 951.417 72.992 951.021 73.412C950.637 73.82 950.445 74.366 950.445 75.05V78.992C950.445 79.76 950.067 80.144 949.311 80.144Z" fill="#191A19"/>
<path d="M678.61 80C678.214 80 677.908 79.898 677.692 79.694C677.488 79.478 677.386 79.172 677.386 78.776V68.534C677.386 68.138 677.488 67.838 677.692 67.634C677.908 67.418 678.214 67.31 678.61 67.31H682.102C684.226 67.31 685.864 67.856 687.016 68.948C688.18 70.04 688.762 71.606 688.762 73.646C688.762 74.666 688.612 75.572 688.312 76.364C688.024 77.144 687.592 77.804 687.016 78.344C686.452 78.884 685.756 79.298 684.928 79.586C684.112 79.862 683.17 80 682.102 80H678.61ZM679.69 78.092H681.958C682.702 78.092 683.344 78.002 683.884 77.822C684.436 77.63 684.892 77.354 685.252 76.994C685.624 76.622 685.9 76.16 686.08 75.608C686.26 75.044 686.35 74.39 686.35 73.646C686.35 72.158 685.984 71.048 685.252 70.316C684.52 69.584 683.422 69.218 681.958 69.218H679.69V78.092ZM691.997 80.126C691.637 80.126 691.361 80.018 691.169 79.802C690.977 79.586 690.881 79.286 690.881 78.902V72.296C690.881 71.9 690.977 71.6 691.169 71.396C691.361 71.18 691.637 71.072 691.997 71.072C692.357 71.072 692.633 71.18 692.825 71.396C693.029 71.6 693.131 71.9 693.131 72.296V78.902C693.131 79.286 693.035 79.586 692.843 79.802C692.651 80.018 692.369 80.126 691.997 80.126ZM691.997 69.398C691.577 69.398 691.247 69.296 691.007 69.092C690.779 68.876 690.665 68.582 690.665 68.21C690.665 67.826 690.779 67.532 691.007 67.328C691.247 67.124 691.577 67.022 691.997 67.022C692.429 67.022 692.759 67.124 692.987 67.328C693.215 67.532 693.329 67.826 693.329 68.21C693.329 68.582 693.215 68.876 692.987 69.092C692.759 69.296 692.429 69.398 691.997 69.398ZM698.691 80.18C698.175 80.18 697.629 80.126 697.053 80.018C696.477 79.91 695.961 79.724 695.505 79.46C695.313 79.34 695.175 79.202 695.091 79.046C695.019 78.878 694.989 78.716 695.001 78.56C695.025 78.392 695.085 78.248 695.181 78.128C695.289 78.008 695.421 77.93 695.577 77.894C695.745 77.858 695.925 77.888 696.117 77.984C696.597 78.212 697.047 78.374 697.467 78.47C697.887 78.554 698.301 78.596 698.709 78.596C699.285 78.596 699.711 78.5 699.987 78.308C700.275 78.104 700.419 77.84 700.419 77.516C700.419 77.24 700.323 77.03 700.131 76.886C699.951 76.73 699.675 76.616 699.303 76.544L697.503 76.202C696.759 76.058 696.189 75.788 695.793 75.392C695.409 74.984 695.217 74.462 695.217 73.826C695.217 73.25 695.373 72.752 695.685 72.332C696.009 71.912 696.453 71.588 697.017 71.36C697.581 71.132 698.229 71.018 698.961 71.018C699.489 71.018 699.981 71.078 700.437 71.198C700.905 71.306 701.355 71.48 701.787 71.72C701.967 71.816 702.087 71.942 702.147 72.098C702.219 72.254 702.237 72.416 702.201 72.584C702.165 72.74 702.093 72.884 701.985 73.016C701.877 73.136 701.739 73.214 701.571 73.25C701.415 73.274 701.235 73.238 701.031 73.142C700.659 72.95 700.299 72.812 699.951 72.728C699.615 72.644 699.291 72.602 698.979 72.602C698.391 72.602 697.953 72.704 697.665 72.908C697.389 73.112 697.251 73.382 697.251 73.718C697.251 73.97 697.335 74.18 697.503 74.348C697.671 74.516 697.929 74.63 698.277 74.69L700.077 75.032C700.857 75.176 701.445 75.44 701.841 75.824C702.249 76.208 702.453 76.724 702.453 77.372C702.453 78.248 702.111 78.938 701.427 79.442C700.743 79.934 699.831 80.18 698.691 80.18ZM708.596 80.18C707.6 80.18 706.742 79.994 706.022 79.622C705.302 79.25 704.744 78.722 704.348 78.038C703.964 77.354 703.772 76.544 703.772 75.608C703.772 74.696 703.958 73.898 704.33 73.214C704.714 72.53 705.236 71.996 705.896 71.612C706.568 71.216 707.33 71.018 708.182 71.018C708.806 71.018 709.364 71.12 709.856 71.324C710.36 71.528 710.786 71.822 711.134 72.206C711.494 72.59 711.764 73.058 711.944 73.61C712.136 74.15 712.232 74.762 712.232 75.446C712.232 75.662 712.154 75.83 711.998 75.95C711.854 76.058 711.644 76.112 711.368 76.112H705.59V74.816H710.648L710.36 75.086C710.36 74.534 710.276 74.072 710.108 73.7C709.952 73.328 709.718 73.046 709.406 72.854C709.106 72.65 708.728 72.548 708.272 72.548C707.768 72.548 707.336 72.668 706.976 72.908C706.628 73.136 706.358 73.466 706.166 73.898C705.986 74.318 705.896 74.822 705.896 75.41V75.536C705.896 76.52 706.124 77.258 706.58 77.75C707.048 78.23 707.732 78.47 708.632 78.47C708.944 78.47 709.292 78.434 709.676 78.362C710.072 78.278 710.444 78.14 710.792 77.948C711.044 77.804 711.266 77.744 711.458 77.768C711.65 77.78 711.8 77.846 711.908 77.966C712.028 78.086 712.1 78.236 712.124 78.416C712.148 78.584 712.112 78.758 712.016 78.938C711.932 79.118 711.782 79.274 711.566 79.406C711.146 79.67 710.66 79.868 710.108 80C709.568 80.12 709.064 80.18 708.596 80.18ZM715.13 80.144C714.77 80.144 714.494 80.048 714.302 79.856C714.11 79.652 714.014 79.364 714.014 78.992V72.188C714.014 71.816 714.11 71.534 714.302 71.342C714.494 71.15 714.764 71.054 715.112 71.054C715.46 71.054 715.73 71.15 715.922 71.342C716.114 71.534 716.21 71.816 716.21 72.188V73.412L716.012 72.962C716.276 72.326 716.684 71.846 717.236 71.522C717.8 71.186 718.436 71.018 719.144 71.018C719.852 71.018 720.434 71.15 720.89 71.414C721.346 71.678 721.688 72.08 721.916 72.62C722.144 73.148 722.258 73.82 722.258 74.636V78.992C722.258 79.364 722.162 79.652 721.97 79.856C721.778 80.048 721.502 80.144 721.142 80.144C720.782 80.144 720.5 80.048 720.296 79.856C720.104 79.652 720.008 79.364 720.008 78.992V74.744C720.008 74.06 719.876 73.562 719.612 73.25C719.36 72.938 718.964 72.782 718.424 72.782C717.764 72.782 717.236 72.992 716.84 73.412C716.456 73.82 716.264 74.366 716.264 75.05V78.992C716.264 79.76 715.886 80.144 715.13 80.144ZM715.202 69.542C715.022 69.53 714.884 69.47 714.788 69.362C714.692 69.254 714.668 69.086 714.716 68.858C714.764 68.606 714.836 68.36 714.932 68.12C715.04 67.868 715.178 67.64 715.346 67.436C715.514 67.232 715.718 67.07 715.958 66.95C716.198 66.818 716.48 66.752 716.804 66.752C717.104 66.752 717.368 66.812 717.596 66.932C717.824 67.052 718.034 67.19 718.226 67.346C718.418 67.502 718.61 67.64 718.802 67.76C718.994 67.88 719.204 67.94 719.432 67.94C719.684 67.94 719.9 67.856 720.08 67.688C720.272 67.508 720.392 67.286 720.44 67.022C720.464 66.89 720.524 66.788 720.62 66.716C720.728 66.644 720.878 66.614 721.07 66.626C721.25 66.638 721.388 66.698 721.484 66.806C721.58 66.914 721.604 67.082 721.556 67.31C721.496 67.634 721.382 67.958 721.214 68.282C721.046 68.606 720.818 68.876 720.53 69.092C720.254 69.308 719.9 69.416 719.468 69.416C719.168 69.416 718.904 69.356 718.676 69.236C718.448 69.116 718.232 68.978 718.028 68.822C717.836 68.666 717.644 68.528 717.452 68.408C717.26 68.288 717.056 68.228 716.84 68.228C716.588 68.228 716.372 68.312 716.192 68.48C716.012 68.648 715.892 68.87 715.832 69.146C715.808 69.278 715.742 69.38 715.634 69.452C715.538 69.524 715.394 69.554 715.202 69.542ZM728.557 80.18C727.645 80.18 726.853 79.994 726.181 79.622C725.509 79.25 724.987 78.722 724.615 78.038C724.243 77.342 724.057 76.526 724.057 75.59C724.057 74.882 724.159 74.252 724.363 73.7C724.579 73.136 724.885 72.656 725.281 72.26C725.677 71.852 726.151 71.546 726.703 71.342C727.255 71.126 727.873 71.018 728.557 71.018C729.469 71.018 730.261 71.204 730.933 71.576C731.605 71.948 732.127 72.476 732.499 73.16C732.871 73.844 733.057 74.654 733.057 75.59C733.057 76.298 732.949 76.934 732.733 77.498C732.529 78.062 732.229 78.548 731.833 78.956C731.437 79.352 730.963 79.658 730.411 79.874C729.859 80.078 729.241 80.18 728.557 80.18ZM728.557 78.47C729.001 78.47 729.391 78.362 729.727 78.146C730.063 77.93 730.321 77.612 730.501 77.192C730.693 76.76 730.789 76.226 730.789 75.59C730.789 74.63 730.585 73.916 730.177 73.448C729.769 72.968 729.229 72.728 728.557 72.728C728.113 72.728 727.723 72.836 727.387 73.052C727.051 73.256 726.787 73.574 726.595 74.006C726.415 74.426 726.325 74.954 726.325 75.59C726.325 76.538 726.529 77.258 726.937 77.75C727.345 78.23 727.885 78.47 728.557 78.47Z" fill="#191A19"/>
<path d="M462.512 80.144C462.224 80.144 461.99 80.078 461.81 79.946C461.642 79.814 461.54 79.64 461.504 79.424C461.468 79.196 461.51 78.944 461.63 78.668L466.382 68.138C466.538 67.79 466.724 67.544 466.94 67.4C467.168 67.244 467.426 67.166 467.714 67.166C467.99 67.166 468.236 67.244 468.452 67.4C468.68 67.544 468.872 67.79 469.028 68.138L473.798 78.668C473.93 78.944 473.978 79.196 473.942 79.424C473.906 79.652 473.804 79.832 473.636 79.964C473.468 80.084 473.246 80.144 472.97 80.144C472.634 80.144 472.37 80.066 472.178 79.91C471.998 79.742 471.836 79.49 471.692 79.154L470.522 76.436L471.494 77.066H463.898L464.87 76.436L463.718 79.154C463.562 79.502 463.4 79.754 463.232 79.91C463.064 80.066 462.824 80.144 462.512 80.144ZM467.678 69.812L465.158 75.806L464.69 75.23H470.702L470.252 75.806L467.714 69.812H467.678ZM476.681 80.144C476.321 80.144 476.045 80.048 475.853 79.856C475.661 79.652 475.565 79.364 475.565 78.992V72.188C475.565 71.816 475.661 71.534 475.853 71.342C476.045 71.15 476.315 71.054 476.663 71.054C477.011 71.054 477.281 71.15 477.473 71.342C477.665 71.534 477.761 71.816 477.761 72.188V73.412L477.563 72.962C477.827 72.326 478.235 71.846 478.787 71.522C479.351 71.186 479.987 71.018 480.695 71.018C481.403 71.018 481.985 71.15 482.441 71.414C482.897 71.678 483.239 72.08 483.467 72.62C483.695 73.148 483.809 73.82 483.809 74.636V78.992C483.809 79.364 483.713 79.652 483.521 79.856C483.329 80.048 483.053 80.144 482.693 80.144C482.333 80.144 482.051 80.048 481.847 79.856C481.655 79.652 481.559 79.364 481.559 78.992V74.744C481.559 74.06 481.427 73.562 481.163 73.25C480.911 72.938 480.515 72.782 479.975 72.782C479.315 72.782 478.787 72.992 478.391 73.412C478.007 73.82 477.815 74.366 477.815 75.05V78.992C477.815 79.76 477.437 80.144 476.681 80.144ZM488.992 80.18C488.356 80.18 487.786 80.06 487.282 79.82C486.79 79.568 486.4 79.232 486.112 78.812C485.836 78.392 485.698 77.918 485.698 77.39C485.698 76.742 485.866 76.232 486.202 75.86C486.538 75.476 487.084 75.2 487.84 75.032C488.596 74.864 489.61 74.78 490.882 74.78H491.782V76.076H490.9C490.156 76.076 489.562 76.112 489.118 76.184C488.674 76.256 488.356 76.382 488.164 76.562C487.984 76.73 487.894 76.97 487.894 77.282C487.894 77.678 488.032 78.002 488.308 78.254C488.584 78.506 488.968 78.632 489.46 78.632C489.856 78.632 490.204 78.542 490.504 78.362C490.816 78.17 491.062 77.912 491.242 77.588C491.422 77.264 491.512 76.892 491.512 76.472V74.402C491.512 73.802 491.38 73.37 491.116 73.106C490.852 72.842 490.408 72.71 489.784 72.71C489.436 72.71 489.058 72.752 488.65 72.836C488.254 72.92 487.834 73.064 487.39 73.268C487.162 73.376 486.958 73.406 486.778 73.358C486.61 73.31 486.478 73.214 486.382 73.07C486.286 72.914 486.238 72.746 486.238 72.566C486.238 72.386 486.286 72.212 486.382 72.044C486.478 71.864 486.64 71.732 486.868 71.648C487.42 71.42 487.948 71.258 488.452 71.162C488.968 71.066 489.436 71.018 489.856 71.018C490.72 71.018 491.428 71.15 491.98 71.414C492.544 71.678 492.964 72.08 493.24 72.62C493.516 73.148 493.654 73.832 493.654 74.672V78.992C493.654 79.364 493.564 79.652 493.384 79.856C493.204 80.048 492.946 80.144 492.61 80.144C492.274 80.144 492.01 80.048 491.818 79.856C491.638 79.652 491.548 79.364 491.548 78.992V78.128H491.692C491.608 78.548 491.44 78.914 491.188 79.226C490.948 79.526 490.642 79.76 490.27 79.928C489.898 80.096 489.472 80.18 488.992 80.18ZM498.944 80.18C497.948 80.18 497.198 79.898 496.694 79.334C496.19 78.758 495.938 77.918 495.938 76.814V68.3C495.938 67.928 496.034 67.646 496.226 67.454C496.418 67.262 496.694 67.166 497.054 67.166C497.414 67.166 497.69 67.262 497.882 67.454C498.086 67.646 498.188 67.928 498.188 68.3V76.706C498.188 77.258 498.302 77.666 498.53 77.93C498.77 78.194 499.106 78.326 499.538 78.326C499.634 78.326 499.724 78.326 499.808 78.326C499.892 78.314 499.976 78.302 500.06 78.29C500.228 78.266 500.342 78.314 500.402 78.434C500.462 78.542 500.492 78.77 500.492 79.118C500.492 79.418 500.432 79.652 500.312 79.82C500.192 79.988 499.994 80.09 499.718 80.126C499.598 80.138 499.472 80.15 499.34 80.162C499.208 80.174 499.076 80.18 498.944 80.18ZM502.802 80.126C502.442 80.126 502.166 80.018 501.974 79.802C501.782 79.586 501.686 79.286 501.686 78.902V72.296C501.686 71.9 501.782 71.6 501.974 71.396C502.166 71.18 502.442 71.072 502.802 71.072C503.162 71.072 503.438 71.18 503.63 71.396C503.834 71.6 503.936 71.9 503.936 72.296V78.902C503.936 79.286 503.84 79.586 503.648 79.802C503.456 80.018 503.174 80.126 502.802 80.126ZM502.802 69.398C502.382 69.398 502.052 69.296 501.812 69.092C501.584 68.876 501.47 68.582 501.47 68.21C501.47 67.826 501.584 67.532 501.812 67.328C502.052 67.124 502.382 67.022 502.802 67.022C503.234 67.022 503.564 67.124 503.792 67.328C504.02 67.532 504.134 67.826 504.134 68.21C504.134 68.582 504.02 68.876 503.792 69.092C503.564 69.296 503.234 69.398 502.802 69.398ZM509.496 80.18C508.98 80.18 508.434 80.126 507.858 80.018C507.282 79.91 506.766 79.724 506.31 79.46C506.118 79.34 505.98 79.202 505.896 79.046C505.824 78.878 505.794 78.716 505.806 78.56C505.83 78.392 505.89 78.248 505.986 78.128C506.094 78.008 506.226 77.93 506.382 77.894C506.55 77.858 506.73 77.888 506.922 77.984C507.402 78.212 507.852 78.374 508.272 78.47C508.692 78.554 509.106 78.596 509.514 78.596C510.09 78.596 510.516 78.5 510.792 78.308C511.08 78.104 511.224 77.84 511.224 77.516C511.224 77.24 511.128 77.03 510.936 76.886C510.756 76.73 510.48 76.616 510.108 76.544L508.308 76.202C507.564 76.058 506.994 75.788 506.598 75.392C506.214 74.984 506.022 74.462 506.022 73.826C506.022 73.25 506.178 72.752 506.49 72.332C506.814 71.912 507.258 71.588 507.822 71.36C508.386 71.132 509.034 71.018 509.766 71.018C510.294 71.018 510.786 71.078 511.242 71.198C511.71 71.306 512.16 71.48 512.592 71.72C512.772 71.816 512.892 71.942 512.952 72.098C513.024 72.254 513.042 72.416 513.006 72.584C512.97 72.74 512.898 72.884 512.79 73.016C512.682 73.136 512.544 73.214 512.376 73.25C512.22 73.274 512.04 73.238 511.836 73.142C511.464 72.95 511.104 72.812 510.756 72.728C510.42 72.644 510.096 72.602 509.784 72.602C509.196 72.602 508.758 72.704 508.47 72.908C508.194 73.112 508.056 73.382 508.056 73.718C508.056 73.97 508.14 74.18 508.308 74.348C508.476 74.516 508.734 74.63 509.082 74.69L510.882 75.032C511.662 75.176 512.25 75.44 512.646 75.824C513.054 76.208 513.258 76.724 513.258 77.372C513.258 78.248 512.916 78.938 512.232 79.442C511.548 79.934 510.636 80.18 509.496 80.18ZM516.179 80.126C515.819 80.126 515.543 80.018 515.351 79.802C515.159 79.586 515.063 79.286 515.063 78.902V72.296C515.063 71.9 515.159 71.6 515.351 71.396C515.543 71.18 515.819 71.072 516.179 71.072C516.539 71.072 516.815 71.18 517.007 71.396C517.211 71.6 517.313 71.9 517.313 72.296V78.902C517.313 79.286 517.217 79.586 517.025 79.802C516.833 80.018 516.551 80.126 516.179 80.126ZM516.179 69.398C515.759 69.398 515.429 69.296 515.189 69.092C514.961 68.876 514.847 68.582 514.847 68.21C514.847 67.826 514.961 67.532 515.189 67.328C515.429 67.124 515.759 67.022 516.179 67.022C516.611 67.022 516.941 67.124 517.169 67.328C517.397 67.532 517.511 67.826 517.511 68.21C517.511 68.582 517.397 68.876 517.169 69.092C516.941 69.296 516.611 69.398 516.179 69.398ZM522.872 80.18C522.356 80.18 521.81 80.126 521.234 80.018C520.658 79.91 520.142 79.724 519.686 79.46C519.494 79.34 519.356 79.202 519.272 79.046C519.2 78.878 519.17 78.716 519.182 78.56C519.206 78.392 519.266 78.248 519.362 78.128C519.47 78.008 519.602 77.93 519.758 77.894C519.926 77.858 520.106 77.888 520.298 77.984C520.778 78.212 521.228 78.374 521.648 78.47C522.068 78.554 522.482 78.596 522.89 78.596C523.466 78.596 523.892 78.5 524.168 78.308C524.456 78.104 524.6 77.84 524.6 77.516C524.6 77.24 524.504 77.03 524.312 76.886C524.132 76.73 523.856 76.616 523.484 76.544L521.684 76.202C520.94 76.058 520.37 75.788 519.974 75.392C519.59 74.984 519.398 74.462 519.398 73.826C519.398 73.25 519.554 72.752 519.866 72.332C520.19 71.912 520.634 71.588 521.198 71.36C521.762 71.132 522.41 71.018 523.142 71.018C523.67 71.018 524.162 71.078 524.618 71.198C525.086 71.306 525.536 71.48 525.968 71.72C526.148 71.816 526.268 71.942 526.328 72.098C526.4 72.254 526.418 72.416 526.382 72.584C526.346 72.74 526.274 72.884 526.166 73.016C526.058 73.136 525.92 73.214 525.752 73.25C525.596 73.274 525.416 73.238 525.212 73.142C524.84 72.95 524.48 72.812 524.132 72.728C523.796 72.644 523.472 72.602 523.16 72.602C522.572 72.602 522.134 72.704 521.846 72.908C521.57 73.112 521.432 73.382 521.432 73.718C521.432 73.97 521.516 74.18 521.684 74.348C521.852 74.516 522.11 74.63 522.458 74.69L524.258 75.032C525.038 75.176 525.626 75.44 526.022 75.824C526.43 76.208 526.634 76.724 526.634 77.372C526.634 78.248 526.292 78.938 525.608 79.442C524.924 79.934 524.012 80.18 522.872 80.18Z" fill="#191A19"/>
</svg>
