<svg width="84" height="84" viewBox="0 0 84 84" fill="none" xmlns="http://www.w3.org/2000/svg">
<path d="M66.18 54.6019V72.9095C66.18 79.0398 51.3696 83.9999 33.0899 83.9999C21.5119 83.9999 11.3133 82.0076 5.4057 78.984C2.36841 77.4376 0.473484 75.6263 0.0835078 73.6619C0.0277266 73.411 0 73.1603 0 72.9095V54.6019C0 54.5461 0 54.4905 0.0137813 54.4349C0 54.407 0 54.3931 0.0137813 54.3791C0.0137813 54.2815 0.0277266 54.184 0.0416719 54.0866C0.0556172 54.0447 0.0556172 54.0029 0.0695625 53.9611C0.0835078 53.8495 0.111234 53.7383 0.153234 53.6267V53.6128C0.209016 53.39 0.292523 53.1808 0.390141 52.958C2.22928 48.9593 10.4357 45.6574 21.4423 44.2779C22.8774 44.0967 24.3682 43.9436 25.8868 43.832H25.9704C28.2693 43.6509 30.652 43.5674 33.0901 43.5674C35.5282 43.5674 37.9107 43.6509 40.2096 43.832H40.2931C41.8117 43.9436 43.3025 44.0967 44.7376 44.2779C55.7443 45.6572 63.9506 48.9593 65.7897 52.958C65.8873 53.1808 65.9708 53.39 66.0266 53.6128V53.6267C66.0685 53.7383 66.0962 53.8495 66.1101 53.9611C66.138 54.1004 66.152 54.2257 66.1659 54.3791V54.4349C66.18 54.4905 66.18 54.5461 66.18 54.6019Z" fill="#39526C"/>
<path opacity="0.1" d="M66.18 54.6577V55.5355C66.18 61.6658 51.3696 66.6397 33.0899 66.6397C14.8103 66.6397 0 61.6658 0 55.5355V54.6577C0 54.797 0.0137813 54.9223 0.0277266 55.0479C0.459703 59.367 8.27581 63.0731 19.3802 64.7589C19.7704 64.8147 20.1465 64.8704 20.5367 64.9261C21.1636 65.0235 21.7906 65.1072 22.4314 65.1769C22.6962 65.1909 22.9748 65.2187 23.2534 65.2604C24.8 65.4276 26.4023 65.5531 28.0462 65.6366C29.1469 65.6922 30.2615 65.7341 31.3901 65.748C31.9474 65.762 32.5187 65.762 33.0899 65.762C33.6612 65.762 34.2323 65.762 34.7896 65.748C35.9182 65.7341 37.0327 65.6922 38.1335 65.6366C39.7776 65.5531 41.3798 65.4276 42.9263 65.2604C43.2049 65.2187 43.4836 65.1909 43.7483 65.1769C44.3892 65.1072 45.0161 65.0235 45.643 64.9261C46.0332 64.8704 46.4093 64.8147 46.7995 64.7589C57.9039 63.0731 65.72 59.367 66.152 55.0479C66.1661 54.9223 66.18 54.797 66.18 54.6577Z" fill="#E8E8E9"/>
<path d="M66.18 54.5462V54.6578C66.18 54.7971 66.1661 54.9224 66.1521 55.0479C65.5669 59.381 57.7925 63.0453 46.7997 64.7589C46.4095 64.8147 46.0333 64.8705 45.6432 64.9261C45.253 64.9819 44.8629 65.0236 44.4729 65.0794C44.236 65.1072 43.9852 65.1351 43.7484 65.177C43.4838 65.1909 43.205 65.2188 42.9265 65.2605C41.8953 65.3579 40.8366 65.4555 39.7637 65.5253C39.2203 65.5671 38.6769 65.6088 38.1335 65.6367C37.0328 65.6785 35.9182 65.7202 34.7896 65.7481C34.2323 65.762 33.661 65.762 33.0899 65.762C32.5187 65.762 31.9474 65.762 31.3901 65.7481C30.2615 65.7202 29.147 65.6785 28.0462 65.6367C27.5028 65.6088 26.9594 65.5671 26.416 65.5253C25.3432 65.4555 24.2844 65.3579 23.2532 65.2605C22.9747 65.2188 22.6959 65.1909 22.4313 65.177C22.1945 65.1351 21.9437 65.1072 21.7068 65.0794C21.3166 65.0236 20.9265 64.9819 20.5365 64.9261C20.1464 64.8705 19.7702 64.8147 19.38 64.7589C8.38737 63.0453 0.612938 59.381 0.0277266 55.0479C0.0137813 54.9224 0 54.7971 0 54.6578V54.5462C0 54.5045 0 54.4766 0.0137813 54.435C0 54.4071 0 54.3931 0.0137813 54.3792C0.0277266 54.2258 0.0416719 54.1005 0.0695625 53.9612C0.0835078 53.8914 0.0972891 53.8219 0.0972891 53.7521C0.0835078 53.7244 0.0972891 53.6965 0.111234 53.6686C0.111234 53.6407 0.111234 53.5989 0.12518 53.5571C0.15307 53.4736 0.167016 53.3761 0.208852 53.2924C0.250688 53.1669 0.306469 53.0278 0.362086 52.8884C2.08983 48.9176 9.96171 45.6294 20.5923 44.1665C21.8602 43.9855 23.1699 43.8321 24.5213 43.7207C24.5352 43.7068 24.5631 43.7068 24.5771 43.7068C27.2939 43.4559 30.1501 43.3306 33.0899 43.3306C36.0298 43.3306 38.8859 43.4559 41.6028 43.7068C41.6168 43.7068 41.6446 43.7068 41.6586 43.7207C43.0101 43.8321 44.3198 43.9855 45.5876 44.1665C56.2182 45.6294 64.0902 48.9176 65.8178 52.8884C65.9152 53.1113 65.9989 53.3343 66.0547 53.5571C66.0826 53.6965 66.0826 53.8219 66.1103 53.9612C66.1382 54.1005 66.1521 54.2258 66.1661 54.3792V54.435C66.1661 54.4627 66.18 54.5045 66.18 54.5462Z" fill="#CEDCE4"/>
<path d="M55.2393 69.9646V75.0815C52.5736 75.8876 49.5153 76.5497 46.1694 77.0319V71.915C49.5155 71.4328 52.5736 70.7706 55.2393 69.9646Z" fill="#CEDCE4"/>
<path opacity="0.3" d="M66.0546 53.5571C66.0406 53.585 66.0406 53.5989 66.0267 53.6129V53.6268C64.4663 59.2556 50.3246 63.6582 33.09 63.6582C15.8552 63.6582 1.7137 59.2556 0.153135 53.6268V53.6129C0.139189 53.5989 0.139189 53.585 0.139189 53.571L0.125244 53.5571C0.153135 53.4736 0.16708 53.3761 0.208916 53.2924C0.250752 53.1669 0.306533 53.0278 0.36215 52.8884C2.08989 48.9176 9.96178 45.6294 20.5924 44.1665C21.8602 43.9855 23.17 43.8321 24.5213 43.7207C24.5353 43.7068 24.5632 43.7068 24.5771 43.7068C27.294 43.4559 30.1502 43.3306 33.09 43.3306C36.0298 43.3306 38.886 43.4559 41.6029 43.7068C41.6168 43.7068 41.6447 43.7068 41.6587 43.7207C43.0102 43.8321 44.3199 43.9855 45.5876 44.1665C56.2182 45.6294 64.0903 48.9176 65.8178 52.8884C65.9153 53.1113 65.9988 53.3343 66.0546 53.5571Z" fill="#040000"/>
<path d="M66.18 32.9506V51.2443C66.18 51.8015 66.0545 52.3588 65.8178 52.8883C65.8038 52.9161 65.7899 52.944 65.7899 52.958C63.3239 58.2802 49.6281 62.3346 33.0899 62.3346C16.5518 62.3346 2.856 58.2802 0.389977 52.958C0.389977 52.944 0.376031 52.9161 0.362086 52.8883C0.306305 52.749 0.250688 52.6097 0.208852 52.4842C0.167016 52.345 0.12518 52.2195 0.0972891 52.0802C0.0972891 52.0802 0.0972891 52.0663 0.0972891 52.0524C0.0556172 51.941 0.0415078 51.8155 0.0275625 51.6901C0.0137813 51.5367 0 51.3974 0 51.2442V32.9368C0 32.6162 0.0557813 32.2818 0.139289 31.9754C0.153234 31.9475 0.153234 31.9196 0.16718 31.9056C0.222961 31.6968 0.306469 31.4878 0.390141 31.2927C2.24323 27.294 10.4634 23.9921 21.4563 22.6127C22.8913 22.4315 24.3682 22.2783 25.8868 22.1667C28.1997 21.9997 30.61 21.9021 33.0901 21.9021C35.5701 21.9021 37.9803 21.9997 40.2933 22.1667C41.8118 22.2783 43.2887 22.4315 44.7238 22.6127C55.7166 23.9919 63.9368 27.294 65.7899 31.2927C65.8736 31.4878 65.9571 31.6968 66.0129 31.9056C66.0268 31.9196 66.0268 31.9475 66.0407 31.9754C66.1242 32.2956 66.18 32.6162 66.18 32.9506Z" fill="#39526C"/>
<path opacity="0.1" d="M66.18 33.0063V33.8842C66.18 38.5236 57.6672 42.4946 45.5876 44.1664C45.3088 44.1943 45.0163 44.2361 44.7377 44.2779C41.1152 44.7237 37.1861 44.9745 33.0901 44.9745C28.9939 44.9745 25.0648 44.7237 21.4423 44.2779C21.1636 44.2361 20.871 44.1943 20.5925 44.1664C8.51288 42.4946 0 38.5236 0 33.8842V33.0063C0 33.1319 0.0137813 33.2711 0.0277266 33.3965C0.473648 37.8132 8.66595 41.5889 20.2023 43.2191C20.3137 43.233 20.4251 43.247 20.5367 43.2609C21.4284 43.4 22.32 43.4977 23.2536 43.5953C23.6716 43.6371 24.0896 43.6788 24.5214 43.7206C24.9674 43.7623 25.4271 43.8041 25.8868 43.832H25.9704C27.7259 43.9715 29.5372 44.055 31.3902 44.0829C31.9476 44.0966 32.5188 44.0966 33.0901 44.0966C33.6614 44.0966 34.2325 44.0966 34.7898 44.0829C36.6429 44.055 38.4541 43.9715 40.2096 43.832H40.2931C40.753 43.8041 41.2127 43.7623 41.6584 43.7206C42.0904 43.6788 42.5083 43.6371 42.9263 43.5953C43.8598 43.4977 44.7515 43.4 45.6432 43.2609L45.9777 43.2191C57.5139 41.5889 65.7062 37.8132 66.1521 33.3965C66.1661 33.2711 66.18 33.1319 66.18 33.0063Z" fill="#E8E8E9"/>
<path d="M66.18 32.8811V33.0065C66.18 33.132 66.1661 33.2713 66.1521 33.3966C65.553 37.8133 57.4024 41.5612 45.9777 43.2192L45.6432 43.261C45.253 43.3166 44.8629 43.3585 44.4729 43.4141C43.9574 43.4699 43.4557 43.5257 42.9265 43.5954C42.4945 43.6372 42.0487 43.6789 41.6028 43.7068C41.1429 43.7485 40.6832 43.7903 40.2096 43.8321C40.0564 43.8321 39.9169 43.8461 39.7637 43.86C39.2203 43.9018 38.6769 43.9297 38.1335 43.9576C37.0328 44.0132 35.9182 44.0551 34.7896 44.083H31.3901C30.2615 44.0551 29.147 44.0132 28.0462 43.9576C27.5028 43.9297 26.9594 43.9018 26.416 43.86C26.2628 43.8461 26.1235 43.8321 25.9701 43.8321C25.4965 43.7903 25.0366 43.7485 24.5769 43.7068C24.131 43.6789 23.6852 43.6372 23.2532 43.5954C22.7238 43.5257 22.2223 43.4699 21.7068 43.4141C21.3166 43.3585 20.9265 43.3166 20.5365 43.261C20.4251 43.2471 20.3136 43.2331 20.2022 43.2192C8.77751 41.561 0.626883 37.8133 0.0277266 33.3966C0.0137813 33.2713 0 33.132 0 33.0065V32.8811C0 32.7418 0.0137813 32.6024 0.0277266 32.4632C0.0416719 32.3238 0.0556172 32.1845 0.0974531 32.0452C0.0974531 32.0034 0.111398 31.9476 0.125344 31.9058H66.0547C66.085 32.0219 66.0808 32.1423 66.1001 32.259C66.1343 32.4286 66.1564 32.6006 66.1664 32.7745C66.1674 32.8104 66.18 32.8445 66.18 32.8811Z" fill="#CEDCE4"/>
<path d="M55.2393 48.3018V53.4187C52.5736 54.2247 49.5153 54.8869 46.1694 55.3691V50.2521C49.5155 49.7698 52.5736 49.1078 55.2393 48.3018Z" fill="#CEDCE4"/>
<path opacity="0.3" d="M66.0408 31.9055V31.9752C64.4386 37.6041 50.3109 42.0067 33.0902 42.0067C15.8694 42.0067 1.7418 37.6041 0.139404 31.9752V31.9055H66.0408Z" fill="#040000"/>
<path d="M66.18 11.2854V29.579C66.18 30.1641 66.0406 30.7355 65.7899 31.2927C65.6924 31.5017 65.5809 31.6968 65.4555 31.9056C62.2788 36.9215 49.001 40.6833 33.0901 40.6833C17.179 40.6833 3.90124 36.9215 0.7245 31.9056C0.599156 31.6968 0.487594 31.5017 0.390141 31.2927C0.390141 31.2787 0.376195 31.2508 0.36225 31.2229C0.306469 31.0978 0.250852 30.9583 0.209016 30.819C0.16718 30.7076 0.139289 30.5961 0.111398 30.4847C0.0974531 30.4428 0.0836719 30.3872 0.0836719 30.3454C0.0557813 30.2338 0.0418359 30.1364 0.0278906 30.025C0.0137813 29.8716 0 29.7323 0 29.579V11.2715C0.111398 5.169 14.8801 0.250732 33.0901 0.250732C44.3476 0.250732 54.2955 2.13171 60.2726 5.01576C63.7558 6.68772 65.9014 8.70799 66.1523 10.8954C66.1661 11.0206 66.18 11.1601 66.18 11.2854Z" fill="#39526C"/>
<path opacity="0.1" d="M66.18 11.3411V12.2188C66.18 16.9697 57.2631 21.0242 44.7238 22.6125C41.1013 23.0584 37.1862 23.3091 33.0901 23.3091C28.9939 23.3091 25.0788 23.0584 21.4563 22.6125C8.9168 21.0242 0 16.9697 0 12.219V11.3412C0 16.3291 9.78075 20.5368 23.2536 21.93C24.1175 22.0137 24.9951 22.0972 25.8868 22.1667C28.1997 22.3341 30.61 22.4315 33.0901 22.4315C35.5701 22.4315 37.9803 22.3341 40.2933 22.1667C41.1849 22.0972 42.0627 22.0137 42.9266 21.93C56.3993 20.5366 66.18 16.3289 66.18 11.3411Z" fill="#E8E8E9"/>
<path d="M66.18 11.2158V11.2854C66.0964 16.2871 56.3435 20.5088 42.9265 21.9299C42.0625 22.0136 41.1849 22.0971 40.2931 22.1666C37.9803 22.334 35.5699 22.4314 33.0899 22.4314C30.6098 22.4314 28.1996 22.334 25.8866 22.1666C24.9949 22.0971 24.1172 22.0136 23.2534 21.9299C9.83653 20.5088 0.0836719 16.2871 0 11.2854V11.2158C0 5.02966 14.8103 0 33.0901 0C44.1248 0 53.8916 1.83914 59.9104 4.65347C63.6722 6.40894 65.971 8.56849 66.1521 10.8954C66.18 10.9928 66.18 11.1042 66.18 11.2158Z" fill="#CEDCE4"/>
<path d="M55.2393 26.6389V31.7559C52.5736 32.5619 49.5153 33.2241 46.1694 33.7062V28.5893C49.5155 28.1071 52.5736 27.445 55.2393 26.6389Z" fill="#CEDCE4"/>
<path opacity="0.2" d="M33.0901 0V84C21.512 84 11.3134 82.0076 5.40586 78.9841C2.36857 77.4377 0.473648 75.6264 0.0836719 73.6619C0.0277266 73.4111 0 73.1604 0 72.9095V54.5462C0 54.5045 0 54.4766 0.0137812 54.435C0 54.4071 0 54.3931 0.0137812 54.3792C0.0137812 54.2816 0.0277266 54.1841 0.0416719 54.0866C0.0416719 53.9751 0.0556172 53.8635 0.0974531 53.7521C0.0836719 53.7244 0.0974531 53.6965 0.111398 53.6686C0.111398 53.6268 0.111398 53.5989 0.139289 53.571C0.153234 53.4735 0.180961 53.39 0.209016 53.2924C0.250852 53.1669 0.306633 53.0278 0.36225 52.8883C0.306469 52.749 0.250852 52.6098 0.209016 52.4842C0.16718 52.3451 0.125344 52.2196 0.0974531 52.0803C0.0974531 52.0803 0.0974531 52.0664 0.0974531 52.0524C0.0557812 51.941 0.0416719 51.8155 0.0277266 51.6902C0.0137812 51.5368 0 51.3975 0 51.2443V32.8811C0 32.7418 0.0137812 32.6023 0.0277266 32.4632C0.0416719 32.3238 0.0556172 32.1845 0.0974531 32.0452C0.0974531 32.0033 0.111398 31.9615 0.139289 31.9057C0.180961 31.6829 0.264633 31.4462 0.36225 31.2231C0.306469 31.0979 0.250852 30.9584 0.209016 30.8191C0.16718 30.7077 0.139289 30.5962 0.111398 30.4848C0.0974531 30.4429 0.0836719 30.3873 0.0836719 30.3455C0.0557812 30.2339 0.0418359 30.1365 0.0278906 30.0251C0.0137812 29.8715 0 29.7322 0 29.579V11.2158C0 5.02966 14.8102 0 33.0901 0Z" fill="white"/>
</svg>
