<svg width="60" height="60" viewBox="0 0 60 60" fill="none" xmlns="http://www.w3.org/2000/svg">
<rect width="60" height="60" rx="10" fill="white"/>
<path fill-rule="evenodd" clip-rule="evenodd" d="M30.2727 30.1364C30.2727 25.9943 33.6306 22.6364 37.7727 22.6364C41.9148 22.6364 45.2727 25.9943 45.2727 30.1364C45.2727 34.2784 41.9148 37.6364 37.7727 37.6364C33.6306 37.6364 30.2727 34.2784 30.2727 30.1364Z" fill="#1ABCFE"/>
<path fill-rule="evenodd" clip-rule="evenodd" d="M15.2727 45.1364C15.2727 40.9943 18.6306 37.6364 22.7727 37.6364H30.2727V45.1364C30.2727 49.2784 26.9148 52.6364 22.7727 52.6364C18.6306 52.6364 15.2727 49.2784 15.2727 45.1364Z" fill="#0ACF83"/>
<path fill-rule="evenodd" clip-rule="evenodd" d="M30.2727 7.63635V22.6364H37.7727C41.9148 22.6364 45.2727 19.2784 45.2727 15.1364C45.2727 10.9942 41.9148 7.63635 37.7727 7.63635H30.2727Z" fill="#FF7262"/>
<path fill-rule="evenodd" clip-rule="evenodd" d="M15.2727 15.1364C15.2727 19.2784 18.6306 22.6364 22.7727 22.6364H30.2727V7.63635H22.7727C18.6306 7.63635 15.2727 10.9942 15.2727 15.1364Z" fill="#F24E1E"/>
<path fill-rule="evenodd" clip-rule="evenodd" d="M15.2727 30.1364C15.2727 34.2784 18.6306 37.6364 22.7727 37.6364H30.2727V22.6364H22.7727C18.6306 22.6364 15.2727 25.9943 15.2727 30.1364Z" fill="#A259FF"/>
</svg>
