<svg width="648" height="651" viewBox="0 0 648 651" fill="none" xmlns="http://www.w3.org/2000/svg">
<path opacity="0.05" d="M47.69 52.62C59.7633 49.9933 71.8333 45.8667 83.9 40.24C95.9733 33.98 108.047 28.7267 120.12 24.48C132.193 24.0267 144.267 25.5667 156.34 29.1C168.407 35.1333 180.477 41.1433 192.55 47.13C204.623 50.5567 216.697 51.9767 228.77 51.39C240.843 47.0433 252.917 41.73 264.99 35.45C277.057 29.89 289.127 25.8567 301.2 23.35C313.273 24.9567 325.347 28.2833 337.42 33.33C349.493 39.6833 361.563 45.3533 373.63 50.34C385.703 51.86 397.777 51.3267 409.85 48.74C421.923 43.1333 433.997 37.2 446.07 30.94C458.143 26.66 470.213 24.27 482.28 23.77C494.353 27.27 506.427 32.03 518.5 38.05C530.573 44.0567 542.647 48.79 554.72 52.25C566.787 51.7033 578.857 49.27 590.93 44.95C607.223 41.4567 611.527 46.67 603.84 60.59C588.313 71.7367 574.02 82.88 560.96 94.02C555.487 105.16 554.873 116.3 559.12 127.44C571.433 138.587 585.367 149.73 600.92 160.87C613.62 172.01 622.407 183.15 627.28 194.29C622.413 205.437 613.633 216.58 600.94 227.72C585.387 238.86 571.45 250 559.13 261.14C554.877 272.28 555.483 283.423 560.95 294.57C574.003 305.71 588.293 316.85 603.82 327.99C615.74 339.13 623.517 350.273 627.15 361.42C621.083 372.56 611.353 383.7 597.96 394.84C582.487 405.98 569.003 417.123 557.51 428.27C554.503 439.41 556.327 450.55 562.98 461.69C576.687 472.83 591.237 483.973 606.63 495.12C617.683 506.26 624.397 517.4 626.77 528.54C619.543 539.68 608.93 550.823 594.93 561.97C583.39 575.39 571.85 589.64 560.31 604.72C548.77 615.1 537.23 620.947 525.69 622.26C514.15 613.947 502.61 602.573 491.07 588.14C479.53 573.667 467.99 562.22 456.45 553.8C444.91 554.993 433.37 560.733 421.83 571.02C410.29 586.08 398.75 600.35 387.21 613.83C375.67 620.057 364.13 621.343 352.59 617.69C341.05 605.69 329.51 592.05 317.97 576.77C306.43 564.643 294.89 556.647 283.35 552.78C271.81 558.807 260.27 568.507 248.73 581.88C237.19 596.973 225.65 609.747 214.11 620.2C202.57 621.607 191.03 618.193 179.49 609.96C167.95 595.56 156.413 581.107 144.88 566.6C133.34 558.107 121.8 554.407 110.26 555.5C98.72 565.72 87.18 578.35 75.64 593.39C59.78 604.13 50.4366 602.163 47.61 587.49C47.1166 575.603 45.7266 563.717 43.44 551.83C40.2533 539.943 37.24 528.057 34.4 516.17C33.0266 504.283 32.65 492.397 33.27 480.51C35.65 468.63 38.44 456.747 41.64 444.86C44.4133 432.973 46.43 421.087 47.69 409.2C46.9366 397.313 45.3266 385.427 42.86 373.54C39.6466 361.653 36.6866 349.767 33.98 337.88C32.8466 325.993 32.72 314.107 33.6 302.22C36.1533 290.333 39.04 278.45 42.26 266.57C44.8866 254.683 46.7033 242.797 47.71 230.91C46.7033 219.023 44.8866 207.137 42.26 195.25C39.04 183.363 36.1533 171.477 33.6 159.59C32.72 147.703 32.8466 135.817 33.98 123.93C36.6866 112.043 39.6466 100.157 42.86 88.27C45.3266 76.3833 46.9366 64.5 47.69 52.62Z" stroke="#D3D3D3" stroke-opacity="0.25" stroke-width="2" stroke-linecap="round" stroke-dasharray="2 10"/>
<path opacity="0.09" d="M80.9201 41.4213C92.8317 37.7519 104.81 33.2919 116.855 28.0415C128.83 23.6281 140.68 20.6827 152.406 19.2055C163.803 21.621 175.059 25.704 186.174 31.4543C197.165 38.6727 208.2 45.4097 219.279 51.6655C230.606 54.9047 242.099 56.1943 253.756 55.5342C265.689 51.6123 277.679 47.0129 289.726 41.7359C301.683 37.5284 313.509 34.872 325.204 33.7668C336.569 36.561 347.798 40.9561 358.893 46.9522C369.882 54.1839 380.923 60.8177 392.014 66.8537C403.372 69.7209 414.896 70.6385 426.585 69.6063C438.538 65.4453 450.538 60.723 462.586 55.4394C474.523 51.471 486.323 49.1202 497.986 48.387C509.32 51.5532 520.527 56.2476 531.609 62.4701C542.6 69.6885 553.651 76.1961 564.762 81.9929C576.152 84.4882 587.708 85.0304 599.428 83.6196C612.641 81.6525 612.477 86.6832 598.935 98.7117C583.939 108.316 571.384 118.129 561.27 128.153C559.375 138.865 561.766 149.942 568.446 161.386C580.951 173.322 593.939 185.295 607.408 197.306C616.638 208.965 621.916 220.287 623.242 231.271C615.845 241.524 605.26 251.505 591.487 261.212C575.999 270.781 562.288 280.5 550.354 290.37C545.973 300.871 545.99 311.748 550.404 323C561.695 334.827 574.214 346.761 587.961 358.802C598.859 370.602 606.193 382.098 609.964 393.288C604.912 403.74 596.2 413.879 583.828 423.704C568.28 433.268 553.792 442.919 540.364 452.655C533.592 462.961 531.207 473.638 533.21 484.686C542.926 496.38 554.578 508.241 568.166 520.268C580.38 532.173 589.524 543.822 595.599 555.214C593.019 565.868 586.41 576.184 575.771 586.163C563.293 599.62 550.898 612.053 538.586 623.463C526.861 628.011 515.514 628.058 504.543 623.605C494.219 611.505 484.038 597.759 473.999 582.365C463.757 569.295 453.218 559.743 442.381 553.709C430.788 556.703 418.875 563.439 406.641 573.919C394.159 587.429 381.783 599.64 369.513 610.551C357.854 614.242 346.579 613.422 335.69 608.093C325.413 595.435 315.256 581.399 305.219 565.985C294.934 553.434 284.336 544.573 273.426 539.402C261.759 543.266 249.786 550.704 237.508 561.715C225.026 575.218 212.673 587.153 200.45 597.52C188.864 600.347 177.662 598.664 166.846 592.471C156.612 579.302 146.476 565.027 136.436 549.646C126.102 537.659 115.443 529.522 104.459 525.235C92.7205 529.943 80.6914 538.048 68.3718 549.551C51.3828 562.311 41.3031 562.714 38.1326 550.757C37.5087 539.304 36.1873 527.792 34.1685 516.22C31.844 504.623 29.9544 493.066 28.4996 481.55C28.7991 470.174 30.0917 458.883 32.3775 447.676C36.1712 436.596 40.2038 425.54 44.4752 414.507C48.0232 403.407 50.744 392.236 52.6379 380.996C52.5388 369.587 51.629 358.113 49.9085 346.573C47.5442 334.973 45.4589 323.396 43.6526 311.843C43.4007 300.421 44.1483 289.087 45.8955 277.841C49.3437 266.732 53.1972 255.657 57.4559 244.617C61.3294 233.544 64.4784 222.413 66.9031 211.224C67.3554 199.862 66.9109 188.424 65.5696 176.91C63.2651 165.314 61.0732 153.732 58.994 142.162C58.2306 130.697 58.4372 119.314 59.6135 108.013C62.6566 96.8696 66.2507 85.7763 70.396 74.733C74.4952 63.6791 78.0033 52.5752 80.9201 41.4213Z" stroke="#D3D3D3" stroke-opacity="0.25" stroke-width="2" stroke-linecap="round" stroke-dasharray="6 2"/>
<path opacity="0.13" d="M113.068 31.2215C124.858 27.2719 136.659 23.2868 148.468 19.266C159.926 17.2683 171.094 16.9728 181.973 18.3794C192.252 23.3425 202.32 29.5243 212.177 36.9246C221.966 44.7663 231.897 51.7564 241.969 57.8948C252.602 60.7813 263.54 61.8565 274.783 61.1207C286.493 57.6848 298.269 53.8442 310.11 49.5989C321.723 46.7283 333.072 45.3916 344.156 45.589C354.625 49.4415 364.84 54.759 374.803 61.5415C384.575 69.4818 394.431 76.9122 404.37 83.8327C414.795 87.901 425.533 90.1461 436.586 90.568C448.166 87.854 459.878 84.388 471.721 80.1701C483.445 76.6148 494.949 74.3647 506.235 73.4196C516.9 76.0749 527.287 80.3836 537.397 86.3457C547.186 94.1469 557.004 101.794 566.852 109.288C577.092 114.447 587.634 117.845 598.48 119.483C609.067 119.9 606.21 125.256 589.91 135.552C577.032 144.057 567.298 153.101 560.709 162.684C562.001 173.603 566.729 185.107 574.895 197.196C586.617 209.891 597.864 222.509 608.638 235.05C614.294 246.712 616.151 257.726 614.209 268.094C604.729 277.178 592.761 285.842 578.305 294.085C563.107 302.194 549.776 310.622 538.311 319.368C533.805 329.306 533.237 339.911 536.605 351.183C546.138 363.506 556.867 376.032 568.792 388.761C578.541 401.127 585.286 412.978 589.029 424.314C584.919 434.313 577.275 443.713 566.099 452.514C550.986 460.639 536.131 468.807 521.531 477.019C511.716 486.045 505.637 495.712 503.293 506.018C508.606 517.622 516.569 529.676 527.179 542.182C538.965 554.895 549.076 567.319 557.511 579.455C559.197 590.441 556.933 600.754 550.72 610.394C537.675 621.427 525.04 630.078 512.814 636.347C501.894 634.947 491.64 629.633 482.054 620.406C473.344 605.992 464.694 591.24 456.106 576.15C446.825 565.129 436.917 557.791 426.381 554.136C414.475 558.486 402.079 565.73 389.193 575.871C376.053 587.503 363.199 597.459 350.63 605.739C339.243 607.046 328.549 604.298 318.549 597.495C309.627 584.364 300.897 570.089 292.358 554.669C283.386 541.834 273.859 532.258 263.776 525.942C252.309 527.756 240.258 532.976 227.623 541.604C214.475 553.282 201.481 564.063 188.639 573.947C176.819 577.831 165.682 577.685 155.228 573.511C146.01 562.114 137.117 548.819 128.546 533.624C119.808 519.415 110.604 507.92 100.935 499.138C89.9266 498.257 78.274 501.158 65.9771 507.842C47.8456 519.32 36.7238 519.82 32.6117 509.34C31.9037 498.291 30.7848 487.172 29.2553 475.983C28.0083 464.842 27.4153 453.813 27.4761 442.895C29.4308 432.292 32.3018 421.849 36.089 411.566C41.0657 401.485 46.1016 391.414 51.1966 381.354C55.3255 371.129 58.5837 360.755 60.971 350.233C61.4208 339.375 61.1306 328.393 60.1005 317.289C58.5315 306.093 57.2582 294.948 56.2807 283.853C56.8213 273.017 58.3346 262.346 60.8205 251.841C65.0152 241.627 69.6737 231.488 74.7961 221.426C79.7334 211.338 84.0562 201.146 87.7646 190.849C89.6196 180.237 90.5348 169.464 90.5102 158.531C89.2238 147.384 87.823 136.213 86.3077 125.02C85.6653 113.982 85.8708 103.088 86.924 92.3393C89.9225 81.9216 93.6966 71.6359 98.2461 61.4824C103.427 51.4363 108.367 41.3493 113.068 31.2215Z" stroke="#D3D3D3" stroke-opacity="0.25" stroke-width="2" stroke-linecap="round" stroke-dasharray="2 1"/>
<path opacity="0.17" d="M144.318 22.264C155.822 18.9728 167.162 16.3004 178.339 14.2468C188.808 14.9573 198.836 17.358 208.424 21.4489C217.274 28.4201 225.933 36.1133 234.403 44.5286C243.004 52.4615 251.892 59.2705 261.067 64.9556C271.091 67.3894 281.527 68.212 292.377 67.4234C303.777 64.5324 315.213 61.4889 326.686 58.2929C337.752 56.6927 348.431 56.5795 358.721 57.9531C368.149 62.6911 377.229 68.7578 385.962 76.1533C394.423 84.6284 402.992 92.6702 411.67 100.279C421.006 105.372 430.77 108.792 440.964 110.54C451.959 109.217 463.181 107.003 474.63 103.898C486.063 100.878 497.244 98.8216 508.172 97.7296C518.296 99.7762 527.988 103.477 537.248 108.833C545.894 116.592 554.446 124.702 562.904 133.162C571.69 140.378 580.83 146.216 590.323 150.675C598.702 154.192 594.804 160.624 578.629 169.972C568.894 178.031 562.479 186.952 559.384 196.736C563.105 208.282 569.266 220.459 577.866 233.267C587.947 246.451 596.829 259.328 604.512 271.899C606.671 283.041 605.346 293.279 600.536 302.612C589.444 310.327 576.513 317.566 561.742 324.33C547.031 331.103 534.201 338.365 523.251 346.117C518.633 355.506 517.495 365.792 519.836 376.975C527.637 389.576 536.579 402.472 546.664 415.664C555.176 428.442 561.205 440.582 564.752 452.083C561.47 461.818 554.881 470.694 544.985 478.712C530.711 485.604 516.043 492.395 500.982 499.084C488.95 506.549 479.879 514.783 473.77 523.787C474.664 534.602 478.53 546.186 485.369 558.538C495.281 571.678 504.825 584.727 514 597.683C518.844 609.52 520.39 620.5 518.64 630.624C505.936 637.358 494.03 641.003 482.924 641.56C473.687 634.888 465.214 625.26 457.506 612.676C450.481 597.452 443.264 582.97 435.854 569.231C427.116 560.629 417.465 555.572 406.901 554.058C394.593 559.262 381.75 566.532 368.373 575.867C354.95 585.382 342.021 592.987 329.586 598.682C318.85 597.806 309.038 593.354 300.152 585.327C292.659 571.91 285.405 557.57 278.39 542.308C270.78 529.343 262.435 519.221 253.355 511.942C242.417 511.875 230.653 514.988 218.062 521.283C204.591 530.986 191.203 540.362 177.9 549.413C165.762 553.959 154.512 555.068 144.152 552.739C135.598 543.428 127.663 531.721 120.347 517.62C113.298 502.487 105.852 488.889 98.009 476.828C88.5683 470.944 78.1961 468.674 66.8924 470.02C54.0532 477.277 40.871 485.86 27.3458 495.769C29.6702 485.876 31.1136 475.755 31.676 465.406C31.0831 454.758 30.3901 444.085 29.5971 433.385C29.6238 422.898 30.4475 412.617 32.0684 402.542C35.5611 392.951 39.8452 383.561 44.9208 374.372C50.808 365.401 56.5887 356.401 62.2629 347.375C66.7625 338.044 70.381 328.486 73.1185 318.699C74.0294 308.441 74.2755 298.01 73.8568 287.407C73.0186 276.696 72.487 266.065 72.262 255.512C73.4973 245.33 75.6612 235.392 78.7536 225.698C83.5371 216.441 88.8241 207.314 94.6145 198.317C100.424 189.325 105.74 180.206 110.562 170.959C113.707 161.277 115.918 151.355 117.197 141.192C117.006 130.641 116.491 120.01 115.653 109.299C115.208 98.6899 115.419 88.2501 116.285 77.9797C118.971 68.1801 122.544 58.6099 127.005 49.2693C132.66 40.2375 138.431 31.2357 144.318 22.264Z" stroke="#D3D3D3" stroke-opacity="0.25" stroke-width="2" stroke-linecap="round" stroke-dasharray="3 9"/>
<path opacity="0.21" d="M174.894 15.3087C185.723 13.5409 196.178 12.8499 206.259 13.2356C215.281 16.6199 223.791 21.471 231.791 27.7889C239.086 36.1136 246.299 44.6637 253.429 53.4391C260.994 60.9963 269 67.2848 277.448 72.3047C286.983 74.2443 296.995 74.8282 307.481 74.0565C318.494 71.7665 329.486 69.5437 340.459 67.388C350.822 66.9686 360.688 67.9572 370.056 70.3538C378.356 75.8162 386.236 82.4633 393.697 90.2951C400.818 99.1168 408.064 107.583 415.434 115.694C423.567 121.613 432.23 126.03 441.423 128.945C451.637 128.932 462.199 127.936 473.109 125.957C484.161 123.574 494.988 121.823 505.59 120.703C515.3 122.146 524.466 125.129 533.088 129.652C540.772 136.869 548.199 144.82 555.368 153.503C562.591 162.014 570.128 169.639 577.98 176.379C584.514 183.391 580.854 191.676 567.002 201.236C560.761 209.538 557.587 218.916 557.48 229.37C562.62 241.665 569.209 254.469 577.249 267.781C585.024 281.001 591.123 293.632 595.545 305.675C594.478 315.785 590.352 324.826 583.168 332.797C570.958 339.005 557.483 344.769 542.744 350.089C528.671 355.644 516.442 361.845 506.056 368.692C501.338 377.529 499.655 387.43 501.008 398.396C507.141 411.04 514.347 424.059 522.626 437.456C529.828 450.474 535.032 462.788 538.236 474.397C535.632 483.975 530.026 492.5 521.421 499.972C508.304 505.862 494.304 511.442 479.421 516.711C466.015 522.5 454.764 529.044 445.667 536.344C442.491 545.721 442.267 556.134 444.997 567.584C451.949 580.514 459.583 593.681 467.902 607.084C474.35 619.838 478.505 631.787 480.367 642.932C469.108 644.415 458.952 642.753 449.9 637.945C442.903 627.28 436.55 614.789 430.841 600.472C425.254 585.787 419.133 572.625 412.478 560.986C403.88 554.882 394.168 551.955 383.342 552.205C370.666 557.726 357.531 564.556 343.936 572.694C330.642 579.977 318.057 585.241 306.18 588.485C296.417 585.703 287.741 579.822 280.152 570.843C274.146 557.354 268.396 543.135 262.902 528.187C256.699 515.258 249.636 504.779 241.714 496.75C231.587 495.027 220.437 496.208 208.264 500.296C194.836 507.962 181.36 515.761 167.839 523.692C155.415 528.496 143.968 530.513 133.499 529.744C125.261 522.615 117.938 512.878 111.53 500.534C106.007 485.667 100.319 471.272 94.465 457.349C87.1675 447.54 78.8085 440.757 69.3878 436.999C57.7976 439.426 45.4294 444.07 32.2832 450.931C33.9591 441.402 34.9746 431.641 35.3295 421.648C35.1434 411.466 35.1523 401.352 35.3562 391.306C36.7805 381.688 39.0603 372.371 42.1957 363.354C47.0359 354.935 52.4988 346.735 58.5846 338.752C65.094 330.912 71.3507 322.986 77.3547 314.976C82.0564 306.508 85.8901 297.736 88.8556 288.659C90.1478 278.995 90.8581 269.127 90.9866 259.055C90.813 248.877 90.9478 238.807 91.3907 228.846C93.2113 219.367 95.9138 210.195 99.498 201.328C104.709 193.039 110.452 184.937 116.727 177.021C123.196 169.174 129.301 161.198 135.041 153.095C139.333 144.484 142.742 135.563 145.268 126.331C146.201 116.542 146.654 106.583 146.625 96.4559C146.514 86.2999 146.826 76.2886 147.561 66.4221C149.803 57.0915 152.932 48.0722 156.948 39.364C162.499 31.1944 168.481 23.176 174.894 15.3087Z" stroke="#D3D3D3" stroke-opacity="0.25" stroke-width="2" stroke-linecap="round" stroke-dasharray="1 1"/>
<path opacity="0.25" d="M204.796 11.4446C214.465 11.8303 223.563 13.4978 232.09 16.447C239.371 22.1549 246.159 28.9636 252.452 36.8733C258.28 45.838 264.193 54.6036 270.191 63.1702C276.971 70.0121 284.331 75.5541 292.27 79.7961C301.445 81.2828 311.105 81.6973 321.251 81.0396C331.823 79.4121 342.287 78.0279 352.642 76.887C362.197 77.5431 371.16 79.5117 379.531 82.7926C386.676 88.8046 393.354 95.8641 399.566 103.971C405.374 112.964 411.308 121.673 417.37 130.1C424.275 136.662 431.772 141.897 439.862 145.804C449.171 146.993 458.94 147.164 469.17 146.318C479.751 144.672 490.186 143.352 500.475 142.357C509.903 143.299 518.726 145.578 526.947 149.193C533.958 155.503 540.53 162.8 546.663 171.083C552.465 180.088 558.437 188.723 564.578 196.988C569.559 207.48 566.922 218.2 556.668 229.148C553.679 238.22 553.188 248.408 555.196 259.714C560.704 272.598 566.767 285.728 573.385 299.103C578.455 311.79 581.61 323.615 582.851 334.577C578.968 343.247 572.52 350.763 563.506 357.123C550.663 361.773 537.043 366.071 522.646 370.016C509.36 374.467 497.824 379.699 488.037 385.713C483.248 393.976 481.066 403.406 481.492 414.003C486.051 426.461 491.603 439.361 498.148 452.703C504.027 465.754 508.335 478.096 511.072 489.729C508.983 499.205 504.259 507.494 496.9 514.597C485.134 519.73 472.171 524.322 458.011 528.374C444.05 532.521 431.476 537.288 420.291 542.674C413.713 550.135 409.786 558.782 408.509 568.614C411.87 580.535 416.628 593.079 422.783 606.246C420.062 614.868 413.338 607.47 402.611 584.053C397.982 570.986 392.472 559.88 386.082 550.736C377.293 546.939 367.31 545.802 356.133 547.327C343.24 552.677 330.055 558.675 316.58 565.321C303.817 570.379 291.962 573.415 281.014 574.429C272.485 570.053 265.136 563.047 258.967 553.41C254.463 540.064 250.211 526.154 246.212 511.682C241.425 498.967 235.705 488.33 229.053 479.77C219.964 476.641 209.707 476.116 198.281 478.194C185.251 483.849 172.007 489.981 158.548 496.59C145.952 501.277 134.31 503.828 123.624 504.243C115.392 499.205 108.316 491.59 102.395 481.4C98.0168 467.773 93.8145 453.754 89.7882 439.343C84.8285 427.012 78.8862 416.87 71.9614 408.918C62.5748 406.453 52.0487 406.527 40.3831 409.14C41.5879 399.86 42.4247 390.415 42.8935 380.804C43.4381 371.221 44.4192 361.836 45.8369 352.652C48.69 344.111 52.3673 335.941 56.8687 328.14C62.8117 320.986 69.1848 314.021 75.9881 307.246C82.8495 300.504 89.3399 293.596 95.4593 286.521C100.204 278.829 104.131 270.771 107.239 262.345C108.848 253.239 109.969 243.918 110.602 234.381C111.028 224.751 111.762 215.26 112.802 205.906C115.126 197.128 118.264 188.712 122.214 180.656C127.719 173.306 133.769 166.2 140.363 159.338C147.297 152.629 153.993 145.809 160.449 138.878C165.711 131.418 170.176 123.601 173.844 115.426C175.912 106.534 177.388 97.375 178.27 87.9503C178.675 78.3038 179.252 68.7382 180 59.2534C181.831 50.2544 184.441 41.6048 187.83 33.3045C192.842 25.733 198.497 18.4463 204.796 11.4446Z" stroke="#D3D3D3" stroke-opacity="0.25" stroke-width="2" stroke-linecap="round" stroke-dasharray="4 7"/>
<path opacity="0.29" d="M233.787 11.8718C241.818 14.6692 249.159 18.7041 255.81 23.9764C261.259 31.4177 266.339 39.5312 271.05 48.3168C275.662 57.2683 280.562 65.7009 285.749 73.6145C292.044 79.5431 299.016 84.2427 306.666 87.7132C315.596 88.8748 324.968 89.245 334.783 88.8238C344.86 87.9154 354.731 87.3802 364.394 87.2182C373.071 88.8495 381.083 91.6744 388.429 95.6931C394.447 102.108 399.963 109.435 404.978 117.672C409.551 126.694 414.245 135.496 419.061 144.081C424.748 151.105 431.068 156.983 438.02 161.713C446.332 163.988 455.205 165.259 464.639 165.526C474.667 164.705 484.659 163.951 494.613 163.264C503.853 163.881 512.493 165.572 520.534 168.337C527.201 173.58 533.269 179.912 538.736 187.333C543.448 196.104 548.109 204.968 552.717 213.926C557.897 221.866 563.625 228.81 569.902 234.759C560.694 239.983 553.644 246.404 548.752 254.02C548.296 264.096 549.612 275.15 552.7 287.182C557.603 300.228 562.351 313.189 566.946 326.064C569.172 337.626 569.456 348.108 567.797 357.509C561.634 364.421 553.42 370.197 543.158 374.836C530.143 377.95 516.748 380.85 502.972 383.534C490.587 386.997 479.814 391.354 470.653 396.605C465.819 404.253 463.202 413.127 462.803 423.226C465.922 435.284 469.936 447.837 474.845 460.886C479.421 473.751 482.804 485.951 484.994 497.485C483.279 506.863 479.31 514.992 473.088 521.871C462.779 526.485 451.105 530.342 438.067 533.443C424.297 536.131 411.235 539.215 398.879 542.694C389.77 547.974 382.828 554.454 378.052 562.135C377.711 572.267 379.115 583.369 382.263 595.442C383.048 599.43 380.272 588.988 373.935 564.117C369.663 553.342 364.235 544.654 357.649 538.054C348.442 536.182 338.095 536.374 326.609 538.627C313.737 543.368 300.797 548.231 287.789 553.216C275.922 556.143 265.125 557.141 255.398 556.208C248.275 550.575 242.37 542.755 237.68 532.747C234.64 519.75 231.833 506.333 229.258 492.497C225.849 480.165 221.477 469.57 216.142 460.713C208.266 456.454 199.12 454.479 188.705 454.788C176.388 458.526 163.678 462.975 150.573 468.135C137.982 472.368 126.236 475.084 115.335 476.283C106.874 473.064 99.7133 467.502 93.8515 459.595C90.1002 447.881 86.9017 435.17 84.2558 421.462C81.4315 408.089 77.8964 395.992 73.6506 385.17C67.0972 378.512 59.2331 374.217 50.0585 372.287C51.1552 363.268 52.1923 354.212 53.1698 345.119C54.7388 336.362 56.8926 327.925 59.631 319.808C63.8472 312.518 68.788 305.626 74.4535 299.132C81.2003 293.245 88.1832 287.488 95.4022 281.863C102.38 276.096 108.898 270.078 114.956 263.809C119.66 256.782 123.607 249.339 126.797 241.48C128.689 232.895 130.181 224.091 131.272 215.068C132.256 205.979 133.538 197.059 135.118 188.308C137.871 180.207 141.366 172.513 145.603 165.227C151.282 158.748 157.5 152.564 164.256 146.674C171.481 141.052 178.576 135.354 185.542 129.58C191.589 123.305 196.956 116.649 201.642 109.612C204.814 101.743 207.336 93.5145 209.209 84.9253C210.297 75.8939 211.334 66.8379 212.32 57.7574C213.91 49.0039 216.093 40.5831 218.869 32.4948C223.123 25.2184 228.096 18.3441 233.787 11.8718Z" stroke="#D3D3D3" stroke-opacity="0.25" stroke-width="2" stroke-linecap="round" stroke-dasharray="4 5"/>
<path opacity="0.33" d="M261.347 17.5814C267.388 22.6498 272.758 28.7132 277.458 35.7715C281.219 44.2401 284.817 52.9477 288.251 61.8944C292.042 70.3187 296.312 78.0241 301.059 85.0104C307.167 89.9792 313.992 93.8717 321.534 96.6881C330.292 97.7029 339.409 98.1834 348.883 98.1294C358.404 97.9942 367.62 98.3205 376.53 99.1082C384.284 101.609 391.33 105.172 397.668 109.798C402.608 116.496 407.034 123.969 410.944 132.216C414.385 141.151 417.94 149.923 421.609 158.53C426.126 165.859 431.292 172.227 437.107 177.634C444.373 180.875 452.278 183.156 460.822 184.477C470.2 184.567 479.672 184.511 489.237 184.309C498.322 184.837 506.873 186.154 514.891 188.262C521.522 192.45 527.44 197.696 532.644 204.002C536.721 212 540.5 220.436 543.982 229.311C547.551 238.067 551.487 246.275 555.791 253.936C549.855 260.205 545.812 267.74 543.662 276.54C544.747 287.516 546.852 299.176 549.975 311.518C553.514 324.139 556.407 336.323 558.654 348.07C558.167 357.992 555.872 366.703 551.768 374.202C543.922 379.191 534.526 383.138 523.582 386.043C510.812 387.733 497.96 389.367 485.024 390.945C473.616 393.547 463.66 397.122 455.154 401.67C450.34 408.684 447.371 416.939 446.247 426.435C448.069 437.905 450.692 449.912 454.114 462.455C457.452 474.933 459.91 486.825 461.489 498.132C460.01 507.39 456.663 515.395 451.447 522.148C442.601 526.46 432.361 529.841 420.727 532.291C407.73 533.828 394.902 535.479 382.243 537.243C371.561 540.332 362.484 544.492 355.012 549.725C351.297 557.483 349.361 566.435 349.207 576.58C350.808 577.076 349.79 565.478 346.151 541.787C341.645 533.566 335.829 527.3 328.703 522.989C319.001 522.521 308.325 523.511 296.675 525.96C284.122 529.745 271.745 533.267 259.545 536.525C248.877 537.497 239.392 536.705 231.089 534.15C225.462 527.601 221.031 519.269 217.794 509.155C216.132 496.692 214.672 483.927 213.414 470.861C211.306 459.063 208.238 448.696 204.211 439.761C197.632 434.645 189.735 431.49 180.519 430.297C169.183 432.265 157.28 435.081 144.808 438.744C132.437 442.258 120.723 444.791 109.665 446.344C100.843 444.564 93.3507 440.798 87.1894 435.047C83.5224 425.575 80.7426 414.779 78.8499 402.66C77.6161 389.569 76.0788 376.926 74.2381 364.729C70.6677 355.112 65.8594 347.343 59.8132 341.42C61.2639 332.826 62.9122 324.368 64.758 316.046C67.5397 308.352 70.9554 301.083 75.0052 294.239C80.4099 288.295 86.3859 282.738 92.9332 277.568C100.189 272.873 107.504 268.217 114.876 263.6C121.77 258.654 128.162 253.376 134.05 247.764C138.643 241.284 142.565 234.354 145.817 226.975C147.983 218.86 149.83 210.536 151.36 202.003C152.863 193.451 154.652 185.088 156.729 176.913C159.854 169.449 163.641 162.429 168.089 155.852C173.861 150.162 180.15 144.815 186.956 139.81C194.312 135.182 201.637 130.533 208.932 125.864C215.573 120.757 221.66 115.274 227.192 109.416C231.386 102.668 234.935 95.4879 237.838 87.8754C239.756 79.6022 241.446 71.1722 242.907 62.5854C244.515 54.1043 246.488 45.8682 248.827 37.8771C252.323 30.6618 256.496 23.8965 261.347 17.5814Z" stroke="#D3D3D3" stroke-opacity="0.25" stroke-width="2" stroke-linecap="round" stroke-dasharray="7 8"/>
<path opacity="0.37" d="M286.709 29.1274C290.683 35.962 294.132 43.4525 297.057 51.5989C299.495 60.3543 302.017 69.003 304.625 77.5449C308.033 85.0875 312.074 91.8389 316.748 97.799C322.901 101.911 329.754 105.149 337.306 107.512C345.904 108.569 354.743 109.324 363.824 109.777C372.722 110.459 381.217 111.643 389.311 113.33C396.139 116.599 402.225 120.794 407.569 125.916C411.515 132.788 414.941 140.307 417.849 148.474C420.282 157.234 422.809 165.878 425.43 174.404C428.863 181.916 432.931 188.633 437.634 194.557C443.82 198.628 450.704 201.826 458.285 204.153C466.904 205.184 475.754 205.926 484.834 206.379C493.72 207.076 502.199 208.281 510.272 209.994C517.066 213.305 523.116 217.54 528.422 222.699C532.338 229.607 535.742 237.155 538.633 245.343C541.062 254.108 543.593 262.747 546.226 271.257C543.069 278.917 541.306 287.693 540.938 297.585C542.507 309.026 544.445 320.763 546.753 332.796C548.452 344.342 549.232 355.152 549.093 365.228C546.227 373.12 541.802 379.765 535.818 385.163C526.908 388.22 516.895 390.394 505.779 391.684C493.595 392.121 481.544 392.664 469.626 393.314C459.248 395.196 450.144 398.097 442.312 402.016C437.545 408.388 434.299 415.977 432.573 424.781C433.278 435.531 434.674 446.835 436.764 458.693C438.941 470.622 440.505 482.06 441.454 493.005C440.077 502.089 437.207 509.975 432.846 516.663C425.384 520.878 416.602 524.037 406.5 526.14C394.707 526.889 382.697 527.465 370.472 527.869C359.153 528.997 348.874 530.959 339.636 533.753C333.257 538.834 328.441 545.167 325.19 552.751C325.073 550.635 323.538 539.242 320.585 518.572C315.375 512.781 308.846 508.637 300.999 506.14C290.882 506.48 280.034 507.729 268.454 509.887C256.537 512.476 245.033 514.55 233.942 516.108C224.691 515.366 216.684 513.07 209.92 509.22C205.793 502.075 202.796 493.512 200.929 483.531C200.509 471.754 200.255 459.768 200.168 447.574C199.24 436.431 197.384 426.447 194.602 417.62C189.329 411.898 182.741 407.822 174.84 405.393C164.677 405.79 153.798 407.083 142.202 409.271C130.29 411.855 118.802 413.903 107.739 415.416C98.5382 414.611 90.5851 412.247 83.8795 408.324C79.8104 401.106 76.866 392.483 75.0462 382.455C74.6468 370.651 74.3968 358.655 74.2962 346.467C73.3386 335.361 71.4439 325.426 68.612 316.662C70.8275 308.804 73.4156 301.248 76.3765 293.995C80.4149 287.604 85.0513 281.687 90.2859 276.244C96.6146 271.686 103.344 267.443 110.473 263.517C117.942 259.871 125.329 256.155 132.635 252.37C139.292 248.074 145.444 243.374 151.09 238.27C155.56 232.215 159.455 225.705 162.775 218.739C165.214 211.059 167.412 203.191 169.368 195.134C171.366 187.11 173.629 179.294 176.157 171.685C179.612 164.827 183.65 158.432 188.27 152.498C194.057 147.506 200.331 142.904 207.092 138.691C214.451 134.948 221.856 131.247 229.309 127.588C236.355 123.595 242.98 119.269 249.184 114.611C254.269 109.057 258.757 103.021 262.648 96.5041C265.495 89.1591 267.992 81.5303 270.14 73.6177C272.054 65.5271 274.107 57.5469 276.297 49.677C279.236 42.3976 282.707 35.5477 286.709 29.1274Z" stroke="#D3D3D3" stroke-opacity="0.25" stroke-width="2" stroke-linecap="round" stroke-dasharray="7 9"/>
<path opacity="0.41" d="M309.101 46.406C311.236 54.296 313.087 62.4811 314.653 70.9613C316.279 79.388 318.233 87.4643 320.515 95.1901C323.954 101.707 328.106 107.467 332.971 112.47C339.319 115.921 346.287 118.718 353.874 120.863C362.259 122.158 370.752 123.343 379.354 124.419C387.537 125.926 395.241 127.943 402.466 130.47C408.345 134.404 413.482 139.127 417.875 144.638C420.896 151.585 423.412 159.069 425.423 167.09C426.962 175.608 428.574 184.045 430.259 192.399C432.688 199.98 435.721 206.919 439.356 213.219C444.451 217.99 450.272 221.992 456.817 225.225C464.56 227.206 472.661 228.809 481.12 230.035C489.693 231.131 498.019 232.493 506.097 234.12C513.138 236.831 519.491 240.273 525.155 244.444C529.327 250.177 532.835 256.617 535.677 263.762C537.583 271.894 539.293 280.226 540.809 288.76C539.5 297.683 539.022 307.398 539.372 317.905C540.511 329.159 541.531 340.297 542.433 351.317C542.116 361.191 540.801 370.117 538.487 378.095C533.73 383.746 527.722 388.214 520.461 391.497C511.057 392.748 500.938 393.315 490.103 393.198C478.771 392.617 467.704 392.289 456.903 392.214C447.572 393.524 439.322 395.864 432.153 399.235C427.484 404.978 424.04 411.88 421.823 419.941C421.564 429.869 421.898 440.36 422.824 451.413C423.953 462.649 424.671 473.5 424.978 483.965C423.588 492.82 421.044 500.58 417.347 507.246C411.125 511.507 403.731 514.659 395.165 516.704C384.823 517.064 374.032 516.993 362.791 516.491C351.642 516.085 341.039 516.197 330.983 516.829C322.837 519.263 315.895 522.845 310.157 527.574C306.355 523.387 302.372 512.916 298.208 496.162C292.03 492.367 284.666 489.823 276.115 488.528C265.799 489.105 255.048 490.134 243.863 491.615C232.885 492.879 222.525 493.492 212.781 493.455C205.084 491.261 198.633 487.754 193.428 482.934C190.729 475.474 189.069 466.923 188.449 457.281C189.1 446.291 189.879 435.165 190.786 423.904C190.877 413.504 190.101 404.017 188.457 395.445C184.463 389.348 179.189 384.601 172.635 381.203C163.778 380.242 154.092 380.149 143.577 380.924C132.356 382.444 121.318 383.77 110.464 384.903C100.982 384.591 92.5672 383.153 85.2191 380.592C80.4044 375.37 76.8195 368.848 74.4643 361.025C74.087 351.118 74.2764 340.614 75.0326 329.512C75.8852 318.309 76.2558 307.613 76.1447 297.426C79.3963 290.677 83.0976 284.356 87.2486 278.461C92.4248 273.539 98.0943 269.085 104.257 265.1C111.203 261.848 118.369 258.809 125.755 255.985C133.185 253.201 140.426 250.239 147.479 247.097C153.815 243.277 159.671 239 165.046 234.266C169.39 228.555 173.268 222.396 176.679 215.789C179.393 208.532 181.939 201.113 184.315 193.534C186.779 186.038 189.481 178.769 192.423 171.727C196.168 165.446 200.411 159.639 205.152 154.304C210.918 149.932 217.124 145.983 223.771 142.456C231.017 139.498 238.369 136.641 245.828 133.886C253.088 130.941 260.056 127.72 266.731 124.22C272.531 119.89 277.824 115.074 282.608 109.771C286.391 103.527 289.766 96.896 292.733 89.8768C295.206 82.3896 297.628 74.8542 299.999 67.2707C302.695 59.9945 305.729 53.0397 309.101 46.406Z" stroke="#D3D3D3" stroke-opacity="0.25" stroke-width="2" stroke-linecap="round" stroke-dasharray="6 4"/>
<path opacity="0.45" d="M327.881 68.6129C328.661 76.7897 329.45 84.9623 330.25 93.1307C331.621 100.79 333.517 107.978 335.935 114.697C339.712 120.215 344.217 125.086 349.448 129.31C356 132.35 363.052 134.95 370.604 137.108C378.655 138.814 386.678 140.549 394.674 142.314C402.052 144.628 408.89 147.418 415.188 150.684C420.115 155.178 424.316 160.319 427.79 166.108C429.954 173.053 431.64 180.427 432.847 188.232C433.597 196.445 434.396 204.609 435.246 212.724C436.757 220.258 438.824 227.299 441.446 233.845C445.448 239.154 450.177 243.821 455.632 247.846C462.373 250.727 469.574 253.193 477.237 255.245C485.322 256.93 493.332 258.681 501.268 260.498C508.497 262.935 515.158 265.883 521.251 269.34C525.95 274.038 529.924 279.377 533.174 285.355C535.159 292.469 536.703 299.975 537.806 307.873C537.272 317.512 537.071 327.53 537.203 337.926C537.25 348.218 536.885 358.047 536.108 367.413C533.882 375.16 530.727 381.858 526.644 387.509C520.562 390.913 513.544 393.272 505.592 394.584C496.199 394.268 486.394 393.49 476.177 392.248C465.872 390.906 455.898 389.943 446.257 389.358C437.937 390.247 430.512 392.143 423.982 395.044C419.447 400.196 415.871 406.422 413.254 413.721C412.198 422.773 411.632 432.375 411.555 442.528C411.735 452.978 411.665 463.143 411.345 473.022C409.841 481.571 407.482 489.164 404.267 495.8C399.084 500.215 392.92 503.527 385.775 505.737C376.967 506.088 367.596 505.802 357.663 504.879C347.299 503.472 337.105 502.255 327.078 501.227C318.088 501.374 309.905 502.423 302.529 504.373C295.924 506.789 291.872 502.912 290.372 492.743C287.938 486.137 284.303 480.599 279.469 476.129C272.318 473.719 264.226 472.153 255.192 471.428C244.994 471.731 234.669 472.147 224.216 472.677C214.461 472.585 205.473 471.816 197.251 470.37C191.161 467.016 186.272 462.595 182.583 457.106C181.194 449.569 180.722 441.216 181.166 432.048C182.711 421.91 184.34 411.692 186.054 401.394C187.006 391.774 187.162 382.863 186.52 374.662C183.717 368.393 179.709 363.192 174.495 359.059C167.006 356.951 158.621 355.641 149.339 355.128C139.045 355.525 128.697 355.966 118.294 356.451C108.729 356.191 99.9869 355.198 92.0694 353.472C86.3577 349.791 81.8464 345.038 78.5356 339.211C77.4758 331.382 77.2851 322.779 77.9634 313.403C79.5974 303.185 81.2441 292.952 82.9035 282.702C87.2542 277.402 92.0396 272.586 97.2595 268.253C103.317 264.861 109.725 261.868 116.482 259.272C123.692 257.175 130.977 255.163 138.338 253.235C145.503 251.098 152.426 248.685 159.109 245.995C165.069 242.494 170.599 238.514 175.699 234.056C179.952 228.637 183.834 222.8 187.343 216.545C190.329 209.711 193.211 202.756 195.989 195.679C198.877 188.726 201.976 182.015 205.285 175.545C209.278 169.833 213.684 164.586 218.506 159.804C224.195 156.009 230.274 152.647 236.744 149.718C243.79 147.437 250.978 145.315 258.307 143.353C265.601 141.36 272.715 139.16 279.65 136.755C285.96 133.647 291.863 130.085 297.357 126.071C301.983 121.07 306.208 115.619 310.032 109.717C313.217 103.108 316.227 96.2971 319.063 89.2847C321.858 82.2276 324.798 75.337 327.881 68.6129Z" stroke="#D3D3D3" stroke-opacity="0.25" stroke-width="2" stroke-linecap="round" stroke-dasharray="10 10"/>
<path opacity="0.49" d="M342.746 94.3257C342.845 102.131 343.218 109.735 343.865 117.138C345.49 123.801 347.749 129.992 350.643 135.713C354.92 140.389 359.858 144.574 365.457 148.268C372.13 151.15 379.146 153.778 386.506 156.154C394.063 158.381 401.461 160.724 408.7 163.182C415.163 166.229 421.053 169.7 426.371 173.597C430.337 178.514 433.613 183.944 436.199 189.887C437.572 196.747 438.5 203.935 438.983 211.453C439.027 219.308 439.104 227.134 439.214 234.931C439.888 242.314 441.051 249.327 442.702 255.969C445.633 261.662 449.256 266.832 453.57 271.48C459.207 275.147 465.374 278.415 472.072 281.286C479.439 283.648 486.901 285.943 494.458 288.171C501.68 290.64 508.51 293.409 514.947 296.476C520.227 300.4 524.831 304.835 528.76 309.78C531.314 315.747 533.263 322.171 534.61 329.05C533.914 338.575 533.187 348.057 532.428 357.497C531.065 366.131 529.175 374.055 526.758 381.271C522.95 386.639 518.372 390.98 513.024 394.294C506.187 395.609 498.712 396.077 490.599 395.698C481.611 394.151 472.433 392.35 463.065 390.297C453.874 388.468 445.026 387.103 436.521 386.202C429.152 386.816 422.5 388.383 416.566 390.903C412.17 395.487 408.509 401.052 405.584 407.6C403.861 415.753 402.537 424.433 401.611 433.639C400.956 443.218 400.166 452.617 399.243 461.838C397.538 470.003 395.228 477.368 392.315 483.931C387.939 488.542 382.792 492.118 376.874 494.66C369.516 495.289 361.591 495.162 353.098 494.276C343.906 492.457 334.629 490.519 325.266 488.461C316.27 486.903 307.709 485.927 299.584 485.532C290.182 484.578 283.37 479.81 279.149 471.227C275.279 466.538 270.322 462.662 264.28 459.6C256.388 457.915 247.866 456.706 238.713 455.973C229.037 455.633 219.508 455.182 210.126 454.621C201.816 453.257 194.36 451.254 187.757 448.611C183.263 444.389 179.878 439.336 177.603 433.452C177.366 426.042 177.92 418.039 179.262 409.445C181.502 400.18 183.794 390.875 186.14 381.53C187.782 372.712 188.711 364.428 188.928 356.678C187.197 350.386 184.368 344.917 180.439 340.272C174.338 337.254 167.325 334.918 159.399 333.267C150.219 332.554 140.789 332.03 131.108 331.693C121.747 331.116 112.93 330.132 104.658 328.74C98.1089 326.057 92.6165 322.583 88.1805 318.317C85.9697 312.385 84.7699 305.696 84.5813 298.249C85.9562 289.631 87.7712 280.684 90.0265 271.406C95.3301 267.767 100.982 264.592 106.981 261.881C113.559 259.944 120.34 258.276 127.322 256.878C134.48 255.715 141.593 254.497 148.662 253.226C155.413 251.518 161.899 249.458 168.122 247.046C173.685 243.754 178.891 239.984 183.739 235.736C187.907 230.591 191.799 225.073 195.416 219.182C198.669 212.805 201.861 206.346 204.99 199.804C208.244 193.427 211.681 187.296 215.302 181.41C219.477 176.276 223.993 171.59 228.849 167.353C234.42 164.071 240.322 161.23 246.552 158.828C253.307 157.126 260.223 155.64 267.301 154.37C274.45 153.205 281.515 151.923 288.498 150.525C295.072 148.583 301.353 146.248 307.34 143.521C312.636 139.871 317.578 135.749 322.166 131.155C326.106 125.705 329.802 119.925 333.255 113.816C336.433 107.338 339.596 100.841 342.746 94.3257Z" stroke="#D3D3D3" stroke-opacity="0.25" stroke-width="2" stroke-linecap="round" stroke-dasharray="5 1"/>
<path opacity="0.53" d="M353.837 121.737C353.945 128.728 354.522 135.431 355.566 141.846C357.795 147.513 360.67 152.775 364.193 157.633C368.966 161.711 374.277 165.455 380.127 168.867C386.72 171.806 393.491 174.635 400.44 177.352C407.304 180.122 413.907 183.059 420.25 186.163C425.7 189.816 430.572 193.832 434.864 198.209C437.872 203.389 440.244 208.97 441.978 214.954C442.612 221.617 442.844 228.531 442.675 235.696C442.094 243.119 441.528 250.535 440.978 257.946C440.889 265.061 441.217 271.915 441.964 278.508C443.848 284.39 446.372 289.876 449.537 294.966C453.975 299.252 458.98 303.184 464.549 306.763C470.973 309.809 477.635 312.709 484.537 315.463C491.463 318.195 498.192 321.05 504.723 324.028C510.451 327.508 515.635 331.332 520.275 335.5C523.64 340.457 526.36 345.816 528.435 351.579C526.951 360.061 525.228 368.165 523.265 375.893C520.503 382.344 517.231 387.977 513.448 392.793C508.518 395.772 503.021 397.839 496.959 398.994C489.88 398.535 482.414 397.457 474.562 395.761C466.261 393.346 457.922 390.864 449.546 388.316C441.464 386.252 433.705 384.705 426.27 383.675C414.928 387.264 405.264 393.531 397.277 402.476C395.017 409.729 393.065 417.474 391.419 425.71C390.048 434.373 388.614 442.942 387.118 451.416C385.14 459.121 382.764 466.188 379.988 472.615C376.185 477.398 371.81 481.259 366.863 484.201C360.774 485.325 354.181 485.644 347.085 485.157C339.222 483.444 331.136 481.374 322.828 478.948C314.455 476.405 306.231 474.107 298.156 472.054C286.841 468.363 277.586 462.873 270.39 455.586C265.139 452.201 259.036 449.348 252.083 447.027C243.903 445.472 235.409 444.113 226.601 442.951C217.85 441.753 209.463 440.327 201.441 438.673C190.768 432.01 182.951 423.562 177.988 413.331C178.735 406.198 180.135 398.657 182.188 390.708C184.959 382.31 187.746 373.902 190.551 365.483C192.723 357.459 194.273 349.825 195.2 342.579C190.696 332.061 183.319 323.338 173.07 316.409C165.173 314.678 156.877 313.196 148.182 311.962C139.346 310.818 130.781 309.503 122.488 308.019C115.365 305.804 109.065 303.074 103.587 299.831C100.054 295.372 97.5188 290.29 95.9816 284.584C100.115 272.882 107.29 263.997 117.506 257.927C124.211 257.221 130.989 256.633 137.842 256.163C144.657 255.647 151.363 254.95 157.961 254.074C164.183 252.607 170.158 250.74 175.888 248.473C181.059 245.313 185.946 241.705 190.55 237.649C194.654 232.781 198.559 227.601 202.265 222.109C205.74 216.235 209.187 210.316 212.606 204.351C216.15 198.599 219.846 193.086 223.696 187.811C227.991 183.248 232.55 179.115 237.372 175.409C242.769 172.611 248.434 170.246 254.366 168.316C260.756 167.106 267.304 166.151 274.012 165.45C280.862 164.99 287.696 164.497 294.514 163.971C301.108 163.089 307.511 161.906 313.722 160.423C319.441 158.139 324.879 155.412 330.037 152.244C334.636 148.168 338.984 143.69 343.081 138.811C346.78 133.308 350.365 127.616 353.837 121.737Z" stroke="#D3D3D3" stroke-opacity="0.25" stroke-width="2" stroke-linecap="round" stroke-dasharray="2 8"/>
<path opacity="0.56" d="M361.767 148.949C364.23 160.364 369.008 170.594 376.101 179.64C387.058 186.696 398.82 193.342 411.387 199.579C422.679 206.47 432.134 214.3 439.752 223.07C442.746 234.219 443.844 246.338 443.045 259.427C440.773 273.279 439.212 286.767 438.363 299.889C441.271 311.075 446.491 321.078 454.022 329.899C465.267 336.815 477.172 343.388 489.736 349.619C500.755 356.65 509.851 364.664 517.024 373.662C511.355 385.803 504.222 395.098 495.626 401.548C483.808 401.708 470.814 399.576 456.644 395.151C441.838 389.486 427.689 385.103 414.197 382C403.497 384.337 394.419 389.842 386.964 398.517C382.056 412.14 377.602 426.648 373.601 442.039C368.548 455.378 362.176 466.149 354.486 474.351C343.533 476.211 331.229 475.429 317.573 472.006C302.745 466.3 288.31 461.359 274.268 457.184C266.424 449.347 255.716 442.98 242.143 438.084C226.245 434.381 211.339 430.165 197.425 425.436C189.048 417.873 184.129 408.536 182.668 397.424C186.811 383.435 192.017 368.902 198.284 353.824C202.35 339.875 203.59 327.377 202.004 316.329C193.497 308.833 182.25 302.739 168.265 298.047C152.367 294.343 137.673 290.022 124.183 285.083C116.47 277.18 112.212 267.503 111.409 256.053C123.882 255.579 136.562 255.501 149.449 255.819C161.724 254.945 173.296 252.701 184.165 249.086C193.335 242.162 201.816 233.902 209.607 224.306C216.86 213.645 224.347 203.441 232.068 193.693C241.113 186.526 251.007 181.011 261.747 177.147C273.931 176.11 286.462 175.741 299.34 176.041C311.882 175.689 323.813 174.144 335.133 171.408C344.775 165.403 353.653 157.917 361.767 148.949Z" stroke="#D3D3D3" stroke-opacity="0.25" stroke-width="2" stroke-linecap="round" stroke-dasharray="9 6"/>
<path opacity="0.6" d="M367.477 174.262C371.657 183.911 377.809 192.746 385.933 200.767C396.649 207.731 407.55 214.615 418.634 221.42C427.759 229.037 435.066 237.402 440.553 246.513C441.894 257.321 441.605 268.802 439.686 280.956C436.445 293.646 433.736 306.122 431.558 318.382C432.47 329.374 435.434 339.518 440.45 348.816C449.236 356.573 459.121 363.878 470.102 370.733C480.971 377.626 490.656 385.01 499.159 392.883C491.671 400.269 483.068 404.934 473.352 406.879C461.615 403.924 449.288 399.532 436.371 393.703C423.474 387.924 411.18 383.612 399.489 380.768C389.827 382.863 381.281 387.675 373.851 395.203C368.178 406.99 362.867 419.669 357.92 433.24C352.466 445.578 346.218 455.983 339.175 464.454C329.941 467.592 319.647 468.149 308.293 466.125C295.538 460.69 282.655 454.945 269.644 448.888C259.397 442.453 247.438 436.72 233.768 431.691C219.942 426.718 207.698 421.099 197.038 414.834C191.816 406.334 189.559 396.612 190.267 385.669C195.436 372.9 201.369 359.814 208.065 346.411C212.864 333.794 215.304 322.147 215.386 311.468C209.495 303.235 200.973 296.088 189.819 290.024C175.841 285.122 162.13 280.106 148.686 274.976C142.906 264.522 147.848 257.929 163.512 255.199C174.473 254.386 184.851 252.148 194.646 248.484C203.23 241.888 211.375 234.221 219.079 225.485C226.506 216.07 234.136 207.144 241.971 198.707C250.768 192.629 260.179 188.045 270.204 184.957C281.349 184.595 292.831 185.043 304.648 186.3C316.469 187.584 327.965 188.076 339.136 187.775C349.196 184.774 358.643 180.269 367.477 174.262Z" stroke="#D3D3D3" stroke-opacity="0.25" stroke-width="2" stroke-linecap="round" stroke-dasharray="9 6"/>
<path opacity="0.64" d="M372.001 196.518C377.749 204.814 384.896 212.672 393.442 220.092C403.253 227.107 412.749 234.224 421.932 241.443C428.766 249.396 433.894 257.89 437.316 266.926C437.17 277.08 435.66 287.668 432.788 298.688C428.763 310.065 425.107 321.329 421.822 332.48C420.963 342.858 421.834 352.695 424.436 361.989C430.571 370.163 438.036 377.92 446.831 385.262C446.585 396.342 435.608 398.22 413.901 390.895C402.825 385.454 392.226 381.522 382.103 379.101C373.341 380.997 365.289 385.157 357.948 391.582C351.738 401.572 345.799 412.423 340.132 424.136C334.283 435.27 328.003 445.048 321.291 453.47C313.269 457.712 304.527 459.671 295.065 459.348C284.402 455.216 273.41 450.049 262.087 443.847C250.849 437.8 239.016 431.94 226.588 426.268C215.621 420.129 206.502 413.41 199.231 406.112C196.9 397.256 196.979 387.641 199.468 377.266C205.345 365.822 211.741 354.215 218.655 342.444C223.96 331.181 227.361 320.518 228.858 310.456C225.383 301.961 219.523 294.218 211.279 287.227C199.767 281.266 187.816 275.44 175.424 269.749C166.782 260.941 168.615 255.812 180.922 254.364C190.544 253.267 199.744 250.831 208.522 247.056C216.534 240.853 224.296 233.856 231.807 226.063C239.212 217.933 246.775 210.306 254.496 203.181C262.876 198.141 271.671 194.421 280.882 192.02C290.888 192.144 301.17 193.148 311.726 195.035C322.466 197.485 333.083 199.544 343.578 201.213C353.46 200.942 362.935 199.377 372.001 196.518Z" stroke="#D3D3D3" stroke-opacity="0.25" stroke-width="2" stroke-linecap="round"/>
<path opacity="0.68" d="M376.246 215.159C382.927 222.568 390.361 229.803 398.549 236.867C406.848 243.905 414.496 251.089 421.493 258.42C426.054 266.305 429.097 274.528 430.625 283.088C429.212 292.309 426.694 301.778 423.07 311.496C418.472 321.439 414.107 331.327 409.976 341.159C407.653 350.585 406.706 359.701 407.134 368.508C410.64 376.63 415.505 384.443 421.729 391.948C420.016 398.127 409.483 396.169 390.132 386.074C380.707 381.291 371.606 377.934 362.83 376.005C354.864 377.714 347.307 381.243 340.16 386.594C333.667 394.859 327.351 403.907 321.211 413.74C315.052 423.488 308.699 432.37 302.151 440.388C294.923 445.381 287.283 448.54 279.231 449.864C270.372 447.598 261.204 443.96 251.728 438.949C241.128 432.709 230.806 426.409 220.76 420.05C213.081 413.153 207.24 405.846 203.237 398.129C203.389 389.472 205.392 380.402 209.247 370.919C215.547 360.887 222.162 350.78 229.091 340.6C234.702 330.722 238.822 321.176 241.452 311.962C240.116 303.646 236.737 295.786 231.315 288.381C222.603 281.723 213.012 275.259 202.542 268.988C201.566 258.897 209.433 251.14 226.144 245.717C233.579 240.007 240.898 233.761 248.099 226.976C255.281 220.142 262.573 213.792 269.974 207.926C277.779 203.862 285.84 200.92 294.156 199.098C302.972 199.529 311.986 200.841 321.198 203.035C330.625 206.157 340.038 209.228 349.435 212.247C358.585 214.167 367.522 215.138 376.246 215.159Z" stroke="#D3D3D3" stroke-opacity="0.25" stroke-width="2" stroke-linecap="round" stroke-dasharray="2 1"/>
<path opacity="0.72" d="M380.705 230.323C387.397 237.142 394.267 243.935 401.315 250.705C407.663 257.57 413.196 264.548 417.913 271.638C420.352 279.048 421.526 286.629 421.435 294.38C419.02 302.451 415.745 310.641 411.612 318.948C406.673 327.366 401.863 335.767 397.182 344.15C393.763 352.359 391.367 360.428 389.994 368.355C391.092 375.943 393.428 383.361 397.002 390.608C393.46 393.673 383.319 389.731 366.577 378.784C358.611 374.833 350.818 372.143 343.199 370.715C335.974 372.2 328.948 375.105 322.12 379.429C315.608 386.045 309.187 393.349 302.857 401.339C296.565 409.56 290.208 417.306 283.785 424.575C277.085 429.871 270.203 433.826 263.14 436.44C255.672 436.108 248.013 434.416 240.164 431.364C231.61 424.856 223.853 418.241 216.892 411.521C212.56 404.438 209.838 397.131 208.728 389.599C210.842 381.63 214.292 373.473 219.08 365.13C225.519 356.565 232.121 347.979 238.884 339.37C244.596 330.899 249.192 322.585 252.673 314.428C253.115 306.682 251.909 299.166 249.056 291.881C243.231 285.004 236.339 278.27 228.38 271.68C226.443 260.439 232.612 251.741 246.886 245.584C253.734 240.477 260.538 235.055 267.3 229.32C274.083 223.744 280.928 218.613 287.834 213.928C294.946 210.742 302.185 208.481 309.552 207.145C317.181 207.717 324.926 209.108 332.787 211.317C340.795 214.643 348.831 218.171 356.895 221.9C364.906 225.253 372.843 228.06 380.705 230.323Z" stroke="#D3D3D3" stroke-opacity="0.25" stroke-width="2" stroke-linecap="round" stroke-dasharray="1 1"/>
<path opacity="0.76" d="M385.264 242.636C391.022 248.957 396.558 255.289 401.871 261.633C406.058 268.036 409.427 274.482 411.977 280.971C412.582 287.561 412.203 294.204 410.838 300.898C407.722 307.677 403.97 314.492 399.583 321.345C394.563 328.23 389.589 335.113 384.663 341.994C380.542 348.832 377.13 355.633 374.427 362.398C373.541 369.066 373.654 375.679 374.765 382.237C369.205 383.643 359.32 379.221 345.111 368.971C338.408 365.917 331.76 363.896 325.166 362.906C318.688 364.147 312.267 366.443 305.9 369.794C299.631 374.889 293.389 380.55 287.173 386.777C280.978 393.411 274.773 399.848 268.558 406.088C262.283 411.19 255.963 415.43 249.598 418.808C243.122 420.069 236.587 420.214 229.994 419.244C224.369 412.797 219.706 406.299 216.004 399.75C214.68 393.07 214.617 386.327 215.815 379.522C219.311 372.596 223.699 365.62 228.978 358.594C235.277 351.522 241.635 344.443 248.053 337.357C253.666 330.32 258.476 323.326 262.484 316.373C264.295 309.529 264.862 302.753 264.183 296.046C261.054 289.461 256.887 282.934 251.681 276.464C250.922 264.013 256.777 254.4 269.246 247.625C275.477 243.226 281.698 238.688 287.909 234.01C294.141 229.617 300.39 225.615 306.656 222.002C312.992 219.587 319.366 217.905 325.778 216.954C332.264 217.536 338.791 218.826 345.357 220.825C351.983 223.949 358.624 227.423 365.28 231.246C371.951 235.229 378.612 239.026 385.264 242.636Z" stroke="#D3D3D3" stroke-opacity="0.25" stroke-width="2" stroke-linecap="round" stroke-dasharray="3 6"/>
<path opacity="0.8" d="M389.186 253.033C396.574 264.388 401.645 275.67 404.401 286.877C401.321 297.897 395.848 308.844 387.982 319.718C378.265 330.526 369.44 341.363 361.509 352.228C354.145 363.478 342.843 365.117 327.604 357.146C316.356 354.311 305.01 354.608 293.568 358.037C281.962 366.37 270.332 375.573 258.677 385.645C247.08 393.692 235.568 399.203 224.14 402.179C220.84 390.474 221.104 378.883 224.933 367.406C234.546 356.121 245.248 344.868 257.04 333.646C266.573 322.352 273.187 310.968 276.883 299.494C273.455 287.785 267.203 275.985 258.125 264.095C269.084 262.018 280.102 258.095 291.179 252.327C302.303 245.079 313.407 238.468 324.49 232.492C335.46 230.075 346.357 229.941 357.18 232.088C367.878 238.147 378.547 245.128 389.186 253.033Z" stroke="#D3D3D3" stroke-opacity="0.25" stroke-width="2" stroke-linecap="round" stroke-dasharray="6 2"/>
<path opacity="0.84" d="M391.22 262.396C394.677 271.929 396.174 281.229 395.711 290.297C391.176 298.895 385.078 307.307 377.418 315.533C368.439 323.612 359.885 331.738 351.755 339.909C346.405 348.412 343.035 357.143 341.645 366.102C333.089 357.417 324.372 350.139 315.493 344.269C306.143 342.437 296.542 342.711 286.693 345.091C276.46 350.808 266.133 357.327 255.713 364.646C241.079 368.802 234.72 365.086 236.639 353.497C246.105 344.924 256.07 336.41 266.536 327.955C275.453 319.312 282.522 310.456 287.744 301.387C288.165 291.758 286.275 281.855 282.074 271.678C291.434 268.611 300.91 264.57 310.504 259.557C320.145 254.133 329.715 249.321 339.214 245.122C348.406 243.485 357.412 243.467 366.233 245.068C374.692 249.762 383.021 255.538 391.22 262.396Z" stroke="#D3D3D3" stroke-opacity="0.25" stroke-width="2" stroke-linecap="round" stroke-dasharray="7 5"/>
<path opacity="0.88" d="M389.874 271.413C389.942 278.672 388.663 285.66 386.037 292.379C380.936 298.593 374.921 304.618 367.991 310.454C360.212 316.123 352.566 321.82 345.054 327.544C338.882 333.534 333.801 339.749 329.81 346.189C323.266 340.204 316.493 335.353 309.494 331.636C301.957 330.559 294.157 330.761 286.093 332.243C277.613 335.804 269.004 339.982 260.266 344.776C256.089 341.565 261.724 333.548 277.171 320.723C284.977 314.556 291.741 308.176 297.464 301.585C300.356 294.424 301.714 286.948 301.537 279.156C309.414 275.983 317.362 272.464 325.381 268.598C333.359 264.895 341.238 261.698 349.017 259.008C356.456 257.991 363.683 258.012 370.7 259.072C377.276 262.261 383.667 266.374 389.874 271.413Z" stroke="#D3D3D3" stroke-opacity="0.25" stroke-width="2" stroke-linecap="round" stroke-dasharray="6 2"/>
<path opacity="0.92" d="M383.736 280.28C378.021 289.54 369.888 298.091 359.337 305.933C346.898 313.223 335.365 320.778 324.736 328.598C314.509 323.197 303.46 320.601 291.588 320.811C277.434 324.354 276.668 321.764 289.291 313.042C300.839 304.762 309.712 295.698 315.912 285.851C328.407 280.857 340.708 276.528 352.813 272.864C363.824 272.937 374.131 275.409 383.736 280.28Z" stroke="#D3D3D3" stroke-opacity="0.25" stroke-width="2" stroke-linecap="round"/>
<path opacity="0.96" d="M371.844 288.771C365.707 293.837 358.671 298.558 350.735 302.934C341.957 306.977 333.308 311.071 324.791 315.215C317.674 312.917 310.104 311.78 302.08 311.804C302.13 308.335 309.838 301.59 325.207 291.57C333.805 288.972 342.205 286.885 350.408 285.307C357.959 285.414 365.104 286.569 371.844 288.771Z" stroke="#D3D3D3" stroke-opacity="0.25" stroke-width="2" stroke-linecap="round" stroke-dasharray="2 10"/>
</svg>
