<svg width="270" height="381" viewBox="0 0 270 381" fill="none" xmlns="http://www.w3.org/2000/svg">
<path d="M269.244 74.6866L244.715 349.471L134.457 380.038L24.5033 349.513L0 74.6866H269.244Z" fill="#E44D26"/>
<path d="M134.622 356.673L223.716 331.973L244.676 97.1571H134.622V356.673Z" fill="#F16529"/>
<path d="M86.9387 164.571H134.622V130.865H50.1021L50.9084 139.907L59.1933 232.793H134.622V199.087H90.0195L86.9387 164.571V164.571ZM94.5355 249.647H60.6993L65.4212 302.571L134.467 321.737L134.622 321.695V286.626L134.474 286.665L96.9355 276.529L94.5355 249.647V249.647Z" fill="#EBEBEB"/>
<path d="M25.05 0H42.1791V16.9234H57.8487V0H74.9789V51.2482H57.8497V34.0874H42.1802V51.2482H25.051V0H25.05ZM97.5033 16.9951H82.4258V0H129.723V16.9951H114.636V51.2482H97.5065V16.9951H97.5054H97.5033ZM137.229 0H155.089L166.076 18.0073L177.052 0H194.92V51.2482H177.861V25.8468L166.076 44.0683H165.78L153.988 25.8468V51.2482H137.229V0ZM203.445 0H220.579V34.309H244.667V51.2482H203.443V0H203.445Z" fill="white"/>
<path d="M134.506 232.793H176.011L172.098 276.508L134.505 286.655V321.721L203.605 302.571L204.112 296.876L212.033 208.138L212.856 199.087H134.506V232.793ZM134.506 164.489V164.571H215.923L216.598 156.995L218.135 139.907L218.94 130.865H134.506V164.49V164.489Z" fill="white"/>
</svg>
