<svg width="60" height="60" viewBox="0 0 60 60" fill="none" xmlns="http://www.w3.org/2000/svg">
<rect width="60" height="60" rx="10" fill="#E86A33" fill-opacity="0.7"/>
<path d="M48 14.9862L44.7203 51.7271L29.978 55.8141L15.2762 51.7328L12 14.9862H48Z" fill="#E44D26"/>
<path d="M30 52.6901L41.9125 49.3875L44.7152 17.9907H30V52.6901Z" fill="#F16529"/>
<path d="M23.6244 27.0044H30V22.4976H18.699L18.8069 23.7067L19.9145 36.1263H30V31.6195H24.0362L23.6244 27.0044Z" fill="#EBEBEB"/>
<path d="M24.6401 38.3799H20.116L20.7474 45.4562L29.9793 48.0191L30 48.0133V43.3243L29.9803 43.3296L24.961 41.9743L24.6401 38.3799Z" fill="#EBEBEB"/>
<path d="M15.3495 5H17.6398V7.26282H19.7349V5H22.0253V11.8524H19.735V9.55779H17.6399V11.8524H15.3496L15.3495 5Z" fill="black"/>
<path d="M25.037 7.27234H23.0208V5H29.3447V7.27234H27.3275V11.8524H25.0371L25.037 7.27234Z" fill="black"/>
<path d="M30.3485 5H32.7367L34.2057 7.40771L35.6733 5H38.0623V11.8524H35.7815V8.45595L34.2057 10.8924H34.1663L32.5895 8.45595V11.8524H30.3485V5Z" fill="black"/>
<path d="M39.2021 5H41.4931V9.58736H44.714V11.8524H39.2021V5Z" fill="black"/>
<path d="M29.9845 36.1264H35.5342L35.011 41.9714L29.9845 43.3281V48.0169L39.2237 45.4562L39.2915 44.6948L40.3506 32.8298L40.4605 31.6196H29.9845V36.1264Z" fill="white"/>
<path d="M29.9845 26.9934V27.0044H40.8706L40.961 25.9914L41.1664 23.7067L41.2742 22.4976H29.9845V26.9934Z" fill="white"/>
</svg>
