<svg width="66" height="66" viewBox="0 0 66 66" fill="none" xmlns="http://www.w3.org/2000/svg">
<g clip-path="url(#clip0_442_96)">
<path d="M19.7952 40.342H1.96142C0.908555 40.342 0.0471191 39.4806 0.0471191 38.4277V2.0354C0.0471191 0.982529 0.908555 0.121094 1.96142 0.121094H55.2031C56.256 0.121094 57.1174 0.982529 57.1174 2.0354V3.38211V40.1624L19.7952 40.342Z" fill="#A0758E"/>
<path d="M0 24.2001L24.4238 0.057373C24.4238 0.057373 12.0467 0.057373 11.7809 0.057373L0 11.8381C0 11.8381 0 24.294 0 24.2001Z" fill="#FFEFCA"/>
<path d="M23.5813 40.3193V8.59324C23.5813 7.53782 24.4368 6.68213 25.4924 6.68213H57.135V40.3885L23.5813 40.3193Z" fill="#826075"/>
<path d="M66.0001 10.8223V64.0639C66.0001 65.1168 65.1387 65.9782 64.0858 65.9782H27.6934C26.6405 65.9782 25.7791 65.1168 25.7791 64.0639V10.8223C25.7791 9.7694 26.6405 8.90796 27.6934 8.90796H64.0857C65.1387 8.90796 66.0001 9.7694 66.0001 10.8223Z" fill="#FFEFCA"/>
<path d="M25.7791 27.6662V10.8223C25.7791 9.7694 26.6405 8.90796 27.6934 8.90796H64.0856C65.1385 8.90796 65.9999 9.7694 65.9999 10.8223V27.6662H25.7791Z" fill="#FFF7E6"/>
<path d="M19.6279 49.8726H4.04678C3.38603 49.8726 2.85034 49.3369 2.85034 48.6762C2.85034 48.0154 3.38603 47.4797 4.04678 47.4797H19.6279C20.2887 47.4797 20.8244 48.0154 20.8244 48.6762C20.8244 49.3369 20.2887 49.8726 19.6279 49.8726Z" fill="#6BE8C7"/>
<path d="M19.6279 54.9454H4.04678C3.38603 54.9454 2.85034 54.4097 2.85034 53.7489C2.85034 53.0882 3.38603 52.5525 4.04678 52.5525H19.6279C20.2887 52.5525 20.8244 53.0882 20.8244 53.7489C20.8244 54.4097 20.2887 54.9454 19.6279 54.9454Z" fill="#3CD3A8"/>
<path d="M19.6279 60.0184H4.04678C3.38603 60.0184 2.85034 59.4827 2.85034 58.8219C2.85034 58.1612 3.38603 57.6255 4.04678 57.6255H19.6279C20.2887 57.6255 20.8244 58.1612 20.8244 58.8219C20.8244 59.4827 20.2887 60.0184 19.6279 60.0184Z" fill="#6BE8C7"/>
<path d="M57.2129 40.4378H34.5661C33.9053 40.4378 33.3696 39.9021 33.3696 39.2414C33.3696 38.5806 33.9053 38.0449 34.5661 38.0449H57.213C57.8738 38.0449 58.4095 38.5806 58.4095 39.2414C58.4095 39.9021 57.8736 40.4378 57.2129 40.4378Z" fill="#FCC973"/>
<path d="M57.2129 47.866H34.5661C33.9053 47.866 33.3696 47.3303 33.3696 46.6696C33.3696 46.0088 33.9053 45.4731 34.5661 45.4731H57.213C57.8738 45.4731 58.4095 46.0088 58.4095 46.6696C58.4095 47.3303 57.8736 47.866 57.2129 47.866Z" fill="#FCC973"/>
<path d="M57.2129 55.2942H34.5661C33.9053 55.2942 33.3696 54.7586 33.3696 54.0978C33.3696 53.4371 33.9053 52.9014 34.5661 52.9014H57.213C57.8738 52.9014 58.4095 53.4371 58.4095 54.0978C58.4095 54.7586 57.8736 55.2942 57.2129 55.2942Z" fill="#FCC973"/>
<path d="M45.8896 22.9164C48.4757 22.9164 50.5721 20.8199 50.5721 18.2338C50.5721 15.6477 48.4757 13.5513 45.8896 13.5513C43.3035 13.5513 41.207 15.6477 41.207 18.2338C41.207 20.8199 43.3035 22.9164 45.8896 22.9164Z" fill="#3CD3A8"/>
<path d="M0 24.2001V20.2357L20.5333 0.0214844H24.4238L0 24.2001Z" fill="#FFDFA1"/>
<path d="M66.0001 27.6328V64.064C66.0001 65.1169 65.1386 65.9783 64.0858 65.9783H61.2961V27.6328" fill="#FFDFA1"/>
<path d="M61.2961 27.6327V8.90796H64.0858C65.1386 8.90796 66.0001 9.7694 66.0001 10.8223V27.6327" fill="#FFEFCA"/>
</g>
<defs>
<clipPath id="clip0_442_96">
<rect width="66" height="66" fill="white"/>
</clipPath>
</defs>
</svg>
