<svg width="36" height="36" viewBox="0 0 36 36" fill="none" xmlns="http://www.w3.org/2000/svg">
<path fill-rule="evenodd" clip-rule="evenodd" d="M16.4625 21.765C16.6088 21.6187 16.7248 21.4451 16.804 21.254C16.8831 21.0629 16.9239 20.8581 16.9239 20.6512C16.9239 20.4444 16.8831 20.2396 16.804 20.0485C16.7248 19.8574 16.6088 19.6837 16.4625 19.5375C16.0516 19.1266 15.7256 18.6388 15.5032 18.1019C15.2809 17.565 15.1664 16.9896 15.1664 16.4085C15.1664 15.8274 15.2809 15.252 15.5032 14.7151C15.7256 14.1782 16.0516 13.6904 16.4625 13.2795L21.7665 7.977C22.1774 7.56609 22.6652 7.24014 23.2021 7.01776C23.739 6.79538 24.3144 6.68092 24.8955 6.68092C25.4766 6.68092 26.052 6.79538 26.5889 7.01776C27.1258 7.24014 27.6136 7.56609 28.0245 7.977C28.4354 8.3879 28.7614 8.87572 28.9837 9.41259C29.2061 9.94947 29.3206 10.5249 29.3206 11.106C29.3206 11.6871 29.2061 12.2625 28.9837 12.7994C28.7614 13.3363 28.4354 13.8241 28.0245 14.235L26.385 15.873C26.2387 16.0193 26.1227 16.1929 26.0436 16.384C25.9644 16.5751 25.9237 16.7799 25.9237 16.9867C25.9237 17.1936 25.9644 17.3984 26.0436 17.5895C26.1227 17.7806 26.2387 17.9542 26.385 18.1005C26.6804 18.3959 27.081 18.5618 27.4988 18.5618C27.7056 18.5618 27.9104 18.5211 28.1015 18.4419C28.2926 18.3628 28.4662 18.2468 28.6125 18.1005L30.252 16.4625C31.6726 15.0419 32.4707 13.1151 32.4707 11.106C32.4707 9.09692 31.6726 7.17013 30.252 5.7495C28.8314 4.32886 26.9046 3.53076 24.8955 3.53076C22.8864 3.53076 20.9596 4.32886 19.539 5.7495L14.235 11.052C13.5316 11.7554 12.9735 12.5905 12.5928 13.5096C12.2121 14.4286 12.0162 15.4137 12.0162 16.4085C12.0162 17.4033 12.2121 18.3884 12.5928 19.3074C12.9735 20.2265 13.5316 21.0616 14.235 21.765C14.85 22.38 15.8475 22.38 16.4625 21.765ZM19.5375 14.235C19.3912 14.3812 19.2752 14.5549 19.196 14.746C19.1169 14.9371 19.0761 15.1419 19.0761 15.3487C19.0761 15.5556 19.1169 15.7604 19.196 15.9515C19.2752 16.1426 19.3912 16.3162 19.5375 16.4625C19.9484 16.8734 20.2744 17.3612 20.4968 17.8981C20.7191 18.435 20.8336 19.0104 20.8336 19.5915C20.8336 20.1726 20.7191 20.748 20.4968 21.2849C20.2744 21.8218 19.9484 22.3096 19.5375 22.7205L14.2875 27.9705C13.8788 28.391 13.3905 28.7261 12.8511 28.9563C12.3118 29.1865 11.732 29.3072 11.1456 29.3113C10.5591 29.3154 9.97773 29.203 9.43515 28.9804C8.89257 28.7579 8.39964 28.4297 7.98501 28.015C7.57038 27.6003 7.24232 27.1072 7.01991 26.5646C6.7975 26.022 6.68517 25.4405 6.68945 24.8541C6.69373 24.2677 6.81453 23.688 7.04484 23.1486C7.27515 22.6093 7.61037 22.1211 8.03101 21.7125L9.56851 20.175C9.86389 19.8796 10.0298 19.479 10.0298 19.0612C10.0298 18.6435 9.86389 18.2429 9.56851 17.9475C9.27312 17.6521 8.87249 17.4862 8.45476 17.4862C8.03702 17.4862 7.63639 17.6521 7.34101 17.9475L5.80501 19.485C4.38438 20.9056 3.58627 22.8324 3.58627 24.8415C3.58627 26.8506 4.38438 28.7774 5.80501 30.198C7.22564 31.6186 9.15243 32.4167 11.1615 32.4167C13.1706 32.4167 15.0974 31.6186 16.518 30.198L21.768 24.948C22.4715 24.2446 23.0295 23.4095 23.4102 22.4904C23.7909 21.5714 23.9868 20.5863 23.9868 19.5915C23.9868 18.5967 23.7909 17.6116 23.4102 16.6926C23.0295 15.7735 22.4715 14.9384 21.768 14.235C21.6218 14.0887 21.4481 13.9727 21.257 13.8935C21.0659 13.8144 20.8611 13.7736 20.6543 13.7736C20.4474 13.7736 20.2426 13.8144 20.0515 13.8935C19.8604 13.9727 19.6868 14.0887 19.5405 14.235H19.5375Z" fill="#D9D9D9"/>
</svg>
