<svg width="63" height="63" viewBox="0 0 63 63" fill="none" xmlns="http://www.w3.org/2000/svg">
<g clip-path="url(#clip0_130_713)">
<path d="M31.5 63C48.897 63 63 48.897 63 31.5C63 14.103 48.897 0 31.5 0C14.103 0 0 14.103 0 31.5C0 48.897 14.103 63 31.5 63Z" fill="#0A66C2"/>
<path d="M42.6419 42.648H37.9661V35.3268C37.9661 33.5795 37.9292 31.3339 35.5298 31.3339C33.0935 31.3339 32.7182 33.235 32.7182 35.1976V42.648H28.0424V27.5871H32.5336V29.642H32.5951C33.2227 28.4607 34.7484 27.2118 37.0248 27.2118C41.7621 27.2118 42.6357 30.3311 42.6357 34.3855L42.6419 42.648ZM22.7698 25.5261C21.2625 25.5261 20.0566 24.3079 20.0566 22.8129C20.0566 21.3179 21.2687 20.0997 22.7698 20.0997C24.271 20.0997 25.483 21.3179 25.483 22.8129C25.483 24.3079 24.2648 25.5261 22.7698 25.5261ZM25.1139 42.648H20.4258V27.5871H25.1139V42.648ZM44.9798 15.75H18.0817C16.7959 15.75 15.75 16.7651 15.75 18.0264V45.0352C15.75 46.2902 16.7897 47.3115 18.0817 47.3115H44.9736C46.2595 47.3115 47.3115 46.2964 47.3115 45.0352V18.0264C47.3115 16.7651 46.2595 15.75 44.9798 15.75Z" fill="white"/>
</g>
<defs>
<clipPath id="clip0_130_713">
<rect width="63" height="63" fill="white"/>
</clipPath>
</defs>
</svg>
