<svg width="78" height="79" viewBox="0 0 78 79" fill="none" xmlns="http://www.w3.org/2000/svg">
<path d="M77.0193 34.4657C76.5196 33.6788 72.9335 27.2681 71.0003 23.813C69.972 21.9763 69.16 20.5252 68.8187 19.9233L68.7913 19.8743L68.7608 19.8275C67.9656 18.5279 66.8352 17.0389 65.1382 17.0389C64.8622 17.0441 64.5869 17.0769 64.314 17.137C64.2576 17.1481 64.1997 17.1615 64.1388 17.1704C63.7656 17.2306 62.6063 17.5048 59.8519 18.169C57.7191 18.6795 54.5032 19.4552 54.0157 19.5221L53.9076 19.5355L53.8024 19.5644C52.279 19.9612 51.2705 20.9509 50.8226 22.5046C50.5865 23.3249 50.3321 24.99 51.2705 26.9315C51.5036 27.4263 52.311 29.0624 53.6988 31.8733C54.622 33.7457 55.6595 35.8455 56.5552 37.6688L39.5935 43.4666L22.9518 3.57764L22.9213 3.50185L22.8863 3.42829L22.8192 3.2834C22.1383 1.82114 21.2912 0 18.8446 0C18.6725 0 18.4927 1.36184e-07 18.2916 0.0245198C17.5909 0.0802462 15.0285 0.374482 12.0624 0.717757C8.78857 1.09447 4.30821 1.60938 3.72627 1.63167H3.61506L3.49471 1.6495C2.10231 1.84789 1.09228 2.67487 0.493581 4.10147C-0.504256 6.48433 0.277256 9.15919 0.53319 10.0374C1.04658 11.814 5.72194 26.236 9.84582 38.9661C12.588 47.4232 15.4185 56.1678 15.65 56.9435C16.0572 58.3925 16.7544 59.6276 17.6499 60.4864C18.5455 61.3453 19.5976 61.7879 20.6682 61.756C21.1734 61.7527 21.6769 61.6705 22.1703 61.5108H22.2022L22.2327 61.4997C24.3442 60.7463 31.0426 58.2586 35.8216 56.4642C36.111 57.2043 36.4157 57.9867 36.7356 58.7914C40.0765 67.3732 42.5094 73.5812 43.3107 75.166C43.722 76.0108 44.9407 78.4628 47.235 78.4628C48.0668 78.4628 48.8285 78.1507 49.6328 77.8186L49.8659 77.7228H49.8751H49.8842C51.4884 77.054 72.8406 66.096 73.9344 65.3849L73.9679 65.3626C74.7966 64.8254 76.0489 64.0141 76.4328 61.9299C76.6841 60.5657 76.4602 59.1815 75.7655 57.815L75.7548 57.795L75.7442 57.7749C75.6147 57.5297 75.1348 56.6136 74.4843 55.3453C73.0934 52.6548 70.8464 48.3081 68.8721 44.5254C71.5182 43.5223 74.7829 42.2718 75.4806 41.9509C77.228 41.1863 77.7566 39.568 77.9181 38.6675C78.0384 37.9653 78.1954 36.1709 77.0193 34.4657ZM28.27 47.4366C25.5568 48.3661 23.6662 49.0147 22.4978 49.4204C21.4817 46.4469 19.4906 40.5822 17.5467 34.858C13.0161 21.5015 10.6761 14.6248 9.44517 11.0294L10.6867 10.8733C12.719 10.617 15.5023 10.267 17.0516 10.0776C19.6048 16.3769 28.3736 38.0077 31.7221 46.2552L28.27 47.4366ZM55.4112 62.291C51.723 64.0742 49.7243 65.0483 48.6442 65.5766C47.6844 63.2718 45.573 58.1048 43.6976 53.4974L61.3235 46.9261C62.0852 48.4441 63.5432 51.3218 66.4209 56.9413C63.6681 58.2876 59.078 60.5122 55.4112 62.291ZM63.9225 35.179L60.3028 28.1508C62.3854 27.618 63.5843 27.3104 64.2866 27.1254L66.1147 30.4422L67.9336 33.7457C66.6844 34.1893 65.2311 34.7086 63.9225 35.179Z" fill="#ECF2FF" fill-opacity="0.9"/>
</svg>
