<svg width="25" height="33" viewBox="0 0 25 33" fill="none" xmlns="http://www.w3.org/2000/svg">
<path d="M3.3 0C1.49082 0 0 1.49075 0 3.29992V29.6999C0 31.5091 1.49082 33 3.3 33H20.9C22.7092 33 24.2 31.5091 24.2 29.6999V3.29992C24.2 1.49075 22.7092 0 20.9 0H3.3ZM3.3 2.19991H20.9C21.5284 2.19991 22 2.67156 22 3.29992V29.6999C22 30.3283 21.5284 30.8 20.9 30.8H3.3C2.67164 30.8 2.2 30.3283 2.2 29.6999V3.29992C2.2 2.67156 2.67164 2.19991 3.3 2.19991Z" fill="#D9D9D9"/>
<path d="M13.2 27.5026C13.2 27.7943 13.0841 28.0742 12.8778 28.2805C12.6715 28.4868 12.3917 28.6026 12.1 28.6026C11.8083 28.6026 11.5285 28.4868 11.3222 28.2805C11.1159 28.0742 11 27.7943 11 27.5026C11 27.3581 11.0284 27.2151 11.0837 27.0816C11.139 26.9482 11.22 26.8269 11.3222 26.7247C11.4243 26.6226 11.5456 26.5416 11.679 26.4863C11.8125 26.431 11.9555 26.4026 12.1 26.4026C12.2445 26.4026 12.3875 26.431 12.521 26.4863C12.6544 26.5416 12.7757 26.6226 12.8778 26.7247C12.98 26.8269 13.061 26.9482 13.1163 27.0816C13.1716 27.2151 13.2 27.3581 13.2 27.5026Z" fill="#D9D9D9"/>
<path d="M9.90381 4.39697C9.61199 4.39697 9.33213 4.5129 9.12579 4.71924C8.91945 4.92558 8.80353 5.20543 8.80353 5.49724C8.80353 5.78905 8.91945 6.06891 9.12579 6.27525C9.33213 6.48159 9.61199 6.59751 9.90381 6.59751H14.2968C14.5886 6.59751 14.8684 6.48159 15.0748 6.27525C15.2811 6.06891 15.397 5.78905 15.397 5.49724C15.397 5.20543 15.2811 4.92558 15.0748 4.71924C14.8684 4.5129 14.5886 4.39697 14.2968 4.39697H9.90381Z" fill="#D9D9D9"/>
</svg>
