<svg width="112" height="112" viewBox="0 0 112 112" fill="none" xmlns="http://www.w3.org/2000/svg">
<g clip-path="url(#clip0_444_161)">
<path d="M88.9862 1.53418H23.0136C11.1509 1.53418 1.53418 11.1509 1.53418 23.0136V88.9862C1.53418 100.849 11.1509 110.466 23.0136 110.466H88.9862C100.849 110.466 110.466 100.849 110.466 88.9862V23.0136C110.466 11.1509 100.849 1.53418 88.9862 1.53418Z" fill="white" stroke="#0C6D87" stroke-width="2"/>
<path d="M93.4822 56.4007C93.4822 51.4347 87.2632 46.7284 77.7284 43.8099C79.9288 34.0917 78.9508 26.36 74.6419 23.8846C73.6487 23.304 72.4874 23.029 71.2191 23.029V26.4364C71.922 26.4364 72.4874 26.5739 72.961 26.8337C75.0391 28.0255 75.9407 32.5637 75.2378 38.4007C75.0697 39.8371 74.7947 41.3498 74.4585 42.8931C71.4636 42.1596 68.1937 41.5943 64.7556 41.2275C62.6928 38.4007 60.5536 35.8337 58.3991 33.5875C63.3804 28.9576 68.0561 26.4211 71.2344 26.4211V23.0137C67.0324 23.0137 61.5315 26.0086 55.9696 31.2038C50.4076 26.0391 44.9068 23.0748 40.7048 23.0748V26.4823C43.8677 26.4823 48.5587 29.0035 53.54 33.6028C51.4008 35.849 49.2616 38.4007 47.2294 41.2275C43.7761 41.5943 40.5061 42.1596 37.5112 42.9084C37.1598 41.3803 36.9 39.8982 36.7167 38.4771C35.9985 32.6401 36.8847 28.1019 38.9476 26.8948C39.406 26.6198 40.0019 26.4975 40.7048 26.4975V23.0901C39.4212 23.0901 38.2599 23.3651 37.2515 23.9458C32.9578 26.4211 31.9951 34.1376 34.2107 43.8252C24.7065 46.7589 18.5181 51.4499 18.5181 56.4007C18.5181 61.3667 24.7371 66.073 34.2718 68.9915C32.0715 78.7096 33.0494 86.4414 37.3584 88.9167C38.3516 89.4974 39.5129 89.7724 40.7964 89.7724C44.9985 89.7724 50.4993 86.7775 56.0613 81.5823C61.6232 86.747 67.1241 89.7113 71.3261 89.7113C72.6096 89.7113 73.7709 89.4363 74.7794 88.8556C79.0731 86.3802 80.0357 78.6638 77.8201 68.9762C87.2938 66.0577 93.4822 61.3514 93.4822 56.4007ZM73.5875 46.2089C73.0222 48.18 72.3193 50.2122 71.5247 52.2445C70.8982 51.0221 70.2412 49.7997 69.523 48.5773C68.8201 47.3549 68.0714 46.163 67.3227 45.0017C69.4925 45.3226 71.5858 45.7199 73.5875 46.2089ZM66.5892 62.4822C65.3974 64.545 64.175 66.5008 62.9067 68.3192C60.63 68.5178 58.3227 68.6248 56.0001 68.6248C53.6928 68.6248 51.3856 68.5178 49.1241 68.3344C47.8559 66.5161 46.6182 64.5755 45.4263 62.528C44.265 60.5263 43.2107 58.4941 42.2481 56.4465C43.1954 54.399 44.265 52.3515 45.411 50.3498C46.6029 48.287 47.8253 46.3311 49.0935 44.5128C51.3703 44.3141 53.6776 44.2072 56.0001 44.2072C58.3074 44.2072 60.6147 44.3141 62.8762 44.4975C64.1444 46.3158 65.3821 48.2564 66.574 50.3039C67.7353 52.3056 68.7896 54.3379 69.7522 56.3854C68.7896 58.4329 67.7353 60.4805 66.5892 62.4822ZM71.5247 60.4957C72.3498 62.5433 73.0527 64.5908 73.6334 66.5772C71.6317 67.0662 69.523 67.4788 67.338 67.7996C68.0867 66.6231 68.8354 65.4159 69.5383 64.1783C70.2412 62.9558 70.8982 61.7182 71.5247 60.4957ZM56.0307 76.7996C54.6097 75.3327 53.1886 73.6978 51.7828 71.91C53.158 71.9711 54.5638 72.0169 55.9849 72.0169C57.4212 72.0169 58.8422 71.9864 60.2327 71.91C58.8575 73.6978 57.4365 75.3327 56.0307 76.7996ZM44.6623 67.7996C42.4925 67.4788 40.3992 67.0815 38.3975 66.5925C38.9628 64.6214 39.6657 62.5891 40.4603 60.5569C41.0868 61.7793 41.7438 63.0017 42.462 64.2241C43.1801 65.4465 43.9136 66.6383 44.6623 67.7996ZM55.9543 36.0018C57.3753 37.4686 58.7964 39.1036 60.2022 40.8914C58.827 40.8303 57.4212 40.7844 56.0001 40.7844C54.5638 40.7844 53.1428 40.815 51.7523 40.8914C53.1275 39.1036 54.5485 37.4686 55.9543 36.0018ZM44.647 45.0017C43.8983 46.1783 43.1496 47.3854 42.4467 48.6231C41.7438 49.8455 41.0868 51.0679 40.4603 52.2903C39.6352 50.2428 38.9323 48.1953 38.3516 46.2089C40.3533 45.7352 42.462 45.3226 44.647 45.0017ZM30.8185 64.1324C25.4094 61.8251 21.9102 58.7997 21.9102 56.4007C21.9102 54.0017 25.4094 50.961 30.8185 48.669C32.1326 48.1036 33.569 47.5993 35.0511 47.1257C35.9221 50.1206 37.0681 53.2377 38.4892 56.4312C37.0834 59.6095 35.9527 62.7114 35.097 65.691C33.5842 65.2173 32.1479 64.6978 30.8185 64.1324ZM39.0392 85.9677C36.9611 84.7758 36.0596 80.2376 36.7625 74.4006C36.9306 72.9643 37.2056 71.4516 37.5418 69.9083C40.5367 70.6417 43.8066 71.2071 47.2446 71.5738C49.3075 74.4006 51.4467 76.9677 53.6012 79.2139C48.6199 83.8437 43.9441 86.3802 40.7659 86.3802C40.0783 86.365 39.4976 86.2274 39.0392 85.9677ZM75.2836 74.3242C76.0018 80.1612 75.1155 84.6994 73.0527 85.9066C72.5943 86.1816 71.9984 86.3038 71.2955 86.3038C68.1325 86.3038 63.4415 83.7826 58.4602 79.1833C60.5994 76.9371 62.7387 74.3854 64.7709 71.5585C68.2242 71.1918 71.4942 70.6265 74.4891 69.8777C74.8405 71.421 75.1155 72.9032 75.2836 74.3242ZM81.1665 64.1324C79.8524 64.6978 78.416 65.202 76.9339 65.6757C76.0629 62.6808 74.9169 59.5637 73.4959 56.3701C74.9016 53.1919 76.0323 50.09 76.888 47.1104C78.4008 47.5841 79.8371 48.1036 81.1817 48.669C86.5909 50.9762 90.09 54.0017 90.09 56.4007C90.0748 58.7997 86.5756 61.8404 81.1665 64.1324Z" fill="#61DAFB"/>
<path d="M55.985 63.3837C59.8416 63.3837 62.968 60.2573 62.968 56.4007C62.968 52.5441 59.8416 49.4177 55.985 49.4177C52.1283 49.4177 49.002 52.5441 49.002 56.4007C49.002 60.2573 52.1283 63.3837 55.985 63.3837Z" fill="#61DAFB"/>
</g>
<defs>
<clipPath id="clip0_444_161">
<rect width="112" height="112" fill="white"/>
</clipPath>
</defs>
</svg>
