<svg width="66" height="66" viewBox="0 0 66 66" fill="none" xmlns="http://www.w3.org/2000/svg">
<g clip-path="url(#clip0_130_730)">
<path fill-rule="evenodd" clip-rule="evenodd" d="M52.47 29.37C41.91 23.1 24.255 22.44 14.19 25.575C12.54 26.07 10.89 25.08 10.395 23.595C9.9 21.945 10.89 20.295 12.375 19.8C24.09 16.335 43.395 16.995 55.605 24.255C57.09 25.08 57.585 27.06 56.76 28.545C55.935 29.7 53.955 30.195 52.47 29.37ZM52.14 38.61C51.315 39.765 49.83 40.26 48.675 39.435C39.765 33.99 26.235 32.34 15.84 35.64C14.52 35.97 13.035 35.31 12.705 33.99C12.375 32.67 13.035 31.185 14.355 30.855C26.4 27.225 41.25 29.04 51.48 35.31C52.47 35.805 52.965 37.455 52.14 38.61ZM48.18 47.685C47.52 48.675 46.365 49.005 45.375 48.345C37.62 43.56 27.885 42.57 16.335 45.21C15.18 45.54 14.19 44.715 13.86 43.725C13.53 42.57 14.355 41.58 15.345 41.25C27.885 38.445 38.775 39.6 47.355 44.88C48.51 45.375 48.675 46.695 48.18 47.685ZM33 0C14.85 0 0 14.85 0 33C0 51.15 14.85 66 33 66C51.15 66 66 51.15 66 33C66 14.85 51.315 0 33 0Z" fill="#00DA5A"/>
</g>
<defs>
<clipPath id="clip0_130_730">
<rect width="66" height="66" fill="white"/>
</clipPath>
</defs>
</svg>
