<svg width="800" height="800" viewBox="0 0 800 800" fill="none" xmlns="http://www.w3.org/2000/svg">
<g clip-path="url(#clip0_518_2)">
<path d="M542.379 282.55L454.03 311.399L377.168 345.322L355.665 350.999C350.188 356.208 344.446 361.484 338.236 366.826C331.424 372.702 325.08 378.045 320.205 381.918C314.796 386.192 306.782 394.205 302.709 399.28C296.632 406.892 291.824 414.972 289.754 421.184C286.081 432.403 287.885 443.755 294.963 454.24C304.045 467.595 322.142 481.217 343.244 490.5C353.996 495.242 372.093 501.318 385.715 504.724C408.352 510.467 452.16 516.678 476.267 517.613C481.141 517.813 487.686 517.813 487.952 517.613C488.487 517.278 492.227 510.133 496.568 501.252C511.393 471.001 522.077 442.62 527.887 418.379C531.359 403.689 534.097 384.122 535.899 360.951C536.367 354.473 536.567 332.77 536.166 325.423C535.565 313.404 534.496 303.654 532.828 294.105C532.561 292.702 532.493 291.433 532.627 291.367C532.894 291.166 533.695 290.899 544.58 287.76L542.377 282.552V282.551H542.379V282.55ZM522.212 294.371C523.013 294.371 525.149 314.871 525.683 327.827C525.817 330.565 525.749 332.368 525.616 332.368C525.083 332.368 514.331 326.025 506.652 321.217C499.974 317.009 487.287 308.595 485.283 306.992C484.614 306.525 484.681 306.459 490.158 304.588C499.439 301.449 521.477 294.371 522.212 294.371ZM477.202 309.196C477.804 309.196 479.339 310.063 483.012 312.334C496.768 320.948 515.467 331.366 523.48 334.839C525.95 335.908 526.217 335.506 520.542 339.38C508.388 347.661 493.228 355.807 474.663 364.021C471.392 365.49 468.654 366.625 468.588 366.625C468.455 366.625 468.854 364.957 469.388 362.953C473.862 346.324 476.4 329.496 476.535 316.007C476.601 309.328 476.601 309.328 477.202 309.129C477.068 309.196 477.135 309.196 477.202 309.196ZM467.92 312.735C468.32 313.135 468.053 328.094 467.519 332.167C466.317 341.917 464.447 350.999 461.376 361.217C460.642 363.686 459.973 365.757 459.841 365.89C459.572 366.224 450.423 357.276 447.419 353.803C442.209 347.793 438.137 341.783 435.132 335.907C433.596 332.901 431.192 327.026 431.392 326.825C432.46 326.09 467.653 312.468 467.92 312.735ZM424.246 329.897C424.313 329.897 424.379 329.897 424.447 329.963C424.58 330.097 425.048 331.166 425.449 332.367C427.585 338.177 432.393 346.725 436.534 352.201C441.075 358.211 447.019 364.621 451.959 368.828C453.563 370.164 455.031 371.432 455.231 371.633C455.632 372.034 455.766 371.967 444.88 376.108C432.26 380.915 418.503 385.723 402.743 390.798C398.978 392.012 395.217 393.236 391.459 394.471C390.857 394.672 391.058 394.338 392.794 391.6C400.607 379.379 412.493 355.406 419.171 338.444C420.307 335.506 421.442 332.568 421.643 331.9C421.91 330.965 422.243 330.631 423.111 330.163C423.578 330.031 424.046 329.897 424.246 329.897ZM410.892 335.439C411.092 335.574 407.686 342.718 404.347 349.262C397.869 361.883 390.791 374.305 381.308 389.397C379.706 392.001 378.17 394.405 377.969 394.672C377.636 395.14 377.502 395.006 376.433 392.936C374.163 388.462 372.292 382.719 371.291 377.443C370.289 372.234 370.49 363.152 371.625 357.543C372.493 353.403 372.427 353.47 374.43 352.468C382.977 348.128 410.624 335.172 410.892 335.439ZM526.085 340.114V342.919C526.085 357.811 524.482 378.245 522.144 393.137C521.743 395.741 521.408 397.877 521.343 397.945C521.343 397.945 519.406 397.411 517.136 396.742C507.119 393.604 496.234 388.996 486.417 383.588C479.939 380.048 470.524 374.238 470.791 373.97C470.857 373.904 473.662 372.435 476.934 370.699C490.024 363.888 502.577 356.542 513.463 349.263C517.536 346.525 523.679 342.118 525.016 340.916L526.085 340.114ZM360.473 359.88C360.74 359.88 360.673 360.414 360.272 362.818C360.005 364.555 359.671 367.76 359.539 369.963C359.003 379.713 360.607 386.926 365.415 396.808C366.75 399.547 367.82 401.817 367.752 401.883C367.284 402.285 323.078 415.24 309.187 419.046C305.047 420.181 301.441 421.183 301.173 421.249C300.706 421.383 300.639 421.317 300.839 420.18C302.375 410.365 309.855 397.543 320.272 386.724C327.217 379.513 332.76 375.306 342.242 369.896C349.054 366.023 359.538 360.214 360.339 359.947C360.34 359.88 360.406 359.88 360.473 359.88ZM464.648 378.511C464.714 378.445 466.317 379.313 468.253 380.448C482.544 388.729 502.444 396.409 519.405 400.348L520.942 400.683L518.804 401.883C509.923 406.825 480.741 418.979 450.892 430.131C446.55 431.733 442.277 433.337 441.474 433.67C440.673 434.004 439.938 434.205 439.938 434.138C439.938 434.07 441.141 431.733 442.676 428.862C451.023 413.236 459.438 394.204 463.712 380.982C464.247 379.713 464.58 378.579 464.648 378.511ZM454.03 381.984C454.098 382.052 453.563 383.453 452.895 385.056C447.085 399.146 439.472 414.506 429.722 431.735C427.252 436.142 425.181 439.682 425.114 439.682C425.048 439.682 423.044 438.479 420.64 437.01C406.482 428.329 393.928 417.644 385.715 407.293L384.513 405.824L390.589 404.155C412.359 398.212 430.856 391.801 449.221 383.922C451.826 382.853 453.964 381.984 454.03 381.984ZM520.008 405.023C520.074 406.559 516.668 420.315 513.863 430.264C511.526 438.612 509.522 445.157 505.85 456.709C504.247 461.785 502.846 465.991 502.778 465.991C502.712 465.991 502.311 465.924 501.91 465.792C482.077 462.184 464.314 457.176 447.619 450.499C442.944 448.629 436.267 445.623 435.866 445.29C435.733 445.155 439.74 443.286 444.815 441.082C475.199 427.794 506.719 412.701 517.536 406.225C518.805 405.423 519.807 405.023 520.008 405.023ZM367.685 410.232C367.819 410.365 359.338 422.586 347.451 439.213C343.311 445.023 338.503 451.834 336.7 454.372C334.897 456.91 332.159 460.917 330.623 463.321L327.817 467.661L324.812 465.124C321.273 462.185 315.13 455.908 312.392 452.436C306.649 445.291 302.776 437.745 301.24 430.867C300.505 427.661 300.505 426.058 301.172 425.859C302.174 425.592 320.004 421.384 336.7 417.51C345.982 415.374 356.732 412.837 360.606 411.902C364.479 410.965 367.619 410.232 367.685 410.232ZM376.233 413.504L378.369 415.908C387.986 426.659 397.802 434.607 409.689 441.551C411.826 442.754 413.429 443.821 413.294 443.889C412.828 444.223 372.025 458.712 353.127 465.257C342.51 468.996 333.761 472.001 333.695 472.001C333.629 472.001 333.027 471.601 332.359 471.134L331.157 470.265L333.094 467.461C339.37 458.379 347.252 448.429 364.413 427.728L376.233 413.504ZM429.523 451.634C429.588 451.568 432.527 452.635 436.133 453.973C444.815 457.244 451.692 459.314 460.908 461.651C472.261 464.523 488.688 467.328 498.372 468.129C499.841 468.262 500.642 468.396 500.375 468.597C499.906 468.864 490.091 472.136 482.879 474.407C471.392 478.012 436.334 488.363 407.753 496.577C402.477 498.113 397.936 499.382 397.669 499.448C397.002 499.582 394.797 498.98 394.797 498.713C394.797 498.58 396.4 496.51 398.337 494.24C407.952 482.753 417.502 469.932 425.449 457.778C427.652 454.438 429.523 451.701 429.523 451.634ZM417.769 451.969C417.835 452.035 413.094 459.648 404.815 472.736C401.275 478.279 397.335 484.556 395.932 486.76C394.596 488.897 392.593 492.236 391.458 494.105L389.522 497.512L388.52 497.244C386.115 496.576 369.221 490.632 364.746 488.83C359.203 486.626 353.461 483.955 349.186 481.685C343.845 478.813 337.167 474.539 337.701 474.406C337.834 474.34 346.983 471.868 358.001 468.863C387.251 460.916 403.477 456.309 414.096 452.97C416.033 452.369 417.702 451.901 417.769 451.969ZM500.908 471.467H500.975C501.242 472.136 490.425 502.186 486.483 511.668C485.616 513.805 485.283 514.34 484.815 514.272C483.68 514.206 467.987 512.002 458.437 510.6C441.81 508.062 413.896 503.187 406.885 501.585L405.282 501.251L415.231 498.979C436.601 494.171 446.884 491.567 457.301 488.362C470.457 484.355 483.48 479.347 496.634 473.204C498.704 472.268 500.441 471.534 500.908 471.467Z" fill="url(#paint0_linear_518_2)"/>
<path d="M451.293 76.6043C449.823 76.405 426.116 84.9526 410.824 91.1622C390.189 99.5773 374.163 107.591 364.28 114.535C360.607 117.14 355.999 121.747 355.265 123.55C354.998 124.218 354.864 125.019 354.864 125.82L363.813 134.301L385.115 141.113L435.8 150.195L493.763 160.145L494.365 155.137C494.165 155.137 494.031 155.07 493.832 155.07L486.217 153.868L484.682 151.13C476.802 137.24 468.121 120.011 463.046 108.391C459.107 99.3759 455.367 88.9595 453.296 81.4799C452.161 76.939 452.028 76.672 451.294 76.6055V76.6039H451.293V76.6043ZM450.223 80.011H450.291C450.357 80.0769 450.624 81.948 450.892 84.1504C452.026 93.5007 454.098 102.514 457.369 112.265C459.84 119.61 459.84 119.21 456.969 118.341C450.157 116.472 419.64 111.197 397.536 108.125C393.997 107.657 390.991 107.19 390.991 107.123C390.724 106.856 406.951 98.3748 414.096 95.0367C423.245 90.8287 448.354 80.3445 450.223 80.011ZM385.848 109.928L388.454 110.795C402.61 115.604 438.202 122.415 457.836 124.018C460.039 124.218 461.91 124.419 461.976 124.419C462.042 124.486 460.174 125.487 457.769 126.622C448.287 131.363 437.869 137.173 430.657 141.648C428.521 142.983 426.583 144.052 426.317 144.052C426.05 144.052 424.648 143.785 423.179 143.584L420.508 143.183L413.83 136.638C402.077 125.22 392.861 116.405 389.322 113.065L385.848 109.928ZM383.178 111.997L392.594 123.751C397.735 130.228 402.944 136.572 404.08 137.974C405.215 139.377 406.15 140.513 406.084 140.579C405.816 140.779 392.461 138.174 385.382 136.573C378.103 134.903 375.098 134.101 370.624 132.7L366.951 131.497V130.562C367.017 126.087 372.694 119.41 382.31 112.599L383.178 111.997ZM463.179 128.024C463.446 128.024 463.779 128.625 464.581 130.428C466.851 135.436 473.931 148.926 475.665 151.53C476.201 152.399 477.135 152.466 467.72 150.93C445.083 147.256 437.803 146.055 437.803 145.922C437.803 145.855 438.471 145.387 439.339 144.92C446.351 141.047 453.429 136.105 459.707 130.829C461.243 129.56 462.645 128.358 462.911 128.158C462.978 128.024 463.112 127.958 463.179 128.024Z" fill="url(#paint1_linear_518_2)"/>
<path d="M355.731 122.615C355.731 122.615 354.263 124.953 355.665 128.426C356.534 130.562 359.071 133.166 361.942 135.838C361.942 135.838 391.658 164.819 395.265 168.96C411.692 187.925 418.837 206.623 419.505 232.4C419.906 248.961 416.766 263.519 408.954 280.414C395.064 310.732 365.748 344.188 320.539 381.317L327.151 379.113C331.424 375.907 337.234 372.503 350.857 365.023C382.309 347.793 417.702 331.967 461.108 315.673C523.612 292.166 626.386 264.653 684.882 255.706L690.96 254.77L690.025 253.301C684.684 245.02 681.01 239.879 676.602 234.403C663.781 218.509 648.223 205.622 629.19 194.937C603.012 180.313 569.155 168.894 526.284 160.413C518.204 158.809 500.44 155.738 486.016 153.534C455.431 148.794 435.665 145.521 413.895 141.782C406.083 140.446 394.396 138.443 386.649 136.774C382.643 135.905 374.964 134.102 368.954 132.032C364.146 130.161 357.2 128.291 355.731 122.615ZM372.961 139.31C373.027 139.245 374.095 139.644 375.498 140.112C378.036 140.979 381.308 141.981 385.182 143.05C388.113 143.856 391.051 144.635 393.997 145.387C398.003 146.388 401.342 147.323 401.408 147.323C401.876 147.791 408.621 169.359 410.892 177.64C411.759 180.779 412.428 183.45 412.361 183.45C412.292 183.518 411.559 182.382 410.691 180.846C402.878 167.089 390.524 153.133 376.233 141.914C374.364 140.579 372.961 139.377 372.961 139.31ZM405.816 148.392C406.15 148.392 407.619 148.593 409.421 148.993C420.774 151.531 441.142 155.404 454.163 157.608C456.367 157.941 458.104 158.343 458.104 158.476C458.104 158.61 457.302 159.076 456.3 159.611C454.097 160.746 445.215 166.021 442.277 168.025C434.864 172.966 428.187 178.309 423.379 183.116C421.442 185.053 419.772 186.656 419.772 186.656C419.772 186.656 419.373 185.521 419.037 184.118C416.635 174.836 411.625 161.079 407.084 151.397C406.35 149.861 405.748 148.459 405.748 148.325C405.748 148.459 405.748 148.392 405.816 148.392ZM463.646 159.411C464.047 159.544 464.715 161.815 466.05 166.823C468.521 176.506 469.656 187.324 469.256 197.408C469.121 200.212 468.988 202.816 468.854 203.151L468.654 203.818L465.182 202.683C458.036 200.413 446.418 197.006 436.468 194.202C430.791 192.666 426.184 191.264 426.184 191.131C426.184 190.729 434.465 182.449 438.004 179.311C444.747 173.367 463.045 159.21 463.646 159.411ZM468.254 160.078C468.454 159.879 495.9 164.619 508.388 167.023C517.671 168.826 531.16 171.631 531.961 171.965C532.361 172.098 530.959 172.9 526.484 174.903C508.855 182.85 495.766 189.994 482.745 198.676C479.34 200.947 476.468 202.816 476.401 202.816C476.335 202.816 476.268 200.88 476.268 198.543C476.268 185.855 473.73 173.034 469.055 162.216C468.587 161.147 468.187 160.146 468.254 160.078ZM539.239 174.102C539.44 174.302 538.571 179.712 537.77 182.917C535.366 192.867 528.889 207.626 520.943 221.515C519.54 223.986 518.271 225.989 518.137 226.056C518.004 226.122 516.201 225.12 514.131 223.918C506.385 219.378 497.57 215.104 487.953 211.097C485.283 209.962 482.945 209.026 482.878 208.894C482.41 208.493 503.913 194.269 515.266 187.458C524.281 181.982 538.972 173.834 539.239 174.102ZM544.314 174.903C544.915 174.903 557.069 178.242 563.412 180.112C579.106 184.787 597.136 191.398 608.889 196.74L613.763 198.944L610.358 199.745C581.644 206.356 557.069 213.969 533.362 223.585C531.426 224.387 529.689 225.054 529.557 225.054C529.423 225.054 530.091 223.519 530.959 221.648C538.104 206.49 542.712 190.663 543.846 177.173C543.914 175.904 544.113 174.903 544.314 174.903ZM423.312 202.683C423.512 202.483 432.794 204.687 437.803 206.088C445.415 208.226 461.575 213.634 461.575 214.035C461.575 214.102 459.773 215.638 457.637 217.508C448.889 224.787 440.474 232.466 430.39 242.216C427.385 245.088 424.848 247.425 424.715 247.425C424.58 247.425 424.515 247.024 424.58 246.49C426.116 235.27 425.783 220.847 423.646 206.222C423.445 204.352 423.245 202.75 423.312 202.683ZM618.373 202.884C618.505 203.017 614.098 209.962 611.294 213.901C607.288 219.644 601.409 227.258 588.12 243.953C581.11 252.767 573.229 262.718 570.626 266.056C567.953 269.395 565.751 272.199 565.683 272.199C565.616 272.199 564.749 270.998 563.814 269.529C556.334 258.31 547.385 248.493 536.768 239.679C534.765 238.009 532.562 236.206 531.827 235.671C531.092 235.137 530.491 234.603 530.491 234.537C530.491 234.337 541.842 229.461 550.458 225.989C565.55 219.845 586.116 212.5 601.543 207.758C609.624 205.221 618.238 202.75 618.373 202.884ZM623.514 204.219C623.78 204.153 625.384 204.954 627.32 206.088C643.548 215.37 659.44 227.324 671.996 239.612C675.535 243.085 684.283 252.167 684.148 252.233C684.148 252.233 681.077 252.5 677.471 252.767C649.357 254.904 613.365 260.847 578.772 269.194C576.436 269.728 574.366 270.195 574.232 270.195C574.099 270.195 576.703 267.591 579.976 264.453C600.276 244.887 609.559 232.533 620.509 210.496C622.045 207.224 623.381 204.42 623.514 204.219C623.447 204.219 623.447 204.219 623.514 204.219ZM474.798 219.445C475.733 219.645 484.414 223.72 490.959 226.991C496.969 229.995 505.984 234.804 506.451 235.204C506.518 235.27 503.312 236.94 499.374 238.877C486.818 245.154 476.067 251.097 464.848 257.908C461.643 259.845 458.972 261.449 458.905 261.449C458.638 261.449 458.704 261.18 460.508 257.908C466.518 246.958 471.325 233.869 474.064 221.114C474.33 220.112 474.598 219.445 474.798 219.445ZM466.116 221.047C466.317 221.248 464.047 229.461 462.645 233.935C459.906 242.417 455.299 253.034 450.825 261.048C449.755 262.917 448.153 265.655 447.285 267.19L445.616 269.862L441.876 266.256C437.536 262.049 433.996 259.445 429.456 257.107C427.652 256.173 426.25 255.371 426.25 255.238C426.25 254.704 437.669 244.353 446.417 236.874C452.694 231.465 465.916 220.847 466.116 221.047ZM519.207 242.884L522.479 245.02C529.957 249.896 538.771 256.373 545.517 262.049C549.322 265.187 556.668 271.799 558.138 273.402L558.938 274.271L553.53 275.806C522.945 284.286 499.306 291.832 471.726 301.983C468.654 303.118 466.05 304.053 465.849 304.053C465.45 304.053 465.115 304.386 471.994 298.042C489.624 281.816 505.249 263.919 516.869 246.489L519.207 242.884ZM505.25 246.357C505.383 246.49 496.234 259.378 490.758 266.657C484.214 275.338 472.594 289.896 464.581 299.377C461.242 303.318 458.372 306.59 458.237 306.657C458.036 306.724 457.97 305.722 457.97 304.186C457.97 296.105 455.9 287.491 452.294 280.146C450.758 277.074 450.49 276.339 450.825 276.006C452.094 274.87 471.526 263.785 483.813 257.174C492.094 252.767 505.048 246.223 505.25 246.357ZM420.84 267.058C421.041 267.058 422.577 267.859 424.314 268.794C428.587 271.131 432.394 273.735 435.799 276.541C435.932 276.674 434.197 278.077 431.926 279.745C425.582 284.286 415.966 291.566 410.358 296.04C404.48 300.715 404.281 300.848 404.948 299.846C409.356 293.102 411.558 289.295 413.897 284.421C415.966 280.081 418.036 274.938 419.505 270.464C420.039 268.527 420.707 267.058 420.84 267.058ZM443.346 284.687C443.679 284.621 444.081 285.221 445.883 287.893C449.689 293.568 452.627 301.182 453.363 307.325L453.495 308.662L444.348 312.201C427.986 318.544 412.895 324.822 402.677 329.496C399.806 330.832 394.797 333.235 391.526 334.839C388.253 336.508 385.582 337.777 385.582 337.71C385.582 337.644 387.652 336.108 390.189 334.237C410.157 319.747 427.452 303.853 440.407 287.96C441.81 286.29 443.079 284.754 443.212 284.687L443.346 284.687ZM432.995 287.225C433.263 287.492 425.65 296.106 420.441 301.382C407.553 314.538 394.798 324.822 378.971 334.839C376.968 336.108 375.165 337.242 374.964 337.377C374.496 337.644 375.097 336.975 382.043 329.429C386.45 324.688 389.789 320.681 393.595 315.74C396.133 312.469 396.601 312.001 400.274 309.395C410.091 302.317 432.728 286.958 432.995 287.225Z" fill="url(#paint2_radial_518_2)"/>
<path d="M143.822 563.735C142.59 563.735 141.358 563.852 140.137 563.852C115.255 565.178 98.4738 576.128 88.6618 597.512C80.27 616.852 81.1863 642.132 88.756 661.59C97.5586 680.603 111.782 690.637 135.524 694.427C140.548 695.25 143.916 698.008 153.645 709.368L165.616 723.393H187.328L172.891 708.839C164.911 700.859 158.456 693.911 158.456 693.3C158.456 692.69 161.509 691.352 165.204 690.226C177.386 686.539 187.503 677.128 194.58 662.704C200.307 651.121 201.129 647.541 201.95 633.13C204.098 590.234 181.482 563.416 143.821 563.723L143.822 563.735ZM162.857 675.909C152.295 681.025 136.957 682.046 126.946 678.373C116.594 674.571 106.572 663.821 102.064 651.65C97.0531 638.342 97.7686 613.79 103.496 602.734C112.709 585.13 124.892 577.032 142.695 577.032C169.101 577.032 184.123 593.205 186.084 623.601C187.633 648.975 179.136 668.011 162.869 675.898L162.857 675.909ZM537.921 600.375C528.814 600.375 521.843 604.061 517.148 611.324L513.463 617.076V602.123H497.701V691.788H513.452V663.128C513.452 636.921 513.779 633.858 517.441 626.687C522.489 616.852 531.172 611.948 539.565 614.295L545.198 615.938V600.399H537.921V600.375ZM445.323 599.553C442.236 599.553 438.961 599.964 435.7 600.681C414.609 606.196 402.721 626.382 403.448 647.155C403.448 664.549 406.827 673.244 415.22 682.364C432.414 696.47 447.964 697.597 468.948 690.028C472.528 688.502 476.424 686.742 476.424 686.742V672.635L468.948 676.508C451.966 683.902 439.173 683.902 428.927 675.193C422.391 668.539 419.515 660.558 418.189 651.452H481.74V639.362C481.74 614.716 466.906 599.154 445.31 599.553H445.323ZM419.621 638.87C419.621 638.87 421.969 623.496 430.677 617.463C434.868 614.505 439.678 613.074 444.384 613.074C449.103 613.074 453.808 614.599 457.693 617.569C465.675 623.707 467.012 638.753 467.012 638.753H419.621V638.87H419.621ZM39.6395 622.698C22.5523 612.346 14.9706 604.881 15.8977 596.079C18.5496 571.727 48.6418 575.095 65.3064 584.309L65.4249 567.925C65.4249 567.925 56.2116 563.935 43.008 563.724C22.7515 563.418 9.65391 570.061 3.51672 583.581C-5.49748 603.532 2.48412 618.577 31.3322 635.361C47.5275 644.784 54.6859 652.965 54.6859 661.884C54.6859 680.31 32.4698 686.742 9.54946 675.181C4.83238 672.834 0.84158 670.874 0.630513 670.874C-0.191568 676.097 0.232191 688.595 0.232191 688.595C0.232191 688.595 7.27426 691.554 17.8358 693.594C44.0298 698.816 67.8668 686.529 70.1198 666.578C72.0801 647.848 65.307 638.024 39.6406 622.684L39.6395 622.698ZM677.417 599.343C674.342 599.343 671.079 599.765 667.675 600.481C646.61 605.997 634.743 626.183 635.553 646.957C635.553 664.326 638.922 672.94 647.313 682.047C664.507 696.166 680.057 697.304 701.147 689.723C704.715 688.198 708.6 686.462 708.6 686.462V672.332L701.136 676.227C684.119 683.597 671.326 683.597 661.116 674.89C654.543 668.247 651.692 660.36 650.365 651.147H713.811V639.058C713.811 614.531 698.976 598.956 677.381 599.368L677.417 599.343ZM651.714 638.659C651.714 638.659 654.085 623.307 662.781 617.157C666.96 614.189 671.771 612.756 676.477 612.756C681.172 612.756 685.902 614.282 689.788 617.263C697.768 623.401 699.107 638.552 699.107 638.552H651.727L651.714 638.659ZM362.818 622.897C345.731 612.57 338.172 605.081 339.087 596.278C341.739 571.914 371.832 575.294 388.497 584.508L388.615 568.125C388.615 568.125 379.401 564.134 366.198 563.946C345.941 563.641 332.844 570.283 326.695 583.803C317.693 603.754 325.779 618.8 354.533 635.583C370.706 644.996 377.864 653.071 377.864 661.99C377.864 680.416 355.659 686.953 332.739 675.286C328.044 672.939 324.054 671.002 323.82 671.002C322.997 676.224 323.421 688.724 323.421 688.724C323.421 688.724 330.38 691.576 340.907 693.723C367.126 698.958 390.974 686.681 393.216 666.73C395.164 648.093 388.404 638.27 362.818 622.919V622.897H362.818ZM770.027 600.164C760.92 600.164 753.867 603.86 749.254 611.126L745.568 616.853V601.925H729.807V691.565H745.557V662.906C745.557 636.711 745.873 633.636 749.548 626.477C754.594 616.654 763.277 611.737 771.669 614.095L777.302 615.738V600.165L770.027 600.164ZM237.476 622.38V565.271H221.586V691.765H288.412V676.825H237.477V622.38H237.476ZM604.958 640.184L591.86 674.266L579.267 639.996L566.474 602.018H550.209C560.749 631.899 572.213 662.295 583.774 691.765C588.785 691.882 593.808 691.765 598.819 691.765L616.506 647.355L634.521 602.03H618.971C618.971 602.03 612.105 620.033 604.947 640.195L604.958 640.184ZM274.093 530.803C276.651 530.803 278.787 529.982 280.548 528.222C282.284 526.484 283.199 524.442 283.199 521.884C283.199 519.325 282.284 517.189 280.548 515.546C278.787 513.903 276.756 513.08 274.21 513.08C271.629 513.08 269.492 513.903 267.755 515.639C265.995 517.377 265.196 519.513 265.196 521.978C265.196 524.56 266.019 526.695 267.755 528.316C269.398 529.958 271.534 530.78 274.093 530.78V530.803ZM268.46 516.25C269.985 514.725 271.84 514.02 274.21 514.02C276.44 514.02 278.295 514.725 279.845 516.25C281.37 517.776 282.192 519.63 282.192 521.884C282.192 524.137 281.37 526.085 279.845 527.611C278.296 529.135 276.44 529.864 274.21 529.864C271.945 529.864 270.102 529.159 268.577 527.611C267.052 526.085 266.23 524.137 266.23 521.884C266.23 519.63 266.934 517.776 268.46 516.25ZM272.25 522.706H273.282C274.011 522.706 274.726 523.409 275.336 524.748L276.57 527.516H278.506L276.98 524.441C276.359 523.21 275.749 522.494 275.032 522.293C275.936 522.082 276.651 521.777 277.168 521.166C277.683 520.639 277.872 519.922 277.872 519.112C277.872 518.174 277.579 517.47 276.957 516.953C276.253 516.367 275.126 516.05 273.67 516.05H270.409V527.516H272.051V522.705L272.25 522.706ZM272.25 517.377H273.682C274.715 517.377 275.443 517.588 275.842 517.893C276.229 518.198 276.335 518.598 276.335 519.325C276.335 520.651 275.512 521.274 273.988 521.274H272.228V517.377H272.25ZM9.75891 521.684C9.75891 517.694 9.64201 514.725 9.54784 512.976H9.64201C10.0522 515.04 10.5572 516.579 10.9679 517.599L26.2243 551.681H28.7831L44.0395 517.295C44.4513 516.357 44.8621 514.948 45.3665 512.987H45.4834C45.1787 516.392 45.0732 519.349 45.0732 521.707V551.788H50.2947V507.073H43.7462L29.7221 538.173C29.2052 539.405 28.4892 541.249 27.5741 543.69H27.3619C27.0572 542.481 26.3412 540.638 25.3205 538.384L11.612 506.966H4.65324V551.68H9.6761V521.706L9.75891 521.684ZM61.7383 521.767H66.2459V549.616H61.7383V521.767ZM63.9919 511.556C64.9314 511.556 65.7291 511.238 66.339 510.617C66.9614 510.006 67.3727 509.209 67.3727 508.27C67.3727 507.355 67.0669 506.533 66.3515 505.923C65.7177 505.301 64.9076 504.983 63.9805 504.983C63.0659 504.983 62.2443 505.301 61.6328 505.923C61.0126 506.533 60.6007 507.355 60.6007 508.27C60.6007 509.292 60.9178 510.006 61.6328 510.617C62.3385 511.238 63.0653 511.556 63.9805 511.556H63.9919ZM98.3796 550.227V545.321C95.9144 547.164 93.262 548.08 90.516 548.08C87.2309 548.08 84.5655 546.954 82.6172 544.795C80.6813 542.659 79.6487 539.688 79.6487 535.992C79.6487 532.119 80.6813 529.043 82.8169 526.695C84.8707 524.442 87.5356 523.316 90.7985 523.316C93.4623 523.316 96.0194 524.138 98.3801 525.782V520.559C96.2327 519.432 93.7799 518.916 91.0096 518.916C85.892 518.916 81.9028 520.559 78.9219 523.729C75.9637 526.897 74.4381 531.205 74.4381 536.404C74.4381 541.027 75.764 544.913 78.523 547.882C81.3979 550.933 85.0726 552.482 89.5786 552.482C93.0629 552.386 95.9144 551.658 98.3796 550.227ZM111.277 535.381C111.277 531.707 112.098 528.738 113.624 526.695C115.057 524.853 116.793 523.926 118.847 523.926C120.584 523.926 121.816 524.243 122.719 524.959V519.63C122.015 519.325 120.994 519.22 119.668 519.22C117.825 519.22 116.183 519.84 114.739 520.98C113.214 522.188 111.993 524.032 111.277 526.379H111.161V519.841H106.055V551.764H111.172V535.381H111.277ZM140.653 552.397C145.465 552.397 149.338 550.848 152.213 547.774C155.076 544.721 156.508 540.614 156.508 535.496C156.508 530.275 155.194 526.285 152.518 523.314C149.866 520.347 146.18 518.913 141.368 518.913C136.555 518.913 132.682 520.346 129.808 523.115C126.733 526.168 125.113 530.475 125.113 536.002C125.113 540.814 126.428 544.805 129.198 547.774C132.061 550.848 135.852 552.386 140.653 552.386V552.397ZM133.376 526.39C135.325 524.336 137.884 523.315 141.051 523.315C144.339 523.315 146.803 524.336 148.634 526.39C150.476 528.538 151.392 531.602 151.392 535.697C151.392 539.593 150.57 542.656 148.833 544.71C147.097 546.858 144.538 547.996 141.157 547.996C137.871 547.996 135.325 546.857 133.376 544.71C131.44 542.551 130.513 539.593 130.513 535.697C130.314 531.824 131.335 528.656 133.376 526.39ZM178.913 549.616C180.861 547.88 181.895 545.744 181.895 543.067C181.895 540.719 181.072 538.772 179.547 537.234C178.302 536.003 176.379 534.887 173.597 533.76C171.131 532.729 169.606 531.812 168.784 531.096C167.963 530.275 167.458 529.255 167.458 527.81C167.458 526.484 167.975 525.463 168.985 524.642C170.018 523.821 171.332 523.422 173.093 523.422C175.851 523.422 178.209 524.149 180.368 525.687V520.57C178.303 519.538 176.061 519.045 173.502 519.045C170.217 519.045 167.447 519.949 165.404 521.696C163.256 523.435 162.236 525.688 162.236 528.339C162.236 530.686 162.939 532.635 164.276 534.066C165.403 535.287 167.329 536.532 170.004 537.645C172.563 538.773 174.3 539.793 175.227 540.614C176.142 541.437 176.552 542.457 176.552 543.667C176.552 546.647 174.511 548.185 170.52 548.185C167.445 548.185 164.688 547.175 162.222 545.134V550.648C164.452 551.988 167.129 552.597 170.086 552.597C173.877 552.398 176.845 551.471 178.888 549.628L178.913 549.616ZM203.277 518.914C198.464 518.914 194.592 520.347 191.717 523.116C188.666 526.169 187.022 530.476 187.022 536.003C187.022 540.815 188.35 544.806 191.107 547.775C193.982 550.849 197.761 552.387 202.573 552.387C207.502 552.387 211.258 550.838 214.133 547.762C217.009 544.711 218.44 540.604 218.44 535.486C218.44 530.264 217.102 526.274 214.449 523.304C211.681 520.335 207.994 518.903 203.3 518.903L203.277 518.914ZM213.206 535.698C213.206 539.593 212.384 542.657 210.647 544.711C208.91 546.859 206.351 547.996 202.971 547.996C199.684 547.996 197.138 546.858 195.189 544.711C193.253 542.551 192.326 539.593 192.326 535.698C192.326 531.59 193.348 528.422 195.402 526.285C197.337 524.243 199.897 523.21 203.077 523.21C206.245 523.21 208.793 524.242 210.634 526.285C212.278 528.538 213.194 531.601 213.194 535.698H213.206ZM227.032 551.67H232.137V524.032H239.612V519.736H232.136V514.807C232.136 510.325 233.872 508.071 237.464 508.071C238.673 508.071 239.906 508.376 240.821 508.893V504.281C239.906 503.87 238.673 503.777 237.135 503.777C234.377 503.777 232.124 504.599 230.281 506.335C228.133 508.377 226.995 511.029 226.995 514.622V519.856H221.595V524.151H226.995V551.685L227.032 551.67ZM248.003 542.962C248.003 549.206 250.762 552.386 256.395 552.386C258.437 552.386 259.974 552.058 261.207 551.33V546.941C260.268 547.646 259.153 547.975 257.921 547.975C256.185 547.975 254.964 547.562 254.247 546.635C253.52 545.721 253.109 544.171 253.109 542.035V524.02H261.206V519.724H253.109V510.313C251.349 510.923 249.624 511.44 247.992 511.955V519.724H242.476V524.02H247.992V542.95L248.003 542.962ZM797.255 601.806C795.518 600.164 793.464 599.342 790.918 599.342C788.336 599.342 786.199 600.164 784.462 601.924C782.725 603.649 781.903 605.796 781.903 608.262C781.903 610.821 782.726 612.957 784.449 614.599C786.187 616.242 788.322 617.065 790.905 617.065C793.451 617.065 795.599 616.242 797.36 614.505C799.085 612.745 800.001 610.715 800.001 608.168C799.906 605.586 798.979 603.45 797.243 601.807L797.255 601.806ZM796.433 613.895C794.907 615.421 793.053 616.125 790.8 616.125C788.57 616.125 786.716 615.421 785.167 613.895C783.642 612.346 782.819 610.41 782.819 608.144C782.819 605.914 783.523 604.061 785.073 602.511C786.598 600.987 788.442 600.281 790.8 600.281C793.03 600.281 794.885 600.987 796.433 602.511C797.959 604.061 798.78 605.914 798.78 608.144C798.78 610.516 798.076 612.346 796.433 613.895ZM791.832 608.672C792.747 608.461 793.476 608.051 793.98 607.546C794.497 607.017 794.685 606.301 794.685 605.481C794.685 604.566 794.391 603.838 793.77 603.333C793.066 602.746 791.928 602.429 790.485 602.429H787.222V613.883H788.866V609.071H789.886C790.591 609.071 791.295 609.775 791.928 611.113L793.148 613.871H795.097L793.572 610.795C793.043 609.458 792.433 608.847 791.812 608.647L791.832 608.672ZM790.705 607.64H788.945V603.768H790.389C791.411 603.768 792.126 603.955 792.537 604.272C792.948 604.577 793.042 604.976 793.042 605.704C793.042 607.03 792.22 607.641 790.695 607.641L790.705 607.64ZM505.178 518.41H506.61V506.944H510.399V505.512H501.387V506.944H505.179V518.41H505.178ZM513.862 509.796C513.862 508.68 513.862 507.765 513.78 507.25C513.874 507.859 514.085 508.271 514.18 508.576L518.581 518.41H519.285L523.697 508.481C523.816 508.176 523.91 507.777 524.108 507.25C524.014 508.271 524.014 509.09 524.014 509.714V518.399H525.54V505.512H523.697L519.708 514.408C519.614 514.726 519.296 515.346 519.097 516.052H518.979C518.897 515.64 518.687 515.23 518.393 514.527L514.403 505.513H512.337V518.423H513.78V509.808L513.862 509.796Z" fill="white"/>
</g>
<defs>
<linearGradient id="paint0_linear_518_2" x1="354.367" y1="474.123" x2="386.313" y2="455.247" gradientUnits="userSpaceOnUse">
<stop stop-color="#909CA9"/>
<stop offset="1" stop-color="#EDEDEE"/>
</linearGradient>
<linearGradient id="paint1_linear_518_2" x1="355.098" y1="118.244" x2="380.803" y2="118.244" gradientUnits="userSpaceOnUse">
<stop stop-color="#939FAB"/>
<stop offset="1" stop-color="#DCDEE1"/>
</linearGradient>
<radialGradient id="paint2_radial_518_2" cx="0" cy="0" r="1" gradientUnits="userSpaceOnUse" gradientTransform="translate(484.807 236.136) rotate(-171.457) scale(33.1411 66.2986)">
<stop stop-color="#EE352C"/>
<stop offset="1" stop-color="#A91D22"/>
</radialGradient>
<clipPath id="clip0_518_2">
<rect width="800" height="800" fill="white"/>
</clipPath>
</defs>
</svg>
