<svg width="305" height="80" viewBox="0 0 305 80" fill="none" xmlns="http://www.w3.org/2000/svg">
<rect width="305" height="80" rx="20" fill="#D9D9D9" fill-opacity="0.2"/>
<path d="M69.795 50L61.725 30.56H65.445L72.375 47.93H71.265L78.165 30.56H81.825L73.845 50H69.795ZM96.4767 45.08H99.6867C99.5267 46.1 99.1267 47.01 98.4867 47.81C97.8667 48.59 97.0167 49.21 95.9367 49.67C94.8567 50.11 93.5667 50.33 92.0667 50.33C90.3667 50.33 88.8467 50.02 87.5067 49.4C86.1667 48.76 85.1167 47.86 84.3567 46.7C83.5967 45.54 83.2167 44.16 83.2167 42.56C83.2167 40.98 83.5867 39.6 84.3267 38.42C85.0667 37.24 86.0867 36.33 87.3867 35.69C88.7067 35.05 90.2267 34.73 91.9467 34.73C93.7267 34.73 95.2067 35.05 96.3867 35.69C97.5867 36.31 98.4767 37.25 99.0567 38.51C99.6367 39.75 99.8767 41.32 99.7767 43.22H86.6067C86.7067 44.06 86.9767 44.82 87.4167 45.5C87.8767 46.16 88.4967 46.68 89.2767 47.06C90.0567 47.42 90.9667 47.6 92.0067 47.6C93.1667 47.6 94.1367 47.37 94.9167 46.91C95.7167 46.45 96.2367 45.84 96.4767 45.08ZM91.8567 37.43C90.4967 37.43 89.3767 37.77 88.4967 38.45C87.6167 39.11 87.0467 39.96 86.7867 41H96.4167C96.3367 39.88 95.8867 39.01 95.0667 38.39C94.2467 37.75 93.1767 37.43 91.8567 37.43ZM104.247 35.06H107.577V50H104.247V35.06ZM112.977 37.91C111.897 37.91 110.967 38.14 110.187 38.6C109.427 39.06 108.817 39.62 108.357 40.28C107.897 40.94 107.577 41.58 107.397 42.2L107.367 40.52C107.387 40.3 107.457 39.97 107.577 39.53C107.697 39.07 107.877 38.57 108.117 38.03C108.377 37.49 108.717 36.97 109.137 36.47C109.577 35.95 110.107 35.53 110.727 35.21C111.367 34.89 112.117 34.73 112.977 34.73V37.91ZM140.981 50H137.651V35.06H140.981V50ZM137.831 42.89L137.861 43.85C137.821 44.11 137.731 44.5 137.591 45.02C137.471 45.54 137.261 46.11 136.961 46.73C136.681 47.33 136.301 47.91 135.821 48.47C135.361 49.01 134.781 49.46 134.081 49.82C133.381 50.16 132.531 50.33 131.531 50.33C130.811 50.33 130.081 50.23 129.341 50.03C128.621 49.85 127.961 49.54 127.361 49.1C126.781 48.66 126.311 48.06 125.951 47.3C125.591 46.54 125.411 45.58 125.411 44.42V35.06H128.741V43.79C128.741 44.73 128.891 45.47 129.191 46.01C129.511 46.53 129.951 46.9 130.511 47.12C131.071 47.34 131.721 47.45 132.461 47.45C133.521 47.45 134.421 47.21 135.161 46.73C135.901 46.25 136.491 45.66 136.931 44.96C137.391 44.24 137.691 43.55 137.831 42.89ZM146.459 29.06H149.789V50H146.459V29.06ZM153.699 35.06H164.259V37.79H153.699V35.06ZM157.299 31.04H160.659V50H157.299V31.04ZM172.278 28.73V31.94H168.288V28.73H172.278ZM168.588 35.06H171.948V50H168.588V35.06ZM177.436 35.06H180.766V50H177.436V35.06ZM187.066 34.73C187.926 34.73 188.716 34.85 189.436 35.09C190.176 35.33 190.806 35.7 191.326 36.2C191.866 36.68 192.276 37.28 192.556 38C192.856 38.72 193.006 39.57 193.006 40.55V50H189.676V41.21C189.676 39.99 189.376 39.09 188.776 38.51C188.196 37.91 187.276 37.61 186.016 37.61C185.056 37.61 184.176 37.82 183.376 38.24C182.596 38.64 181.956 39.17 181.456 39.83C180.956 40.47 180.666 41.18 180.586 41.96L180.556 40.34C180.656 39.6 180.876 38.9 181.216 38.24C181.556 37.56 182.006 36.96 182.566 36.44C183.126 35.9 183.786 35.48 184.546 35.18C185.306 34.88 186.146 34.73 187.066 34.73ZM198.976 34.73C199.856 34.73 200.656 34.85 201.376 35.09C202.096 35.33 202.716 35.7 203.236 36.2C203.776 36.68 204.196 37.28 204.496 38C204.796 38.72 204.946 39.57 204.946 40.55V50H201.586V41.21C201.586 39.99 201.286 39.09 200.686 38.51C200.106 37.91 199.186 37.61 197.926 37.61C196.966 37.61 196.086 37.82 195.286 38.24C194.506 38.64 193.866 39.17 193.366 39.83C192.886 40.47 192.606 41.18 192.526 41.96L192.466 40.28C192.566 39.56 192.796 38.87 193.156 38.21C193.516 37.53 193.976 36.93 194.536 36.41C195.096 35.89 195.746 35.48 196.486 35.18C197.246 34.88 198.076 34.73 198.976 34.73ZM218.058 50.33C216.398 50.33 214.908 50.03 213.588 49.43C212.268 48.83 211.228 47.95 210.468 46.79C209.708 45.63 209.328 44.22 209.328 42.56C209.328 40.92 209.708 39.52 210.468 38.36C211.228 37.18 212.268 36.28 213.588 35.66C214.908 35.04 216.398 34.73 218.058 34.73C219.718 34.73 221.198 35.04 222.498 35.66C223.798 36.28 224.818 37.18 225.558 38.36C226.318 39.52 226.698 40.92 226.698 42.56C226.698 44.22 226.318 45.63 225.558 46.79C224.818 47.95 223.798 48.83 222.498 49.43C221.198 50.03 219.718 50.33 218.058 50.33ZM218.058 47.6C219.018 47.6 219.898 47.41 220.698 47.03C221.498 46.65 222.128 46.08 222.588 45.32C223.068 44.56 223.308 43.64 223.308 42.56C223.308 41.48 223.068 40.56 222.588 39.8C222.128 39.04 221.498 38.46 220.698 38.06C219.918 37.64 219.038 37.43 218.058 37.43C217.078 37.43 216.188 37.63 215.388 38.03C214.588 38.43 213.938 39.01 213.438 39.77C212.958 40.53 212.718 41.46 212.718 42.56C212.718 43.64 212.958 44.56 213.438 45.32C213.918 46.08 214.558 46.65 215.358 47.03C216.178 47.41 217.078 47.6 218.058 47.6ZM230.518 45.08H233.608C233.768 45.84 234.178 46.46 234.838 46.94C235.498 47.4 236.388 47.63 237.508 47.63C238.228 47.63 238.788 47.55 239.188 47.39C239.608 47.23 239.898 47.01 240.058 46.73C240.238 46.45 240.328 46.13 240.328 45.77C240.328 45.33 240.198 44.99 239.938 44.75C239.698 44.51 239.338 44.31 238.858 44.15C238.378 43.99 237.778 43.85 237.058 43.73C236.318 43.55 235.588 43.35 234.868 43.13C234.148 42.91 233.498 42.64 232.918 42.32C232.338 41.98 231.878 41.56 231.538 41.06C231.218 40.54 231.058 39.91 231.058 39.17C231.058 38.49 231.208 37.88 231.508 37.34C231.828 36.78 232.268 36.31 232.828 35.93C233.388 35.55 234.048 35.26 234.808 35.06C235.568 34.84 236.398 34.73 237.298 34.73C238.598 34.73 239.678 34.94 240.538 35.36C241.418 35.78 242.078 36.37 242.518 37.13C242.978 37.89 243.208 38.76 243.208 39.74H240.268C240.108 38.94 239.798 38.36 239.338 38C238.878 37.64 238.188 37.46 237.268 37.46C236.348 37.46 235.648 37.62 235.168 37.94C234.688 38.26 234.448 38.7 234.448 39.26C234.448 39.68 234.598 40.02 234.898 40.28C235.218 40.52 235.668 40.73 236.248 40.91C236.828 41.09 237.508 41.27 238.288 41.45C239.008 41.65 239.688 41.86 240.328 42.08C240.968 42.28 241.538 42.54 242.038 42.86C242.558 43.16 242.968 43.56 243.268 44.06C243.568 44.56 243.718 45.18 243.718 45.92C243.718 46.84 243.468 47.63 242.968 48.29C242.488 48.95 241.788 49.46 240.868 49.82C239.948 50.16 238.838 50.33 237.538 50.33C236.398 50.33 235.408 50.2 234.568 49.94C233.748 49.68 233.058 49.34 232.498 48.92C231.958 48.5 231.538 48.05 231.238 47.57C230.938 47.09 230.728 46.63 230.608 46.19C230.508 45.75 230.478 45.38 230.518 45.08Z" fill="black"/>
</svg>
