<svg width="92" height="92" viewBox="0 0 92 92" fill="none" xmlns="http://www.w3.org/2000/svg">
<path d="M92 73.3758C92 77.0578 88.9875 80.0703 85.3055 80.0703H6.69447C3.01251 80.0703 0 77.0578 0 73.3758V18.6244C0 14.9424 3.01251 11.9299 6.69447 11.9299H85.3055C88.9875 11.9299 92 14.9424 92 18.6244V73.3758Z" fill="#E8E8E8"/>
<path d="M85.3055 11.9299H6.69447C3.01251 11.9299 0 14.9424 0 18.6244V21.7896H92V18.6244C92 14.9424 88.9875 11.9299 85.3055 11.9299Z" fill="#333E48"/>
<path d="M8.60021 19.0708C9.82134 19.0708 10.8113 18.0809 10.8113 16.8597C10.8113 15.6386 9.82134 14.6487 8.60021 14.6487C7.37908 14.6487 6.38916 15.6386 6.38916 16.8597C6.38916 18.0809 7.37908 19.0708 8.60021 19.0708Z" fill="#FB7598"/>
<path d="M16.7433 19.0708C17.9644 19.0708 18.9543 18.0809 18.9543 16.8597C18.9543 15.6386 17.9644 14.6487 16.7433 14.6487C15.5221 14.6487 14.5322 15.6386 14.5322 16.8597C14.5322 18.0809 15.5221 19.0708 16.7433 19.0708Z" fill="#FEE050"/>
<path d="M24.8863 19.0708C26.1075 19.0708 27.0974 18.0809 27.0974 16.8597C27.0974 15.6386 26.1075 14.6487 24.8863 14.6487C23.6652 14.6487 22.6753 15.6386 22.6753 16.8597C22.6753 18.0809 23.6652 19.0708 24.8863 19.0708Z" fill="#61B4E4"/>
<path d="M34.8784 30.8052H11.9429V52.5044H34.8784V30.8052Z" fill="#61B4E4"/>
<path d="M80.4148 30.8052H42.998V39.8451H80.4148V30.8052Z" fill="#005CB9"/>
<path d="M80.4148 43.4641H42.998V52.5043H80.4148V43.4641Z" fill="white"/>
<path d="M42.998 57.4236H11.9429V68.4729H42.998V57.4236Z" fill="#005CB9"/>
<path d="M80.4147 57.4236H67.6914V68.4729H80.4147V57.4236Z" fill="#005CB9"/>
<path d="M61.7064 57.4236H48.9829V68.4729H61.7064V57.4236Z" fill="#61B4E4"/>
<path d="M61.301 46.9228L65.9989 45.0258L53.1865 41.4282L56.7841 54.2406L58.6816 49.5425L63.6794 54.5403L66.2986 51.9206L61.301 46.9228Z" fill="#1E252B"/>
</svg>
